<mxfile host="Electron" agent="Mozilla/5.0 (Windows NT 10.0; Win64; x64) AppleWebKit/537.36 (KHTML, like Gecko) draw.io/26.2.2 Chrome/134.0.6998.178 Electron/35.1.2 Safari/537.36" version="26.2.2">
  <diagram id="R2lEEEUBdFMjLlhIrx00" name="Page-1">
    <mxGraphModel dx="2242" dy="1935" grid="1" gridSize="10" guides="1" tooltips="1" connect="1" arrows="1" fold="1" page="1" pageScale="1" pageWidth="850" pageHeight="1100" background="#ffffff" math="0" shadow="1" adaptiveColors="auto" extFonts="Permanent Marker^https://fonts.googleapis.com/css?family=Permanent+Marker">
      <root>
        <mxCell id="0" />
        <mxCell id="1" parent="0" />
        <mxCell id="C-vyLk0tnHw3VtMMgP7b-23" value="Roles" style="shape=table;startSize=30;container=1;collapsible=1;childLayout=tableLayout;fixedRows=1;rowLines=0;fontStyle=1;align=center;resizeLast=1;labelBackgroundColor=none;rounded=0;" parent="1" vertex="1">
          <mxGeometry x="30" y="170" width="250" height="100" as="geometry" />
        </mxCell>
        <mxCell id="C-vyLk0tnHw3VtMMgP7b-24" value="" style="shape=partialRectangle;collapsible=0;dropTarget=0;pointerEvents=0;fillColor=none;points=[[0,0.5],[1,0.5]];portConstraint=eastwest;top=0;left=0;right=0;bottom=1;labelBackgroundColor=none;rounded=0;" parent="C-vyLk0tnHw3VtMMgP7b-23" vertex="1">
          <mxGeometry y="30" width="250" height="30" as="geometry" />
        </mxCell>
        <mxCell id="C-vyLk0tnHw3VtMMgP7b-25" value="PK" style="shape=partialRectangle;overflow=hidden;connectable=0;fillColor=none;top=0;left=0;bottom=0;right=0;fontStyle=1;labelBackgroundColor=none;rounded=0;" parent="C-vyLk0tnHw3VtMMgP7b-24" vertex="1">
          <mxGeometry width="30" height="30" as="geometry">
            <mxRectangle width="30" height="30" as="alternateBounds" />
          </mxGeometry>
        </mxCell>
        <mxCell id="C-vyLk0tnHw3VtMMgP7b-26" value="id_rol(INT)" style="shape=partialRectangle;overflow=hidden;connectable=0;fillColor=none;top=0;left=0;bottom=0;right=0;align=left;spacingLeft=6;fontStyle=5;labelBackgroundColor=none;rounded=0;" parent="C-vyLk0tnHw3VtMMgP7b-24" vertex="1">
          <mxGeometry x="30" width="220" height="30" as="geometry">
            <mxRectangle width="220" height="30" as="alternateBounds" />
          </mxGeometry>
        </mxCell>
        <mxCell id="C-vyLk0tnHw3VtMMgP7b-27" value="" style="shape=partialRectangle;collapsible=0;dropTarget=0;pointerEvents=0;fillColor=none;points=[[0,0.5],[1,0.5]];portConstraint=eastwest;top=0;left=0;right=0;bottom=0;labelBackgroundColor=none;rounded=0;" parent="C-vyLk0tnHw3VtMMgP7b-23" vertex="1">
          <mxGeometry y="60" width="250" height="30" as="geometry" />
        </mxCell>
        <mxCell id="C-vyLk0tnHw3VtMMgP7b-28" value="" style="shape=partialRectangle;overflow=hidden;connectable=0;fillColor=none;top=0;left=0;bottom=0;right=0;labelBackgroundColor=none;rounded=0;" parent="C-vyLk0tnHw3VtMMgP7b-27" vertex="1">
          <mxGeometry width="30" height="30" as="geometry">
            <mxRectangle width="30" height="30" as="alternateBounds" />
          </mxGeometry>
        </mxCell>
        <mxCell id="C-vyLk0tnHw3VtMMgP7b-29" value="Nombre(VARCHAR(20))" style="shape=partialRectangle;overflow=hidden;connectable=0;fillColor=none;top=0;left=0;bottom=0;right=0;align=left;spacingLeft=6;labelBackgroundColor=none;rounded=0;" parent="C-vyLk0tnHw3VtMMgP7b-27" vertex="1">
          <mxGeometry x="30" width="220" height="30" as="geometry">
            <mxRectangle width="220" height="30" as="alternateBounds" />
          </mxGeometry>
        </mxCell>
        <mxCell id="TOLBs5nu6_EnxWr0bToY-27" style="edgeStyle=orthogonalEdgeStyle;rounded=0;orthogonalLoop=1;jettySize=auto;html=1;endArrow=ERone;endFill=0;startArrow=ERone;startFill=0;labelBackgroundColor=none;fontColor=default;" parent="1" source="C-vyLk0tnHw3VtMMgP7b-24" target="C-vyLk0tnHw3VtMMgP7b-6" edge="1">
          <mxGeometry relative="1" as="geometry" />
        </mxCell>
        <mxCell id="TOLBs5nu6_EnxWr0bToY-47" value="" style="group;labelBackgroundColor=none;rounded=0;" parent="1" vertex="1" connectable="0">
          <mxGeometry y="350" width="250" height="210" as="geometry" />
        </mxCell>
        <mxCell id="C-vyLk0tnHw3VtMMgP7b-13" value="Ubicacion" style="shape=table;startSize=30;container=1;collapsible=1;childLayout=tableLayout;fixedRows=1;rowLines=0;fontStyle=1;align=center;resizeLast=1;labelBackgroundColor=none;rounded=0;" parent="TOLBs5nu6_EnxWr0bToY-47" vertex="1">
          <mxGeometry width="250" height="210" as="geometry" />
        </mxCell>
        <mxCell id="C-vyLk0tnHw3VtMMgP7b-14" value="" style="shape=partialRectangle;collapsible=0;dropTarget=0;pointerEvents=0;fillColor=none;points=[[0,0.5],[1,0.5]];portConstraint=eastwest;top=0;left=0;right=0;bottom=1;labelBackgroundColor=none;rounded=0;" parent="C-vyLk0tnHw3VtMMgP7b-13" vertex="1">
          <mxGeometry y="30" width="250" height="30" as="geometry" />
        </mxCell>
        <mxCell id="C-vyLk0tnHw3VtMMgP7b-15" value="PK" style="shape=partialRectangle;overflow=hidden;connectable=0;fillColor=none;top=0;left=0;bottom=0;right=0;fontStyle=1;labelBackgroundColor=none;rounded=0;" parent="C-vyLk0tnHw3VtMMgP7b-14" vertex="1">
          <mxGeometry width="30" height="30" as="geometry">
            <mxRectangle width="30" height="30" as="alternateBounds" />
          </mxGeometry>
        </mxCell>
        <mxCell id="C-vyLk0tnHw3VtMMgP7b-16" value="id_ubicacion(INT)" style="shape=partialRectangle;overflow=hidden;connectable=0;fillColor=none;top=0;left=0;bottom=0;right=0;align=left;spacingLeft=6;fontStyle=5;labelBackgroundColor=none;rounded=0;" parent="C-vyLk0tnHw3VtMMgP7b-14" vertex="1">
          <mxGeometry x="30" width="220" height="30" as="geometry">
            <mxRectangle width="220" height="30" as="alternateBounds" />
          </mxGeometry>
        </mxCell>
        <mxCell id="C-vyLk0tnHw3VtMMgP7b-17" value="" style="shape=partialRectangle;collapsible=0;dropTarget=0;pointerEvents=0;fillColor=none;points=[[0,0.5],[1,0.5]];portConstraint=eastwest;top=0;left=0;right=0;bottom=0;labelBackgroundColor=none;rounded=0;" parent="C-vyLk0tnHw3VtMMgP7b-13" vertex="1">
          <mxGeometry y="60" width="250" height="30" as="geometry" />
        </mxCell>
        <mxCell id="C-vyLk0tnHw3VtMMgP7b-18" value="" style="shape=partialRectangle;overflow=hidden;connectable=0;fillColor=none;top=0;left=0;bottom=0;right=0;labelBackgroundColor=none;rounded=0;" parent="C-vyLk0tnHw3VtMMgP7b-17" vertex="1">
          <mxGeometry width="30" height="30" as="geometry">
            <mxRectangle width="30" height="30" as="alternateBounds" />
          </mxGeometry>
        </mxCell>
        <mxCell id="C-vyLk0tnHw3VtMMgP7b-19" value="Pais(VARCHAR(20))" style="shape=partialRectangle;overflow=hidden;connectable=0;fillColor=none;top=0;left=0;bottom=0;right=0;align=left;spacingLeft=6;labelBackgroundColor=none;rounded=0;" parent="C-vyLk0tnHw3VtMMgP7b-17" vertex="1">
          <mxGeometry x="30" width="220" height="30" as="geometry">
            <mxRectangle width="220" height="30" as="alternateBounds" />
          </mxGeometry>
        </mxCell>
        <mxCell id="C-vyLk0tnHw3VtMMgP7b-20" value="" style="shape=partialRectangle;collapsible=0;dropTarget=0;pointerEvents=0;fillColor=none;points=[[0,0.5],[1,0.5]];portConstraint=eastwest;top=0;left=0;right=0;bottom=0;labelBackgroundColor=none;rounded=0;" parent="C-vyLk0tnHw3VtMMgP7b-13" vertex="1">
          <mxGeometry y="90" width="250" height="30" as="geometry" />
        </mxCell>
        <mxCell id="C-vyLk0tnHw3VtMMgP7b-21" value="" style="shape=partialRectangle;overflow=hidden;connectable=0;fillColor=none;top=0;left=0;bottom=0;right=0;labelBackgroundColor=none;rounded=0;" parent="C-vyLk0tnHw3VtMMgP7b-20" vertex="1">
          <mxGeometry width="30" height="30" as="geometry">
            <mxRectangle width="30" height="30" as="alternateBounds" />
          </mxGeometry>
        </mxCell>
        <mxCell id="C-vyLk0tnHw3VtMMgP7b-22" value="Departamento(VARCHAR(20))" style="shape=partialRectangle;overflow=hidden;connectable=0;fillColor=none;top=0;left=0;bottom=0;right=0;align=left;spacingLeft=6;labelBackgroundColor=none;rounded=0;" parent="C-vyLk0tnHw3VtMMgP7b-20" vertex="1">
          <mxGeometry x="30" width="220" height="30" as="geometry">
            <mxRectangle width="220" height="30" as="alternateBounds" />
          </mxGeometry>
        </mxCell>
        <mxCell id="TOLBs5nu6_EnxWr0bToY-43" value="" style="shape=partialRectangle;collapsible=0;dropTarget=0;pointerEvents=0;fillColor=none;points=[[0,0.5],[1,0.5]];portConstraint=eastwest;top=0;left=0;right=0;bottom=0;labelBackgroundColor=none;rounded=0;" parent="TOLBs5nu6_EnxWr0bToY-47" vertex="1">
          <mxGeometry y="120" width="250" height="30" as="geometry" />
        </mxCell>
        <mxCell id="TOLBs5nu6_EnxWr0bToY-44" value="" style="shape=partialRectangle;overflow=hidden;connectable=0;fillColor=none;top=0;left=0;bottom=0;right=0;labelBackgroundColor=none;rounded=0;" parent="TOLBs5nu6_EnxWr0bToY-43" vertex="1">
          <mxGeometry width="30" height="30" as="geometry">
            <mxRectangle width="30" height="30" as="alternateBounds" />
          </mxGeometry>
        </mxCell>
        <mxCell id="TOLBs5nu6_EnxWr0bToY-45" value="Ciudad(VARCHAR(20))" style="shape=partialRectangle;overflow=hidden;connectable=0;fillColor=none;top=0;left=0;bottom=0;right=0;align=left;spacingLeft=6;labelBackgroundColor=none;rounded=0;" parent="TOLBs5nu6_EnxWr0bToY-43" vertex="1">
          <mxGeometry x="30" width="220" height="30" as="geometry">
            <mxRectangle width="220" height="30" as="alternateBounds" />
          </mxGeometry>
        </mxCell>
        <mxCell id="TOLBs5nu6_EnxWr0bToY-46" value="Direccion(VARCHAR(20))" style="shape=partialRectangle;overflow=hidden;connectable=0;fillColor=none;top=0;left=0;bottom=0;right=0;align=left;spacingLeft=6;labelBackgroundColor=none;rounded=0;" parent="TOLBs5nu6_EnxWr0bToY-47" vertex="1">
          <mxGeometry x="30" y="150" width="220" height="30" as="geometry">
            <mxRectangle width="220" height="30" as="alternateBounds" />
          </mxGeometry>
        </mxCell>
        <mxCell id="TOLBs5nu6_EnxWr0bToY-48" style="edgeStyle=orthogonalEdgeStyle;rounded=0;orthogonalLoop=1;jettySize=auto;html=1;entryX=0;entryY=0.5;entryDx=0;entryDy=0;startArrow=ERone;startFill=0;endArrow=ERone;endFill=0;labelBackgroundColor=none;fontColor=default;" parent="1" source="C-vyLk0tnHw3VtMMgP7b-14" target="TOLBs5nu6_EnxWr0bToY-33" edge="1">
          <mxGeometry relative="1" as="geometry" />
        </mxCell>
        <mxCell id="TOLBs5nu6_EnxWr0bToY-70" style="edgeStyle=orthogonalEdgeStyle;rounded=0;orthogonalLoop=1;jettySize=auto;html=1;entryX=0;entryY=0.5;entryDx=0;entryDy=0;startArrow=ERone;startFill=0;endArrow=ERmany;endFill=0;labelBackgroundColor=none;fontColor=default;" parent="1" source="C-vyLk0tnHw3VtMMgP7b-3" target="TOLBs5nu6_EnxWr0bToY-67" edge="1">
          <mxGeometry relative="1" as="geometry" />
        </mxCell>
        <mxCell id="TOLBs5nu6_EnxWr0bToY-71" value="" style="group;labelBackgroundColor=none;rounded=0;" parent="1" vertex="1" connectable="0">
          <mxGeometry x="750" y="-170" width="250" height="190" as="geometry" />
        </mxCell>
        <mxCell id="R8GNkzTn_ce1CcZ8P2t4-35" value="" style="group;labelBackgroundColor=none;rounded=0;" parent="TOLBs5nu6_EnxWr0bToY-71" vertex="1" connectable="0">
          <mxGeometry width="250" height="150" as="geometry" />
        </mxCell>
        <mxCell id="TOLBs5nu6_EnxWr0bToY-49" value="Codigos" style="shape=table;startSize=30;container=1;collapsible=1;childLayout=tableLayout;fixedRows=1;rowLines=0;fontStyle=1;align=center;resizeLast=1;labelBackgroundColor=none;rounded=0;" parent="R8GNkzTn_ce1CcZ8P2t4-35" vertex="1">
          <mxGeometry width="250" height="150" as="geometry" />
        </mxCell>
        <mxCell id="TOLBs5nu6_EnxWr0bToY-50" value="" style="shape=partialRectangle;collapsible=0;dropTarget=0;pointerEvents=0;fillColor=none;points=[[0,0.5],[1,0.5]];portConstraint=eastwest;top=0;left=0;right=0;bottom=1;labelBackgroundColor=none;rounded=0;" parent="TOLBs5nu6_EnxWr0bToY-49" vertex="1">
          <mxGeometry y="30" width="250" height="30" as="geometry" />
        </mxCell>
        <mxCell id="TOLBs5nu6_EnxWr0bToY-51" value="PK" style="shape=partialRectangle;overflow=hidden;connectable=0;fillColor=none;top=0;left=0;bottom=0;right=0;fontStyle=1;labelBackgroundColor=none;rounded=0;" parent="TOLBs5nu6_EnxWr0bToY-50" vertex="1">
          <mxGeometry width="30" height="30" as="geometry">
            <mxRectangle width="30" height="30" as="alternateBounds" />
          </mxGeometry>
        </mxCell>
        <mxCell id="TOLBs5nu6_EnxWr0bToY-52" value="id_codigo(INT)" style="shape=partialRectangle;overflow=hidden;connectable=0;fillColor=none;top=0;left=0;bottom=0;right=0;align=left;spacingLeft=6;fontStyle=5;labelBackgroundColor=none;rounded=0;" parent="TOLBs5nu6_EnxWr0bToY-50" vertex="1">
          <mxGeometry x="30" width="220" height="30" as="geometry">
            <mxRectangle width="220" height="30" as="alternateBounds" />
          </mxGeometry>
        </mxCell>
        <mxCell id="TOLBs5nu6_EnxWr0bToY-53" value="" style="shape=partialRectangle;collapsible=0;dropTarget=0;pointerEvents=0;fillColor=none;points=[[0,0.5],[1,0.5]];portConstraint=eastwest;top=0;left=0;right=0;bottom=0;labelBackgroundColor=none;rounded=0;" parent="TOLBs5nu6_EnxWr0bToY-49" vertex="1">
          <mxGeometry y="60" width="250" height="30" as="geometry" />
        </mxCell>
        <mxCell id="TOLBs5nu6_EnxWr0bToY-54" value="" style="shape=partialRectangle;overflow=hidden;connectable=0;fillColor=none;top=0;left=0;bottom=0;right=0;labelBackgroundColor=none;rounded=0;" parent="TOLBs5nu6_EnxWr0bToY-53" vertex="1">
          <mxGeometry width="30" height="30" as="geometry">
            <mxRectangle width="30" height="30" as="alternateBounds" />
          </mxGeometry>
        </mxCell>
        <mxCell id="TOLBs5nu6_EnxWr0bToY-55" value="Nombre(VARCHAR(20))" style="shape=partialRectangle;overflow=hidden;connectable=0;fillColor=none;top=0;left=0;bottom=0;right=0;align=left;spacingLeft=6;labelBackgroundColor=none;rounded=0;" parent="TOLBs5nu6_EnxWr0bToY-53" vertex="1">
          <mxGeometry x="30" width="220" height="30" as="geometry">
            <mxRectangle width="220" height="30" as="alternateBounds" />
          </mxGeometry>
        </mxCell>
        <mxCell id="TOLBs5nu6_EnxWr0bToY-64" value="" style="shape=partialRectangle;collapsible=0;dropTarget=0;pointerEvents=0;fillColor=none;points=[[0,0.5],[1,0.5]];portConstraint=eastwest;top=0;left=0;right=0;bottom=0;labelBackgroundColor=none;rounded=0;" parent="R8GNkzTn_ce1CcZ8P2t4-35" vertex="1">
          <mxGeometry y="90" width="250" height="30" as="geometry" />
        </mxCell>
        <mxCell id="TOLBs5nu6_EnxWr0bToY-65" value="" style="shape=partialRectangle;overflow=hidden;connectable=0;fillColor=none;top=0;left=0;bottom=0;right=0;labelBackgroundColor=none;rounded=0;" parent="TOLBs5nu6_EnxWr0bToY-64" vertex="1">
          <mxGeometry width="30" height="30" as="geometry">
            <mxRectangle width="30" height="30" as="alternateBounds" />
          </mxGeometry>
        </mxCell>
        <mxCell id="TOLBs5nu6_EnxWr0bToY-66" value="Valor(FLOAT)" style="shape=partialRectangle;overflow=hidden;connectable=0;fillColor=none;top=0;left=0;bottom=0;right=0;align=left;spacingLeft=6;labelBackgroundColor=none;rounded=0;" parent="TOLBs5nu6_EnxWr0bToY-64" vertex="1">
          <mxGeometry x="30" width="220" height="30" as="geometry">
            <mxRectangle width="220" height="30" as="alternateBounds" />
          </mxGeometry>
        </mxCell>
        <mxCell id="TOLBs5nu6_EnxWr0bToY-67" value="" style="shape=partialRectangle;collapsible=0;dropTarget=0;pointerEvents=0;fillColor=none;points=[[0,0.5],[1,0.5]];portConstraint=eastwest;top=0;left=0;right=0;bottom=0;labelBackgroundColor=none;rounded=0;" parent="R8GNkzTn_ce1CcZ8P2t4-35" vertex="1">
          <mxGeometry y="120" width="250" height="30" as="geometry" />
        </mxCell>
        <mxCell id="TOLBs5nu6_EnxWr0bToY-68" value="FK" style="shape=partialRectangle;overflow=hidden;connectable=0;fillColor=none;top=0;left=0;bottom=0;right=0;labelBackgroundColor=none;rounded=0;" parent="TOLBs5nu6_EnxWr0bToY-67" vertex="1">
          <mxGeometry width="30" height="30" as="geometry">
            <mxRectangle width="30" height="30" as="alternateBounds" />
          </mxGeometry>
        </mxCell>
        <mxCell id="TOLBs5nu6_EnxWr0bToY-69" value="id_usuario(INT)" style="shape=partialRectangle;overflow=hidden;connectable=0;fillColor=none;top=0;left=0;bottom=0;right=0;align=left;spacingLeft=6;labelBackgroundColor=none;rounded=0;" parent="TOLBs5nu6_EnxWr0bToY-67" vertex="1">
          <mxGeometry x="30" width="220" height="30" as="geometry">
            <mxRectangle width="220" height="30" as="alternateBounds" />
          </mxGeometry>
        </mxCell>
        <mxCell id="TOLBs5nu6_EnxWr0bToY-110" style="edgeStyle=orthogonalEdgeStyle;rounded=0;orthogonalLoop=1;jettySize=auto;html=1;entryX=0;entryY=0.5;entryDx=0;entryDy=0;startArrow=ERone;startFill=0;endArrow=ERone;endFill=0;labelBackgroundColor=none;fontColor=default;" parent="1" source="TOLBs5nu6_EnxWr0bToY-80" target="TOLBs5nu6_EnxWr0bToY-39" edge="1">
          <mxGeometry relative="1" as="geometry" />
        </mxCell>
        <mxCell id="TOLBs5nu6_EnxWr0bToY-111" value="" style="group;labelBackgroundColor=none;rounded=0;" parent="1" vertex="1" connectable="0">
          <mxGeometry x="-140" y="1030" width="250" height="150" as="geometry" />
        </mxCell>
        <mxCell id="TOLBs5nu6_EnxWr0bToY-72" value="Gustos" style="shape=table;startSize=30;container=1;collapsible=1;childLayout=tableLayout;fixedRows=1;rowLines=0;fontStyle=1;align=center;resizeLast=1;labelBackgroundColor=none;rounded=0;" parent="TOLBs5nu6_EnxWr0bToY-111" vertex="1">
          <mxGeometry width="250" height="150" as="geometry" />
        </mxCell>
        <mxCell id="TOLBs5nu6_EnxWr0bToY-73" value="" style="shape=partialRectangle;collapsible=0;dropTarget=0;pointerEvents=0;fillColor=none;points=[[0,0.5],[1,0.5]];portConstraint=eastwest;top=0;left=0;right=0;bottom=1;labelBackgroundColor=none;rounded=0;" parent="TOLBs5nu6_EnxWr0bToY-72" vertex="1">
          <mxGeometry y="30" width="250" height="30" as="geometry" />
        </mxCell>
        <mxCell id="TOLBs5nu6_EnxWr0bToY-74" value="PK" style="shape=partialRectangle;overflow=hidden;connectable=0;fillColor=none;top=0;left=0;bottom=0;right=0;fontStyle=1;labelBackgroundColor=none;rounded=0;" parent="TOLBs5nu6_EnxWr0bToY-73" vertex="1">
          <mxGeometry width="30" height="30" as="geometry">
            <mxRectangle width="30" height="30" as="alternateBounds" />
          </mxGeometry>
        </mxCell>
        <mxCell id="TOLBs5nu6_EnxWr0bToY-75" value="id_gusto(INT)" style="shape=partialRectangle;overflow=hidden;connectable=0;fillColor=none;top=0;left=0;bottom=0;right=0;align=left;spacingLeft=6;fontStyle=5;labelBackgroundColor=none;rounded=0;" parent="TOLBs5nu6_EnxWr0bToY-73" vertex="1">
          <mxGeometry x="30" width="220" height="30" as="geometry">
            <mxRectangle width="220" height="30" as="alternateBounds" />
          </mxGeometry>
        </mxCell>
        <mxCell id="TOLBs5nu6_EnxWr0bToY-76" value="" style="shape=partialRectangle;collapsible=0;dropTarget=0;pointerEvents=0;fillColor=none;points=[[0,0.5],[1,0.5]];portConstraint=eastwest;top=0;left=0;right=0;bottom=0;labelBackgroundColor=none;rounded=0;" parent="TOLBs5nu6_EnxWr0bToY-72" vertex="1">
          <mxGeometry y="60" width="250" height="30" as="geometry" />
        </mxCell>
        <mxCell id="TOLBs5nu6_EnxWr0bToY-77" value="" style="shape=partialRectangle;overflow=hidden;connectable=0;fillColor=none;top=0;left=0;bottom=0;right=0;labelBackgroundColor=none;rounded=0;" parent="TOLBs5nu6_EnxWr0bToY-76" vertex="1">
          <mxGeometry width="30" height="30" as="geometry">
            <mxRectangle width="30" height="30" as="alternateBounds" />
          </mxGeometry>
        </mxCell>
        <mxCell id="TOLBs5nu6_EnxWr0bToY-78" value="Nombre(VARCHAR(20))" style="shape=partialRectangle;overflow=hidden;connectable=0;fillColor=none;top=0;left=0;bottom=0;right=0;align=left;spacingLeft=6;labelBackgroundColor=none;rounded=0;" parent="TOLBs5nu6_EnxWr0bToY-76" vertex="1">
          <mxGeometry x="30" width="220" height="30" as="geometry">
            <mxRectangle width="220" height="30" as="alternateBounds" />
          </mxGeometry>
        </mxCell>
        <mxCell id="TOLBs5nu6_EnxWr0bToY-101" value="" style="shape=partialRectangle;collapsible=0;dropTarget=0;pointerEvents=0;fillColor=none;points=[[0,0.5],[1,0.5]];portConstraint=eastwest;top=0;left=0;right=0;bottom=0;labelBackgroundColor=none;rounded=0;" parent="TOLBs5nu6_EnxWr0bToY-111" vertex="1">
          <mxGeometry y="90" width="250" height="30" as="geometry" />
        </mxCell>
        <mxCell id="TOLBs5nu6_EnxWr0bToY-102" value="" style="shape=partialRectangle;overflow=hidden;connectable=0;fillColor=none;top=0;left=0;bottom=0;right=0;labelBackgroundColor=none;rounded=0;" parent="TOLBs5nu6_EnxWr0bToY-101" vertex="1">
          <mxGeometry width="30" height="30" as="geometry">
            <mxRectangle width="30" height="30" as="alternateBounds" />
          </mxGeometry>
        </mxCell>
        <mxCell id="TOLBs5nu6_EnxWr0bToY-103" value="Descripcion(VARCHAR(50))" style="shape=partialRectangle;overflow=hidden;connectable=0;fillColor=none;top=0;left=0;bottom=0;right=0;align=left;spacingLeft=6;labelBackgroundColor=none;rounded=0;" parent="TOLBs5nu6_EnxWr0bToY-101" vertex="1">
          <mxGeometry x="30" width="220" height="30" as="geometry">
            <mxRectangle width="220" height="30" as="alternateBounds" />
          </mxGeometry>
        </mxCell>
        <mxCell id="TOLBs5nu6_EnxWr0bToY-104" value="" style="shape=partialRectangle;collapsible=0;dropTarget=0;pointerEvents=0;fillColor=none;points=[[0,0.5],[1,0.5]];portConstraint=eastwest;top=0;left=0;right=0;bottom=0;labelBackgroundColor=none;rounded=0;" parent="TOLBs5nu6_EnxWr0bToY-111" vertex="1">
          <mxGeometry y="120" width="250" height="30" as="geometry" />
        </mxCell>
        <mxCell id="TOLBs5nu6_EnxWr0bToY-105" value="" style="shape=partialRectangle;overflow=hidden;connectable=0;fillColor=none;top=0;left=0;bottom=0;right=0;labelBackgroundColor=none;rounded=0;" parent="TOLBs5nu6_EnxWr0bToY-104" vertex="1">
          <mxGeometry width="30" height="30" as="geometry">
            <mxRectangle width="30" height="30" as="alternateBounds" />
          </mxGeometry>
        </mxCell>
        <mxCell id="TOLBs5nu6_EnxWr0bToY-106" value="Estado(VARCHAR(20))" style="shape=partialRectangle;overflow=hidden;connectable=0;fillColor=none;top=0;left=0;bottom=0;right=0;align=left;spacingLeft=6;labelBackgroundColor=none;rounded=0;" parent="TOLBs5nu6_EnxWr0bToY-104" vertex="1">
          <mxGeometry x="30" width="220" height="30" as="geometry">
            <mxRectangle width="220" height="30" as="alternateBounds" />
          </mxGeometry>
        </mxCell>
        <mxCell id="TOLBs5nu6_EnxWr0bToY-112" value="" style="group;labelBackgroundColor=none;rounded=0;" parent="1" vertex="1" connectable="0">
          <mxGeometry x="-120" y="580" width="250" height="130" as="geometry" />
        </mxCell>
        <mxCell id="TOLBs5nu6_EnxWr0bToY-79" value="Tipo_documento" style="shape=table;startSize=30;container=1;collapsible=1;childLayout=tableLayout;fixedRows=1;rowLines=0;fontStyle=1;align=center;resizeLast=1;labelBackgroundColor=none;rounded=0;" parent="TOLBs5nu6_EnxWr0bToY-112" vertex="1">
          <mxGeometry width="250" height="130" as="geometry" />
        </mxCell>
        <mxCell id="TOLBs5nu6_EnxWr0bToY-80" value="" style="shape=partialRectangle;collapsible=0;dropTarget=0;pointerEvents=0;fillColor=none;points=[[0,0.5],[1,0.5]];portConstraint=eastwest;top=0;left=0;right=0;bottom=1;labelBackgroundColor=none;rounded=0;" parent="TOLBs5nu6_EnxWr0bToY-79" vertex="1">
          <mxGeometry y="30" width="250" height="30" as="geometry" />
        </mxCell>
        <mxCell id="TOLBs5nu6_EnxWr0bToY-81" value="PK" style="shape=partialRectangle;overflow=hidden;connectable=0;fillColor=none;top=0;left=0;bottom=0;right=0;fontStyle=1;labelBackgroundColor=none;rounded=0;" parent="TOLBs5nu6_EnxWr0bToY-80" vertex="1">
          <mxGeometry width="30" height="30" as="geometry">
            <mxRectangle width="30" height="30" as="alternateBounds" />
          </mxGeometry>
        </mxCell>
        <mxCell id="TOLBs5nu6_EnxWr0bToY-82" value="id_tipo_id(INT)" style="shape=partialRectangle;overflow=hidden;connectable=0;fillColor=none;top=0;left=0;bottom=0;right=0;align=left;spacingLeft=6;fontStyle=5;labelBackgroundColor=none;rounded=0;" parent="TOLBs5nu6_EnxWr0bToY-80" vertex="1">
          <mxGeometry x="30" width="220" height="30" as="geometry">
            <mxRectangle width="220" height="30" as="alternateBounds" />
          </mxGeometry>
        </mxCell>
        <mxCell id="TOLBs5nu6_EnxWr0bToY-83" value="" style="shape=partialRectangle;collapsible=0;dropTarget=0;pointerEvents=0;fillColor=none;points=[[0,0.5],[1,0.5]];portConstraint=eastwest;top=0;left=0;right=0;bottom=0;labelBackgroundColor=none;rounded=0;" parent="TOLBs5nu6_EnxWr0bToY-79" vertex="1">
          <mxGeometry y="60" width="250" height="30" as="geometry" />
        </mxCell>
        <mxCell id="TOLBs5nu6_EnxWr0bToY-84" value="" style="shape=partialRectangle;overflow=hidden;connectable=0;fillColor=none;top=0;left=0;bottom=0;right=0;labelBackgroundColor=none;rounded=0;" parent="TOLBs5nu6_EnxWr0bToY-83" vertex="1">
          <mxGeometry width="30" height="30" as="geometry">
            <mxRectangle width="30" height="30" as="alternateBounds" />
          </mxGeometry>
        </mxCell>
        <mxCell id="TOLBs5nu6_EnxWr0bToY-85" value="Nombre(VARCHAR(20))" style="shape=partialRectangle;overflow=hidden;connectable=0;fillColor=none;top=0;left=0;bottom=0;right=0;align=left;spacingLeft=6;labelBackgroundColor=none;rounded=0;" parent="TOLBs5nu6_EnxWr0bToY-83" vertex="1">
          <mxGeometry x="30" width="220" height="30" as="geometry">
            <mxRectangle width="220" height="30" as="alternateBounds" />
          </mxGeometry>
        </mxCell>
        <mxCell id="TOLBs5nu6_EnxWr0bToY-107" value="" style="shape=partialRectangle;collapsible=0;dropTarget=0;pointerEvents=0;fillColor=none;points=[[0,0.5],[1,0.5]];portConstraint=eastwest;top=0;left=0;right=0;bottom=0;labelBackgroundColor=none;rounded=0;" parent="TOLBs5nu6_EnxWr0bToY-112" vertex="1">
          <mxGeometry y="90" width="250" height="30" as="geometry" />
        </mxCell>
        <mxCell id="TOLBs5nu6_EnxWr0bToY-108" value="" style="shape=partialRectangle;overflow=hidden;connectable=0;fillColor=none;top=0;left=0;bottom=0;right=0;labelBackgroundColor=none;rounded=0;" parent="TOLBs5nu6_EnxWr0bToY-107" vertex="1">
          <mxGeometry width="30" height="30" as="geometry">
            <mxRectangle width="30" height="30" as="alternateBounds" />
          </mxGeometry>
        </mxCell>
        <mxCell id="TOLBs5nu6_EnxWr0bToY-109" value="Numero_doc(VARCHAR(30))" style="shape=partialRectangle;overflow=hidden;connectable=0;fillColor=none;top=0;left=0;bottom=0;right=0;align=left;spacingLeft=6;labelBackgroundColor=none;rounded=0;" parent="TOLBs5nu6_EnxWr0bToY-107" vertex="1">
          <mxGeometry x="30" width="220" height="30" as="geometry">
            <mxRectangle width="220" height="30" as="alternateBounds" />
          </mxGeometry>
        </mxCell>
        <mxCell id="TOLBs5nu6_EnxWr0bToY-154" style="edgeStyle=orthogonalEdgeStyle;rounded=0;orthogonalLoop=1;jettySize=auto;html=1;entryX=0;entryY=0.5;entryDx=0;entryDy=0;startArrow=ERone;startFill=0;endArrow=ERone;endFill=0;labelBackgroundColor=none;fontColor=default;" parent="1" source="C-vyLk0tnHw3VtMMgP7b-14" target="TOLBs5nu6_EnxWr0bToY-148" edge="1">
          <mxGeometry relative="1" as="geometry">
            <Array as="points">
              <mxPoint x="-130" y="405" />
              <mxPoint x="-130" y="880" />
              <mxPoint x="740" y="880" />
              <mxPoint x="740" y="570" />
              <mxPoint x="840" y="570" />
              <mxPoint x="840" y="575" />
            </Array>
          </mxGeometry>
        </mxCell>
        <mxCell id="TOLBs5nu6_EnxWr0bToY-219" value="" style="group;labelBackgroundColor=none;rounded=0;" parent="1" vertex="1" connectable="0">
          <mxGeometry x="1235" y="400" width="250" height="150" as="geometry" />
        </mxCell>
        <mxCell id="TOLBs5nu6_EnxWr0bToY-201" value="Tipos_turismos" style="shape=table;startSize=30;container=1;collapsible=1;childLayout=tableLayout;fixedRows=1;rowLines=0;fontStyle=1;align=center;resizeLast=1;labelBackgroundColor=none;rounded=0;" parent="TOLBs5nu6_EnxWr0bToY-219" vertex="1">
          <mxGeometry width="250" height="130" as="geometry" />
        </mxCell>
        <mxCell id="TOLBs5nu6_EnxWr0bToY-202" value="" style="shape=partialRectangle;collapsible=0;dropTarget=0;pointerEvents=0;fillColor=none;points=[[0,0.5],[1,0.5]];portConstraint=eastwest;top=0;left=0;right=0;bottom=1;labelBackgroundColor=none;rounded=0;" parent="TOLBs5nu6_EnxWr0bToY-201" vertex="1">
          <mxGeometry y="30" width="250" height="30" as="geometry" />
        </mxCell>
        <mxCell id="TOLBs5nu6_EnxWr0bToY-203" value="PK" style="shape=partialRectangle;overflow=hidden;connectable=0;fillColor=none;top=0;left=0;bottom=0;right=0;fontStyle=1;labelBackgroundColor=none;rounded=0;" parent="TOLBs5nu6_EnxWr0bToY-202" vertex="1">
          <mxGeometry width="30" height="30" as="geometry">
            <mxRectangle width="30" height="30" as="alternateBounds" />
          </mxGeometry>
        </mxCell>
        <mxCell id="TOLBs5nu6_EnxWr0bToY-204" value="id_tipo_turismo(INT)" style="shape=partialRectangle;overflow=hidden;connectable=0;fillColor=none;top=0;left=0;bottom=0;right=0;align=left;spacingLeft=6;fontStyle=5;labelBackgroundColor=none;rounded=0;" parent="TOLBs5nu6_EnxWr0bToY-202" vertex="1">
          <mxGeometry x="30" width="220" height="30" as="geometry">
            <mxRectangle width="220" height="30" as="alternateBounds" />
          </mxGeometry>
        </mxCell>
        <mxCell id="TOLBs5nu6_EnxWr0bToY-205" value="" style="shape=partialRectangle;collapsible=0;dropTarget=0;pointerEvents=0;fillColor=none;points=[[0,0.5],[1,0.5]];portConstraint=eastwest;top=0;left=0;right=0;bottom=0;labelBackgroundColor=none;rounded=0;" parent="TOLBs5nu6_EnxWr0bToY-201" vertex="1">
          <mxGeometry y="60" width="250" height="30" as="geometry" />
        </mxCell>
        <mxCell id="TOLBs5nu6_EnxWr0bToY-206" value="" style="shape=partialRectangle;overflow=hidden;connectable=0;fillColor=none;top=0;left=0;bottom=0;right=0;labelBackgroundColor=none;rounded=0;" parent="TOLBs5nu6_EnxWr0bToY-205" vertex="1">
          <mxGeometry width="30" height="30" as="geometry">
            <mxRectangle width="30" height="30" as="alternateBounds" />
          </mxGeometry>
        </mxCell>
        <mxCell id="TOLBs5nu6_EnxWr0bToY-207" value="Tipo_de_turismo(VARCHAR(30))" style="shape=partialRectangle;overflow=hidden;connectable=0;fillColor=none;top=0;left=0;bottom=0;right=0;align=left;spacingLeft=6;labelBackgroundColor=none;rounded=0;" parent="TOLBs5nu6_EnxWr0bToY-205" vertex="1">
          <mxGeometry x="30" width="220" height="30" as="geometry">
            <mxRectangle width="220" height="30" as="alternateBounds" />
          </mxGeometry>
        </mxCell>
        <mxCell id="TOLBs5nu6_EnxWr0bToY-218" value="Descripcion(VARCHAR(100))" style="shape=partialRectangle;overflow=hidden;connectable=0;fillColor=none;top=0;left=0;bottom=0;right=0;align=left;spacingLeft=6;labelBackgroundColor=none;rounded=0;" parent="TOLBs5nu6_EnxWr0bToY-219" vertex="1">
          <mxGeometry x="30" y="90.00090909090912" width="220" height="31.363636363636363" as="geometry">
            <mxRectangle width="220" height="30" as="alternateBounds" />
          </mxGeometry>
        </mxCell>
        <mxCell id="TOLBs5nu6_EnxWr0bToY-224" style="edgeStyle=orthogonalEdgeStyle;rounded=0;orthogonalLoop=1;jettySize=auto;html=1;entryX=0;entryY=0.5;entryDx=0;entryDy=0;startArrow=ERone;startFill=0;endArrow=ERone;endFill=0;labelBackgroundColor=none;fontColor=default;" parent="1" source="TOLBs5nu6_EnxWr0bToY-221" target="TOLBs5nu6_EnxWr0bToY-202" edge="1">
          <mxGeometry relative="1" as="geometry" />
        </mxCell>
        <mxCell id="TOLBs5nu6_EnxWr0bToY-225" value="" style="group;labelBackgroundColor=none;rounded=0;" parent="1" vertex="1" connectable="0">
          <mxGeometry x="890" y="140" width="250" height="140" as="geometry" />
        </mxCell>
        <mxCell id="TOLBs5nu6_EnxWr0bToY-226" value="Destinos" style="shape=table;startSize=30;container=1;collapsible=1;childLayout=tableLayout;fixedRows=1;rowLines=0;fontStyle=1;align=center;resizeLast=1;labelBackgroundColor=none;rounded=0;" parent="TOLBs5nu6_EnxWr0bToY-225" vertex="1">
          <mxGeometry width="250" height="140" as="geometry" />
        </mxCell>
        <mxCell id="TOLBs5nu6_EnxWr0bToY-227" value="" style="shape=partialRectangle;collapsible=0;dropTarget=0;pointerEvents=0;fillColor=none;points=[[0,0.5],[1,0.5]];portConstraint=eastwest;top=0;left=0;right=0;bottom=1;labelBackgroundColor=none;rounded=0;" parent="TOLBs5nu6_EnxWr0bToY-226" vertex="1">
          <mxGeometry y="30" width="250" height="30" as="geometry" />
        </mxCell>
        <mxCell id="TOLBs5nu6_EnxWr0bToY-228" value="PK" style="shape=partialRectangle;overflow=hidden;connectable=0;fillColor=none;top=0;left=0;bottom=0;right=0;fontStyle=1;labelBackgroundColor=none;rounded=0;" parent="TOLBs5nu6_EnxWr0bToY-227" vertex="1">
          <mxGeometry width="30" height="30" as="geometry">
            <mxRectangle width="30" height="30" as="alternateBounds" />
          </mxGeometry>
        </mxCell>
        <mxCell id="TOLBs5nu6_EnxWr0bToY-229" value="id_destino" style="shape=partialRectangle;overflow=hidden;connectable=0;fillColor=none;top=0;left=0;bottom=0;right=0;align=left;spacingLeft=6;fontStyle=5;labelBackgroundColor=none;rounded=0;" parent="TOLBs5nu6_EnxWr0bToY-227" vertex="1">
          <mxGeometry x="30" width="220" height="30" as="geometry">
            <mxRectangle width="220" height="30" as="alternateBounds" />
          </mxGeometry>
        </mxCell>
        <mxCell id="TOLBs5nu6_EnxWr0bToY-230" value="" style="shape=partialRectangle;collapsible=0;dropTarget=0;pointerEvents=0;fillColor=none;points=[[0,0.5],[1,0.5]];portConstraint=eastwest;top=0;left=0;right=0;bottom=0;labelBackgroundColor=none;rounded=0;" parent="TOLBs5nu6_EnxWr0bToY-226" vertex="1">
          <mxGeometry y="60" width="250" height="30" as="geometry" />
        </mxCell>
        <mxCell id="TOLBs5nu6_EnxWr0bToY-231" value="FK" style="shape=partialRectangle;overflow=hidden;connectable=0;fillColor=none;top=0;left=0;bottom=0;right=0;labelBackgroundColor=none;rounded=0;" parent="TOLBs5nu6_EnxWr0bToY-230" vertex="1">
          <mxGeometry width="30" height="30" as="geometry">
            <mxRectangle width="30" height="30" as="alternateBounds" />
          </mxGeometry>
        </mxCell>
        <mxCell id="TOLBs5nu6_EnxWr0bToY-232" value="id_usuario" style="shape=partialRectangle;overflow=hidden;connectable=0;fillColor=none;top=0;left=0;bottom=0;right=0;align=left;spacingLeft=6;labelBackgroundColor=none;rounded=0;" parent="TOLBs5nu6_EnxWr0bToY-230" vertex="1">
          <mxGeometry x="30" width="220" height="30" as="geometry">
            <mxRectangle width="220" height="30" as="alternateBounds" />
          </mxGeometry>
        </mxCell>
        <mxCell id="TOLBs5nu6_EnxWr0bToY-259" value="Nombre_destino(VARCHAR(40))" style="shape=partialRectangle;overflow=hidden;connectable=0;fillColor=none;top=0;left=0;bottom=0;right=0;align=left;spacingLeft=6;labelBackgroundColor=none;rounded=0;" parent="TOLBs5nu6_EnxWr0bToY-225" vertex="1">
          <mxGeometry x="30" y="90" width="220" height="30" as="geometry">
            <mxRectangle width="220" height="30" as="alternateBounds" />
          </mxGeometry>
        </mxCell>
        <mxCell id="TOLBs5nu6_EnxWr0bToY-241" style="edgeStyle=orthogonalEdgeStyle;rounded=0;orthogonalLoop=1;jettySize=auto;html=1;entryX=0;entryY=0.5;entryDx=0;entryDy=0;startArrow=ERone;startFill=0;endArrow=ERmany;endFill=0;labelBackgroundColor=none;fontColor=default;" parent="1" source="C-vyLk0tnHw3VtMMgP7b-3" target="TOLBs5nu6_EnxWr0bToY-230" edge="1">
          <mxGeometry relative="1" as="geometry">
            <Array as="points">
              <mxPoint x="770" y="15" />
              <mxPoint x="770" y="220" />
              <mxPoint x="890" y="220" />
            </Array>
          </mxGeometry>
        </mxCell>
        <mxCell id="TOLBs5nu6_EnxWr0bToY-251" style="edgeStyle=orthogonalEdgeStyle;rounded=0;orthogonalLoop=1;jettySize=auto;html=1;entryX=1;entryY=0.5;entryDx=0;entryDy=0;startArrow=ERmany;startFill=0;endArrow=ERone;endFill=0;labelBackgroundColor=none;fontColor=default;" parent="1" source="TOLBs5nu6_EnxWr0bToY-248" target="TOLBs5nu6_EnxWr0bToY-227" edge="1">
          <mxGeometry relative="1" as="geometry" />
        </mxCell>
        <mxCell id="TOLBs5nu6_EnxWr0bToY-263" value="" style="group;labelBackgroundColor=none;rounded=0;" parent="1" vertex="1" connectable="0">
          <mxGeometry x="1260" y="-50" width="250" height="230" as="geometry" />
        </mxCell>
        <mxCell id="TOLBs5nu6_EnxWr0bToY-234" value="Lugares" style="shape=table;startSize=30;container=1;collapsible=1;childLayout=tableLayout;fixedRows=1;rowLines=0;fontStyle=1;align=center;resizeLast=1;labelBackgroundColor=none;rounded=0;" parent="TOLBs5nu6_EnxWr0bToY-263" vertex="1">
          <mxGeometry width="250" height="230" as="geometry" />
        </mxCell>
        <mxCell id="TOLBs5nu6_EnxWr0bToY-235" value="" style="shape=partialRectangle;collapsible=0;dropTarget=0;pointerEvents=0;fillColor=none;points=[[0,0.5],[1,0.5]];portConstraint=eastwest;top=0;left=0;right=0;bottom=1;labelBackgroundColor=none;rounded=0;" parent="TOLBs5nu6_EnxWr0bToY-234" vertex="1">
          <mxGeometry y="30" width="250" height="30" as="geometry" />
        </mxCell>
        <mxCell id="TOLBs5nu6_EnxWr0bToY-236" value="PK" style="shape=partialRectangle;overflow=hidden;connectable=0;fillColor=none;top=0;left=0;bottom=0;right=0;fontStyle=1;labelBackgroundColor=none;rounded=0;" parent="TOLBs5nu6_EnxWr0bToY-235" vertex="1">
          <mxGeometry width="30" height="30" as="geometry">
            <mxRectangle width="30" height="30" as="alternateBounds" />
          </mxGeometry>
        </mxCell>
        <mxCell id="TOLBs5nu6_EnxWr0bToY-237" value="id_lugar(INT)" style="shape=partialRectangle;overflow=hidden;connectable=0;fillColor=none;top=0;left=0;bottom=0;right=0;align=left;spacingLeft=6;fontStyle=5;labelBackgroundColor=none;rounded=0;" parent="TOLBs5nu6_EnxWr0bToY-235" vertex="1">
          <mxGeometry x="30" width="220" height="30" as="geometry">
            <mxRectangle width="220" height="30" as="alternateBounds" />
          </mxGeometry>
        </mxCell>
        <mxCell id="TOLBs5nu6_EnxWr0bToY-238" value="" style="shape=partialRectangle;collapsible=0;dropTarget=0;pointerEvents=0;fillColor=none;points=[[0,0.5],[1,0.5]];portConstraint=eastwest;top=0;left=0;right=0;bottom=0;labelBackgroundColor=none;rounded=0;" parent="TOLBs5nu6_EnxWr0bToY-234" vertex="1">
          <mxGeometry y="60" width="250" height="30" as="geometry" />
        </mxCell>
        <mxCell id="TOLBs5nu6_EnxWr0bToY-239" value="" style="shape=partialRectangle;overflow=hidden;connectable=0;fillColor=none;top=0;left=0;bottom=0;right=0;labelBackgroundColor=none;rounded=0;" parent="TOLBs5nu6_EnxWr0bToY-238" vertex="1">
          <mxGeometry width="30" height="30" as="geometry">
            <mxRectangle width="30" height="30" as="alternateBounds" />
          </mxGeometry>
        </mxCell>
        <mxCell id="TOLBs5nu6_EnxWr0bToY-240" value="Nombre(VARCHAR(30))" style="shape=partialRectangle;overflow=hidden;connectable=0;fillColor=none;top=0;left=0;bottom=0;right=0;align=left;spacingLeft=6;labelBackgroundColor=none;rounded=0;" parent="TOLBs5nu6_EnxWr0bToY-238" vertex="1">
          <mxGeometry x="30" width="220" height="30" as="geometry">
            <mxRectangle width="220" height="30" as="alternateBounds" />
          </mxGeometry>
        </mxCell>
        <mxCell id="TOLBs5nu6_EnxWr0bToY-243" value="Lat(FLOAT)" style="shape=partialRectangle;overflow=hidden;connectable=0;fillColor=none;top=0;left=0;bottom=0;right=0;align=left;spacingLeft=6;labelBackgroundColor=none;rounded=0;" parent="TOLBs5nu6_EnxWr0bToY-263" vertex="1">
          <mxGeometry x="30" y="90" width="220" height="30" as="geometry">
            <mxRectangle width="220" height="30" as="alternateBounds" />
          </mxGeometry>
        </mxCell>
        <mxCell id="TOLBs5nu6_EnxWr0bToY-244" value="Long(FLOAT)" style="shape=partialRectangle;overflow=hidden;connectable=0;fillColor=none;top=0;left=0;bottom=0;right=0;align=left;spacingLeft=6;labelBackgroundColor=none;rounded=0;" parent="TOLBs5nu6_EnxWr0bToY-263" vertex="1">
          <mxGeometry x="30" y="120" width="220" height="30" as="geometry">
            <mxRectangle width="220" height="30" as="alternateBounds" />
          </mxGeometry>
        </mxCell>
        <mxCell id="TOLBs5nu6_EnxWr0bToY-248" value="" style="shape=partialRectangle;collapsible=0;dropTarget=0;pointerEvents=0;fillColor=none;points=[[0,0.5],[1,0.5]];portConstraint=eastwest;top=0;left=0;right=0;bottom=0;labelBackgroundColor=none;rounded=0;" parent="TOLBs5nu6_EnxWr0bToY-263" vertex="1">
          <mxGeometry y="200" width="250" height="30" as="geometry" />
        </mxCell>
        <mxCell id="TOLBs5nu6_EnxWr0bToY-249" value="FK" style="shape=partialRectangle;overflow=hidden;connectable=0;fillColor=none;top=0;left=0;bottom=0;right=0;labelBackgroundColor=none;rounded=0;" parent="TOLBs5nu6_EnxWr0bToY-248" vertex="1">
          <mxGeometry width="30" height="30" as="geometry">
            <mxRectangle width="30" height="30" as="alternateBounds" />
          </mxGeometry>
        </mxCell>
        <mxCell id="TOLBs5nu6_EnxWr0bToY-250" value="id_destino" style="shape=partialRectangle;overflow=hidden;connectable=0;fillColor=none;top=0;left=0;bottom=0;right=0;align=left;spacingLeft=6;labelBackgroundColor=none;rounded=0;" parent="TOLBs5nu6_EnxWr0bToY-248" vertex="1">
          <mxGeometry x="30" width="220" height="30" as="geometry">
            <mxRectangle width="220" height="30" as="alternateBounds" />
          </mxGeometry>
        </mxCell>
        <mxCell id="TOLBs5nu6_EnxWr0bToY-261" value="Horarios(VARCHAR(20))" style="shape=partialRectangle;overflow=hidden;connectable=0;fillColor=none;top=0;left=0;bottom=0;right=0;align=left;spacingLeft=6;labelBackgroundColor=none;rounded=0;" parent="TOLBs5nu6_EnxWr0bToY-263" vertex="1">
          <mxGeometry x="30" y="150" width="220" height="30" as="geometry">
            <mxRectangle width="220" height="30" as="alternateBounds" />
          </mxGeometry>
        </mxCell>
        <mxCell id="TOLBs5nu6_EnxWr0bToY-262" value="Precio(FLOAT)" style="shape=partialRectangle;overflow=hidden;connectable=0;fillColor=none;top=0;left=0;bottom=0;right=0;align=left;spacingLeft=6;labelBackgroundColor=none;rounded=0;" parent="TOLBs5nu6_EnxWr0bToY-263" vertex="1">
          <mxGeometry x="30" y="175" width="220" height="30" as="geometry">
            <mxRectangle width="220" height="30" as="alternateBounds" />
          </mxGeometry>
        </mxCell>
        <mxCell id="TOLBs5nu6_EnxWr0bToY-274" value="" style="group;labelBackgroundColor=none;rounded=0;" parent="1" vertex="1" connectable="0">
          <mxGeometry x="1640" y="-60" width="250" height="200" as="geometry" />
        </mxCell>
        <mxCell id="TOLBs5nu6_EnxWr0bToY-252" value="Lug_car" style="shape=table;startSize=30;container=1;collapsible=1;childLayout=tableLayout;fixedRows=1;rowLines=0;fontStyle=1;align=center;resizeLast=1;labelBackgroundColor=none;rounded=0;" parent="TOLBs5nu6_EnxWr0bToY-274" vertex="1">
          <mxGeometry width="250" height="200" as="geometry" />
        </mxCell>
        <mxCell id="TOLBs5nu6_EnxWr0bToY-253" value="" style="shape=partialRectangle;collapsible=0;dropTarget=0;pointerEvents=0;fillColor=none;points=[[0,0.5],[1,0.5]];portConstraint=eastwest;top=0;left=0;right=0;bottom=1;labelBackgroundColor=none;rounded=0;" parent="TOLBs5nu6_EnxWr0bToY-252" vertex="1">
          <mxGeometry y="30" width="250" height="30" as="geometry" />
        </mxCell>
        <mxCell id="TOLBs5nu6_EnxWr0bToY-254" value="PK" style="shape=partialRectangle;overflow=hidden;connectable=0;fillColor=none;top=0;left=0;bottom=0;right=0;fontStyle=1;labelBackgroundColor=none;rounded=0;" parent="TOLBs5nu6_EnxWr0bToY-253" vertex="1">
          <mxGeometry width="30" height="30" as="geometry">
            <mxRectangle width="30" height="30" as="alternateBounds" />
          </mxGeometry>
        </mxCell>
        <mxCell id="TOLBs5nu6_EnxWr0bToY-255" value="id_lug_car(INT)" style="shape=partialRectangle;overflow=hidden;connectable=0;fillColor=none;top=0;left=0;bottom=0;right=0;align=left;spacingLeft=6;fontStyle=5;labelBackgroundColor=none;rounded=0;" parent="TOLBs5nu6_EnxWr0bToY-253" vertex="1">
          <mxGeometry x="30" width="220" height="30" as="geometry">
            <mxRectangle width="220" height="30" as="alternateBounds" />
          </mxGeometry>
        </mxCell>
        <mxCell id="TOLBs5nu6_EnxWr0bToY-256" value="" style="shape=partialRectangle;collapsible=0;dropTarget=0;pointerEvents=0;fillColor=none;points=[[0,0.5],[1,0.5]];portConstraint=eastwest;top=0;left=0;right=0;bottom=0;labelBackgroundColor=none;rounded=0;" parent="TOLBs5nu6_EnxWr0bToY-252" vertex="1">
          <mxGeometry y="60" width="250" height="30" as="geometry" />
        </mxCell>
        <mxCell id="TOLBs5nu6_EnxWr0bToY-257" value="" style="shape=partialRectangle;overflow=hidden;connectable=0;fillColor=none;top=0;left=0;bottom=0;right=0;labelBackgroundColor=none;rounded=0;" parent="TOLBs5nu6_EnxWr0bToY-256" vertex="1">
          <mxGeometry width="30" height="30" as="geometry">
            <mxRectangle width="30" height="30" as="alternateBounds" />
          </mxGeometry>
        </mxCell>
        <mxCell id="TOLBs5nu6_EnxWr0bToY-258" value="Nombre(VARCHAR(20))" style="shape=partialRectangle;overflow=hidden;connectable=0;fillColor=none;top=0;left=0;bottom=0;right=0;align=left;spacingLeft=6;labelBackgroundColor=none;rounded=0;" parent="TOLBs5nu6_EnxWr0bToY-256" vertex="1">
          <mxGeometry x="30" width="220" height="30" as="geometry">
            <mxRectangle width="220" height="30" as="alternateBounds" />
          </mxGeometry>
        </mxCell>
        <mxCell id="TOLBs5nu6_EnxWr0bToY-264" value="" style="shape=partialRectangle;collapsible=0;dropTarget=0;pointerEvents=0;fillColor=none;points=[[0,0.5],[1,0.5]];portConstraint=eastwest;top=0;left=0;right=0;bottom=0;labelBackgroundColor=none;rounded=0;" parent="TOLBs5nu6_EnxWr0bToY-274" vertex="1">
          <mxGeometry y="90" width="250" height="30" as="geometry" />
        </mxCell>
        <mxCell id="TOLBs5nu6_EnxWr0bToY-265" value="FK" style="shape=partialRectangle;overflow=hidden;connectable=0;fillColor=none;top=0;left=0;bottom=0;right=0;labelBackgroundColor=none;rounded=0;" parent="TOLBs5nu6_EnxWr0bToY-264" vertex="1">
          <mxGeometry width="30" height="30" as="geometry">
            <mxRectangle width="30" height="30" as="alternateBounds" />
          </mxGeometry>
        </mxCell>
        <mxCell id="TOLBs5nu6_EnxWr0bToY-266" value="id_lugar(INT)" style="shape=partialRectangle;overflow=hidden;connectable=0;fillColor=none;top=0;left=0;bottom=0;right=0;align=left;spacingLeft=6;labelBackgroundColor=none;rounded=0;" parent="TOLBs5nu6_EnxWr0bToY-264" vertex="1">
          <mxGeometry x="30" width="220" height="30" as="geometry">
            <mxRectangle width="220" height="30" as="alternateBounds" />
          </mxGeometry>
        </mxCell>
        <mxCell id="TOLBs5nu6_EnxWr0bToY-270" value="" style="shape=partialRectangle;collapsible=0;dropTarget=0;pointerEvents=0;fillColor=none;points=[[0,0.5],[1,0.5]];portConstraint=eastwest;top=0;left=0;right=0;bottom=0;labelBackgroundColor=none;rounded=0;" parent="TOLBs5nu6_EnxWr0bToY-274" vertex="1">
          <mxGeometry y="120" width="250" height="30" as="geometry" />
        </mxCell>
        <mxCell id="TOLBs5nu6_EnxWr0bToY-271" value="FK" style="shape=partialRectangle;overflow=hidden;connectable=0;fillColor=none;top=0;left=0;bottom=0;right=0;labelBackgroundColor=none;rounded=0;" parent="TOLBs5nu6_EnxWr0bToY-270" vertex="1">
          <mxGeometry width="30" height="30" as="geometry">
            <mxRectangle width="30" height="30" as="alternateBounds" />
          </mxGeometry>
        </mxCell>
        <mxCell id="TOLBs5nu6_EnxWr0bToY-272" value="id_caracteristicas(INT)" style="shape=partialRectangle;overflow=hidden;connectable=0;fillColor=none;top=0;left=0;bottom=0;right=0;align=left;spacingLeft=6;labelBackgroundColor=none;rounded=0;" parent="TOLBs5nu6_EnxWr0bToY-270" vertex="1">
          <mxGeometry x="30" width="220" height="30" as="geometry">
            <mxRectangle width="220" height="30" as="alternateBounds" />
          </mxGeometry>
        </mxCell>
        <mxCell id="TOLBs5nu6_EnxWr0bToY-273" value="Descripcion(VARCHAR(100))" style="shape=partialRectangle;overflow=hidden;connectable=0;fillColor=none;top=0;left=0;bottom=0;right=0;align=left;spacingLeft=6;labelBackgroundColor=none;rounded=0;" parent="TOLBs5nu6_EnxWr0bToY-274" vertex="1">
          <mxGeometry x="30" y="150.0009090909091" width="220" height="31.363636363636363" as="geometry">
            <mxRectangle width="220" height="30" as="alternateBounds" />
          </mxGeometry>
        </mxCell>
        <mxCell id="TOLBs5nu6_EnxWr0bToY-275" style="edgeStyle=orthogonalEdgeStyle;rounded=0;orthogonalLoop=1;jettySize=auto;html=1;entryX=0;entryY=0.5;entryDx=0;entryDy=0;startArrow=ERone;startFill=0;endArrow=ERmany;endFill=0;labelBackgroundColor=none;fontColor=default;" parent="1" source="TOLBs5nu6_EnxWr0bToY-235" target="TOLBs5nu6_EnxWr0bToY-264" edge="1">
          <mxGeometry relative="1" as="geometry" />
        </mxCell>
        <mxCell id="TOLBs5nu6_EnxWr0bToY-276" value="" style="group;labelBackgroundColor=none;rounded=0;" parent="1" vertex="1" connectable="0">
          <mxGeometry x="2000" y="50" width="250" height="394.62" as="geometry" />
        </mxCell>
        <mxCell id="TOLBs5nu6_EnxWr0bToY-277" value="Caracteristicas" style="shape=table;startSize=30;container=1;collapsible=1;childLayout=tableLayout;fixedRows=1;rowLines=0;fontStyle=1;align=center;resizeLast=1;labelBackgroundColor=none;rounded=0;" parent="TOLBs5nu6_EnxWr0bToY-276" vertex="1">
          <mxGeometry width="250" height="130" as="geometry" />
        </mxCell>
        <mxCell id="TOLBs5nu6_EnxWr0bToY-278" value="" style="shape=partialRectangle;collapsible=0;dropTarget=0;pointerEvents=0;fillColor=none;points=[[0,0.5],[1,0.5]];portConstraint=eastwest;top=0;left=0;right=0;bottom=1;labelBackgroundColor=none;rounded=0;" parent="TOLBs5nu6_EnxWr0bToY-277" vertex="1">
          <mxGeometry y="30" width="250" height="30" as="geometry" />
        </mxCell>
        <mxCell id="TOLBs5nu6_EnxWr0bToY-279" value="PK" style="shape=partialRectangle;overflow=hidden;connectable=0;fillColor=none;top=0;left=0;bottom=0;right=0;fontStyle=1;labelBackgroundColor=none;rounded=0;" parent="TOLBs5nu6_EnxWr0bToY-278" vertex="1">
          <mxGeometry width="30" height="30" as="geometry">
            <mxRectangle width="30" height="30" as="alternateBounds" />
          </mxGeometry>
        </mxCell>
        <mxCell id="TOLBs5nu6_EnxWr0bToY-280" value="id_caracteristica(INT)" style="shape=partialRectangle;overflow=hidden;connectable=0;fillColor=none;top=0;left=0;bottom=0;right=0;align=left;spacingLeft=6;fontStyle=5;labelBackgroundColor=none;rounded=0;" parent="TOLBs5nu6_EnxWr0bToY-278" vertex="1">
          <mxGeometry x="30" width="220" height="30" as="geometry">
            <mxRectangle width="220" height="30" as="alternateBounds" />
          </mxGeometry>
        </mxCell>
        <mxCell id="TOLBs5nu6_EnxWr0bToY-281" value="" style="shape=partialRectangle;collapsible=0;dropTarget=0;pointerEvents=0;fillColor=none;points=[[0,0.5],[1,0.5]];portConstraint=eastwest;top=0;left=0;right=0;bottom=0;labelBackgroundColor=none;rounded=0;" parent="TOLBs5nu6_EnxWr0bToY-277" vertex="1">
          <mxGeometry y="60" width="250" height="30" as="geometry" />
        </mxCell>
        <mxCell id="TOLBs5nu6_EnxWr0bToY-282" value="" style="shape=partialRectangle;overflow=hidden;connectable=0;fillColor=none;top=0;left=0;bottom=0;right=0;labelBackgroundColor=none;rounded=0;" parent="TOLBs5nu6_EnxWr0bToY-281" vertex="1">
          <mxGeometry width="30" height="30" as="geometry">
            <mxRectangle width="30" height="30" as="alternateBounds" />
          </mxGeometry>
        </mxCell>
        <mxCell id="TOLBs5nu6_EnxWr0bToY-283" value="Nombre(VARCHAR(20))" style="shape=partialRectangle;overflow=hidden;connectable=0;fillColor=none;top=0;left=0;bottom=0;right=0;align=left;spacingLeft=6;labelBackgroundColor=none;rounded=0;" parent="TOLBs5nu6_EnxWr0bToY-281" vertex="1">
          <mxGeometry x="30" width="220" height="30" as="geometry">
            <mxRectangle width="220" height="30" as="alternateBounds" />
          </mxGeometry>
        </mxCell>
        <mxCell id="TOLBs5nu6_EnxWr0bToY-287" value="" style="shape=partialRectangle;collapsible=0;dropTarget=0;pointerEvents=0;fillColor=none;points=[[0,0.5],[1,0.5]];portConstraint=eastwest;top=0;left=0;right=0;bottom=0;labelBackgroundColor=none;rounded=0;" parent="TOLBs5nu6_EnxWr0bToY-276" vertex="1">
          <mxGeometry y="120" width="250" height="30" as="geometry" />
        </mxCell>
        <mxCell id="TOLBs5nu6_EnxWr0bToY-289" value="" style="shape=partialRectangle;overflow=hidden;connectable=0;fillColor=none;top=0;left=0;bottom=0;right=0;align=left;spacingLeft=6;labelBackgroundColor=none;rounded=0;" parent="TOLBs5nu6_EnxWr0bToY-287" vertex="1">
          <mxGeometry x="30" width="220" height="30" as="geometry">
            <mxRectangle width="220" height="30" as="alternateBounds" />
          </mxGeometry>
        </mxCell>
        <mxCell id="TOLBs5nu6_EnxWr0bToY-291" value="Descripcion(VARCHAR(100))" style="shape=partialRectangle;overflow=hidden;connectable=0;fillColor=none;top=0;left=0;bottom=0;right=0;align=left;spacingLeft=6;labelBackgroundColor=none;rounded=0;" parent="TOLBs5nu6_EnxWr0bToY-276" vertex="1">
          <mxGeometry x="30" y="90" width="220" height="30" as="geometry">
            <mxRectangle width="220" height="30" as="alternateBounds" />
          </mxGeometry>
        </mxCell>
        <mxCell id="TOLBs5nu6_EnxWr0bToY-488" value="Tipo calificacion" style="shape=table;startSize=30;container=1;collapsible=1;childLayout=tableLayout;fixedRows=1;rowLines=0;fontStyle=1;align=center;resizeLast=1;labelBackgroundColor=none;rounded=0;" parent="TOLBs5nu6_EnxWr0bToY-276" vertex="1">
          <mxGeometry y="180" width="250" height="110" as="geometry" />
        </mxCell>
        <mxCell id="TOLBs5nu6_EnxWr0bToY-489" value="" style="shape=partialRectangle;collapsible=0;dropTarget=0;pointerEvents=0;fillColor=none;points=[[0,0.5],[1,0.5]];portConstraint=eastwest;top=0;left=0;right=0;bottom=1;labelBackgroundColor=none;rounded=0;" parent="TOLBs5nu6_EnxWr0bToY-488" vertex="1">
          <mxGeometry y="30" width="250" height="30" as="geometry" />
        </mxCell>
        <mxCell id="TOLBs5nu6_EnxWr0bToY-490" value="PK" style="shape=partialRectangle;overflow=hidden;connectable=0;fillColor=none;top=0;left=0;bottom=0;right=0;fontStyle=1;labelBackgroundColor=none;rounded=0;" parent="TOLBs5nu6_EnxWr0bToY-489" vertex="1">
          <mxGeometry width="30" height="30" as="geometry">
            <mxRectangle width="30" height="30" as="alternateBounds" />
          </mxGeometry>
        </mxCell>
        <mxCell id="TOLBs5nu6_EnxWr0bToY-491" value="id_tipo_calificacion(INT)" style="shape=partialRectangle;overflow=hidden;connectable=0;fillColor=none;top=0;left=0;bottom=0;right=0;align=left;spacingLeft=6;fontStyle=5;labelBackgroundColor=none;rounded=0;" parent="TOLBs5nu6_EnxWr0bToY-489" vertex="1">
          <mxGeometry x="30" width="220" height="30" as="geometry">
            <mxRectangle width="220" height="30" as="alternateBounds" />
          </mxGeometry>
        </mxCell>
        <mxCell id="TOLBs5nu6_EnxWr0bToY-492" value="" style="shape=partialRectangle;collapsible=0;dropTarget=0;pointerEvents=0;fillColor=none;points=[[0,0.5],[1,0.5]];portConstraint=eastwest;top=0;left=0;right=0;bottom=0;labelBackgroundColor=none;rounded=0;" parent="TOLBs5nu6_EnxWr0bToY-488" vertex="1">
          <mxGeometry y="60" width="250" height="30" as="geometry" />
        </mxCell>
        <mxCell id="TOLBs5nu6_EnxWr0bToY-493" value="" style="shape=partialRectangle;overflow=hidden;connectable=0;fillColor=none;top=0;left=0;bottom=0;right=0;labelBackgroundColor=none;rounded=0;" parent="TOLBs5nu6_EnxWr0bToY-492" vertex="1">
          <mxGeometry width="30" height="30" as="geometry">
            <mxRectangle width="30" height="30" as="alternateBounds" />
          </mxGeometry>
        </mxCell>
        <mxCell id="TOLBs5nu6_EnxWr0bToY-494" value="Tipo(VARCHAR(20))" style="shape=partialRectangle;overflow=hidden;connectable=0;fillColor=none;top=0;left=0;bottom=0;right=0;align=left;spacingLeft=6;labelBackgroundColor=none;rounded=0;" parent="TOLBs5nu6_EnxWr0bToY-492" vertex="1">
          <mxGeometry x="30" width="220" height="30" as="geometry">
            <mxRectangle width="220" height="30" as="alternateBounds" />
          </mxGeometry>
        </mxCell>
        <mxCell id="TOLBs5nu6_EnxWr0bToY-292" style="edgeStyle=orthogonalEdgeStyle;rounded=0;orthogonalLoop=1;jettySize=auto;html=1;entryX=1;entryY=0.5;entryDx=0;entryDy=0;startArrow=ERone;startFill=0;endArrow=ERmany;endFill=0;labelBackgroundColor=none;fontColor=default;" parent="1" source="TOLBs5nu6_EnxWr0bToY-278" target="TOLBs5nu6_EnxWr0bToY-270" edge="1">
          <mxGeometry relative="1" as="geometry" />
        </mxCell>
        <mxCell id="TOLBs5nu6_EnxWr0bToY-296" style="edgeStyle=orthogonalEdgeStyle;rounded=0;orthogonalLoop=1;jettySize=auto;html=1;entryX=1;entryY=0.5;entryDx=0;entryDy=0;startArrow=ERmany;startFill=0;endArrow=ERone;endFill=0;labelBackgroundColor=none;fontColor=default;" parent="1" source="TOLBs5nu6_EnxWr0bToY-293" target="TOLBs5nu6_EnxWr0bToY-50" edge="1">
          <mxGeometry relative="1" as="geometry">
            <Array as="points">
              <mxPoint x="810" y="635" />
              <mxPoint x="810" y="130" />
              <mxPoint x="1080" y="130" />
              <mxPoint x="1080" y="-125" />
            </Array>
          </mxGeometry>
        </mxCell>
        <mxCell id="TOLBs5nu6_EnxWr0bToY-297" value="" style="group;labelBackgroundColor=none;rounded=0;" parent="1" vertex="1" connectable="0">
          <mxGeometry x="900" y="320" width="250" height="360" as="geometry" />
        </mxCell>
        <mxCell id="R8GNkzTn_ce1CcZ8P2t4-53" value="" style="group;labelBackgroundColor=none;rounded=0;" parent="TOLBs5nu6_EnxWr0bToY-297" vertex="1" connectable="0">
          <mxGeometry width="250" height="330" as="geometry" />
        </mxCell>
        <mxCell id="TOLBs5nu6_EnxWr0bToY-116" value="Viajes" style="shape=table;startSize=30;container=1;collapsible=1;childLayout=tableLayout;fixedRows=1;rowLines=0;fontStyle=1;align=center;resizeLast=1;labelBackgroundColor=none;rounded=0;" parent="R8GNkzTn_ce1CcZ8P2t4-53" vertex="1">
          <mxGeometry width="250" height="330" as="geometry" />
        </mxCell>
        <mxCell id="TOLBs5nu6_EnxWr0bToY-117" value="" style="shape=partialRectangle;collapsible=0;dropTarget=0;pointerEvents=0;fillColor=none;points=[[0,0.5],[1,0.5]];portConstraint=eastwest;top=0;left=0;right=0;bottom=1;labelBackgroundColor=none;rounded=0;" parent="TOLBs5nu6_EnxWr0bToY-116" vertex="1">
          <mxGeometry y="30" width="250" height="30" as="geometry" />
        </mxCell>
        <mxCell id="TOLBs5nu6_EnxWr0bToY-118" value="PK" style="shape=partialRectangle;overflow=hidden;connectable=0;fillColor=none;top=0;left=0;bottom=0;right=0;fontStyle=1;labelBackgroundColor=none;rounded=0;" parent="TOLBs5nu6_EnxWr0bToY-117" vertex="1">
          <mxGeometry width="30" height="30" as="geometry">
            <mxRectangle width="30" height="30" as="alternateBounds" />
          </mxGeometry>
        </mxCell>
        <mxCell id="TOLBs5nu6_EnxWr0bToY-119" value="id_viaje(INT)" style="shape=partialRectangle;overflow=hidden;connectable=0;fillColor=none;top=0;left=0;bottom=0;right=0;align=left;spacingLeft=6;fontStyle=5;labelBackgroundColor=none;rounded=0;" parent="TOLBs5nu6_EnxWr0bToY-117" vertex="1">
          <mxGeometry x="30" width="220" height="30" as="geometry">
            <mxRectangle width="220" height="30" as="alternateBounds" />
          </mxGeometry>
        </mxCell>
        <mxCell id="TOLBs5nu6_EnxWr0bToY-120" value="" style="shape=partialRectangle;collapsible=0;dropTarget=0;pointerEvents=0;fillColor=none;points=[[0,0.5],[1,0.5]];portConstraint=eastwest;top=0;left=0;right=0;bottom=0;labelBackgroundColor=none;rounded=0;" parent="TOLBs5nu6_EnxWr0bToY-116" vertex="1">
          <mxGeometry y="60" width="250" height="30" as="geometry" />
        </mxCell>
        <mxCell id="TOLBs5nu6_EnxWr0bToY-121" value="" style="shape=partialRectangle;overflow=hidden;connectable=0;fillColor=none;top=0;left=0;bottom=0;right=0;labelBackgroundColor=none;rounded=0;" parent="TOLBs5nu6_EnxWr0bToY-120" vertex="1">
          <mxGeometry width="30" height="30" as="geometry">
            <mxRectangle width="30" height="30" as="alternateBounds" />
          </mxGeometry>
        </mxCell>
        <mxCell id="TOLBs5nu6_EnxWr0bToY-122" value="" style="shape=partialRectangle;overflow=hidden;connectable=0;fillColor=none;top=0;left=0;bottom=0;right=0;align=left;spacingLeft=6;labelBackgroundColor=none;rounded=0;" parent="TOLBs5nu6_EnxWr0bToY-120" vertex="1">
          <mxGeometry x="30" width="220" height="30" as="geometry">
            <mxRectangle width="220" height="30" as="alternateBounds" />
          </mxGeometry>
        </mxCell>
        <mxCell id="TOLBs5nu6_EnxWr0bToY-129" value="" style="shape=partialRectangle;collapsible=0;dropTarget=0;pointerEvents=0;fillColor=none;points=[[0,0.5],[1,0.5]];portConstraint=eastwest;top=0;left=0;right=0;bottom=0;labelBackgroundColor=none;rounded=0;" parent="R8GNkzTn_ce1CcZ8P2t4-53" vertex="1">
          <mxGeometry y="66.42857142857144" width="250" height="44.28571428571429" as="geometry" />
        </mxCell>
        <mxCell id="TOLBs5nu6_EnxWr0bToY-130" value="FK" style="shape=partialRectangle;overflow=hidden;connectable=0;fillColor=none;top=0;left=0;bottom=0;right=0;labelBackgroundColor=none;rounded=0;" parent="TOLBs5nu6_EnxWr0bToY-129" vertex="1">
          <mxGeometry width="30" height="44.28571428571429" as="geometry">
            <mxRectangle width="30" height="30" as="alternateBounds" />
          </mxGeometry>
        </mxCell>
        <mxCell id="TOLBs5nu6_EnxWr0bToY-131" value="id_usuario(INT)" style="shape=partialRectangle;overflow=hidden;connectable=0;fillColor=none;top=0;left=0;bottom=0;right=0;align=left;spacingLeft=6;labelBackgroundColor=none;rounded=0;" parent="TOLBs5nu6_EnxWr0bToY-129" vertex="1">
          <mxGeometry x="30" width="220" height="44.28571428571429" as="geometry">
            <mxRectangle width="220" height="30" as="alternateBounds" />
          </mxGeometry>
        </mxCell>
        <mxCell id="TOLBs5nu6_EnxWr0bToY-138" value="" style="shape=partialRectangle;collapsible=0;dropTarget=0;pointerEvents=0;fillColor=none;points=[[0,0.5],[1,0.5]];portConstraint=eastwest;top=0;left=0;right=0;bottom=0;labelBackgroundColor=none;rounded=0;" parent="R8GNkzTn_ce1CcZ8P2t4-53" vertex="1">
          <mxGeometry y="99.99714285714289" width="250" height="44.28571428571429" as="geometry" />
        </mxCell>
        <mxCell id="TOLBs5nu6_EnxWr0bToY-139" value="" style="shape=partialRectangle;overflow=hidden;connectable=0;fillColor=none;top=0;left=0;bottom=0;right=0;labelBackgroundColor=none;rounded=0;" parent="TOLBs5nu6_EnxWr0bToY-138" vertex="1">
          <mxGeometry width="30" height="44.28571428571429" as="geometry">
            <mxRectangle width="30" height="30" as="alternateBounds" />
          </mxGeometry>
        </mxCell>
        <mxCell id="TOLBs5nu6_EnxWr0bToY-140" value="Num_personas(INT)" style="shape=partialRectangle;overflow=hidden;connectable=0;fillColor=none;top=0;left=0;bottom=0;right=0;align=left;spacingLeft=6;labelBackgroundColor=none;rounded=0;" parent="TOLBs5nu6_EnxWr0bToY-138" vertex="1">
          <mxGeometry x="30" width="220" height="44.28571428571429" as="geometry">
            <mxRectangle width="220" height="30" as="alternateBounds" />
          </mxGeometry>
        </mxCell>
        <mxCell id="TOLBs5nu6_EnxWr0bToY-141" value="" style="shape=partialRectangle;collapsible=0;dropTarget=0;pointerEvents=0;fillColor=none;points=[[0,0.5],[1,0.5]];portConstraint=eastwest;top=0;left=0;right=0;bottom=0;labelBackgroundColor=none;rounded=0;" parent="R8GNkzTn_ce1CcZ8P2t4-53" vertex="1">
          <mxGeometry y="140.00142857142856" width="250" height="44.28571428571429" as="geometry" />
        </mxCell>
        <mxCell id="TOLBs5nu6_EnxWr0bToY-142" value="" style="shape=partialRectangle;overflow=hidden;connectable=0;fillColor=none;top=0;left=0;bottom=0;right=0;labelBackgroundColor=none;rounded=0;" parent="TOLBs5nu6_EnxWr0bToY-141" vertex="1">
          <mxGeometry width="30" height="44.28571428571429" as="geometry">
            <mxRectangle width="30" height="30" as="alternateBounds" />
          </mxGeometry>
        </mxCell>
        <mxCell id="TOLBs5nu6_EnxWr0bToY-143" value="Presupuesto(FLOAT)" style="shape=partialRectangle;overflow=hidden;connectable=0;fillColor=none;top=0;left=0;bottom=0;right=0;align=left;spacingLeft=6;labelBackgroundColor=none;rounded=0;" parent="TOLBs5nu6_EnxWr0bToY-141" vertex="1">
          <mxGeometry x="30" width="220" height="44.28571428571429" as="geometry">
            <mxRectangle width="220" height="30" as="alternateBounds" />
          </mxGeometry>
        </mxCell>
        <mxCell id="TOLBs5nu6_EnxWr0bToY-145" value="" style="shape=partialRectangle;collapsible=0;dropTarget=0;pointerEvents=0;fillColor=none;points=[[0,0.5],[1,0.5]];portConstraint=eastwest;top=0;left=0;right=0;bottom=0;labelBackgroundColor=none;rounded=0;" parent="R8GNkzTn_ce1CcZ8P2t4-53" vertex="1">
          <mxGeometry y="179.99571428571434" width="250" height="44.28571428571429" as="geometry" />
        </mxCell>
        <mxCell id="TOLBs5nu6_EnxWr0bToY-146" value="" style="shape=partialRectangle;overflow=hidden;connectable=0;fillColor=none;top=0;left=0;bottom=0;right=0;labelBackgroundColor=none;rounded=0;" parent="TOLBs5nu6_EnxWr0bToY-145" vertex="1">
          <mxGeometry width="30" height="44.28571428571429" as="geometry">
            <mxRectangle width="30" height="30" as="alternateBounds" />
          </mxGeometry>
        </mxCell>
        <mxCell id="TOLBs5nu6_EnxWr0bToY-147" value="Preferencia_distancia(FLOAT)" style="shape=partialRectangle;overflow=hidden;connectable=0;fillColor=none;top=0;left=0;bottom=0;right=0;align=left;spacingLeft=6;labelBackgroundColor=none;rounded=0;" parent="TOLBs5nu6_EnxWr0bToY-145" vertex="1">
          <mxGeometry x="30" width="220" height="44.28571428571429" as="geometry">
            <mxRectangle width="220" height="30" as="alternateBounds" />
          </mxGeometry>
        </mxCell>
        <mxCell id="TOLBs5nu6_EnxWr0bToY-148" value="" style="shape=partialRectangle;collapsible=0;dropTarget=0;pointerEvents=0;fillColor=none;points=[[0,0.5],[1,0.5]];portConstraint=eastwest;top=0;left=0;right=0;bottom=0;labelBackgroundColor=none;rounded=0;" parent="R8GNkzTn_ce1CcZ8P2t4-53" vertex="1">
          <mxGeometry y="220" width="250" height="44.28571428571429" as="geometry" />
        </mxCell>
        <mxCell id="TOLBs5nu6_EnxWr0bToY-149" value="FK" style="shape=partialRectangle;overflow=hidden;connectable=0;fillColor=none;top=0;left=0;bottom=0;right=0;labelBackgroundColor=none;rounded=0;" parent="TOLBs5nu6_EnxWr0bToY-148" vertex="1">
          <mxGeometry width="30" height="44.28571428571429" as="geometry">
            <mxRectangle width="30" height="30" as="alternateBounds" />
          </mxGeometry>
        </mxCell>
        <mxCell id="TOLBs5nu6_EnxWr0bToY-150" value="id_ubicacion(INT)" style="shape=partialRectangle;overflow=hidden;connectable=0;fillColor=none;top=0;left=0;bottom=0;right=0;align=left;spacingLeft=6;labelBackgroundColor=none;rounded=0;" parent="TOLBs5nu6_EnxWr0bToY-148" vertex="1">
          <mxGeometry x="30" width="220" height="40" as="geometry">
            <mxRectangle width="220" height="30" as="alternateBounds" />
          </mxGeometry>
        </mxCell>
        <mxCell id="TOLBs5nu6_EnxWr0bToY-221" value="" style="shape=partialRectangle;collapsible=0;dropTarget=0;pointerEvents=0;fillColor=none;points=[[0,0.5],[1,0.5]];portConstraint=eastwest;top=0;left=0;right=0;bottom=0;labelBackgroundColor=none;rounded=0;" parent="R8GNkzTn_ce1CcZ8P2t4-53" vertex="1">
          <mxGeometry y="260" width="250" height="30" as="geometry" />
        </mxCell>
        <mxCell id="TOLBs5nu6_EnxWr0bToY-222" value="FK" style="shape=partialRectangle;overflow=hidden;connectable=0;fillColor=none;top=0;left=0;bottom=0;right=0;labelBackgroundColor=none;rounded=0;" parent="TOLBs5nu6_EnxWr0bToY-221" vertex="1">
          <mxGeometry width="30" height="30" as="geometry">
            <mxRectangle width="30" height="30" as="alternateBounds" />
          </mxGeometry>
        </mxCell>
        <mxCell id="TOLBs5nu6_EnxWr0bToY-223" value="id_tipo_turismo(INT)" style="shape=partialRectangle;overflow=hidden;connectable=0;fillColor=none;top=0;left=0;bottom=0;right=0;align=left;spacingLeft=6;labelBackgroundColor=none;rounded=0;" parent="TOLBs5nu6_EnxWr0bToY-221" vertex="1">
          <mxGeometry x="30" width="220" height="30" as="geometry">
            <mxRectangle width="220" height="30" as="alternateBounds" />
          </mxGeometry>
        </mxCell>
        <mxCell id="TOLBs5nu6_EnxWr0bToY-293" value="" style="shape=partialRectangle;collapsible=0;dropTarget=0;pointerEvents=0;fillColor=none;points=[[0,0.5],[1,0.5]];portConstraint=eastwest;top=0;left=0;right=0;bottom=0;labelBackgroundColor=none;rounded=0;" parent="R8GNkzTn_ce1CcZ8P2t4-53" vertex="1">
          <mxGeometry y="300" width="250" height="30" as="geometry" />
        </mxCell>
        <mxCell id="TOLBs5nu6_EnxWr0bToY-294" value="FK" style="shape=partialRectangle;overflow=hidden;connectable=0;fillColor=none;top=0;left=0;bottom=0;right=0;labelBackgroundColor=none;rounded=0;" parent="TOLBs5nu6_EnxWr0bToY-293" vertex="1">
          <mxGeometry width="30" height="30" as="geometry">
            <mxRectangle width="30" height="30" as="alternateBounds" />
          </mxGeometry>
        </mxCell>
        <mxCell id="TOLBs5nu6_EnxWr0bToY-295" value="id_codigo(INT)" style="shape=partialRectangle;overflow=hidden;connectable=0;fillColor=none;top=0;left=0;bottom=0;right=0;align=left;spacingLeft=6;labelBackgroundColor=none;rounded=0;" parent="TOLBs5nu6_EnxWr0bToY-293" vertex="1">
          <mxGeometry x="30" width="220" height="30" as="geometry">
            <mxRectangle width="220" height="30" as="alternateBounds" />
          </mxGeometry>
        </mxCell>
        <mxCell id="TOLBs5nu6_EnxWr0bToY-26" value="" style="group;labelBackgroundColor=none;rounded=0;" parent="1" vertex="1" connectable="0">
          <mxGeometry x="400" y="-30" width="250" height="510" as="geometry" />
        </mxCell>
        <mxCell id="C-vyLk0tnHw3VtMMgP7b-2" value="Usuarios" style="shape=table;startSize=30;container=1;collapsible=1;childLayout=tableLayout;fixedRows=1;rowLines=0;fontStyle=1;align=center;resizeLast=1;labelBackgroundColor=none;rounded=0;" parent="TOLBs5nu6_EnxWr0bToY-26" vertex="1">
          <mxGeometry width="250" height="453.33333333333337" as="geometry" />
        </mxCell>
        <mxCell id="C-vyLk0tnHw3VtMMgP7b-3" value="" style="shape=partialRectangle;collapsible=0;dropTarget=0;pointerEvents=0;fillColor=none;points=[[0,0.5],[1,0.5]];portConstraint=eastwest;top=0;left=0;right=0;bottom=1;labelBackgroundColor=none;rounded=0;" parent="C-vyLk0tnHw3VtMMgP7b-2" vertex="1">
          <mxGeometry y="30" width="250" height="30" as="geometry" />
        </mxCell>
        <mxCell id="C-vyLk0tnHw3VtMMgP7b-4" value="PK" style="shape=partialRectangle;overflow=hidden;connectable=0;fillColor=none;top=0;left=0;bottom=0;right=0;fontStyle=1;labelBackgroundColor=none;rounded=0;" parent="C-vyLk0tnHw3VtMMgP7b-3" vertex="1">
          <mxGeometry width="30" height="30" as="geometry">
            <mxRectangle width="30" height="30" as="alternateBounds" />
          </mxGeometry>
        </mxCell>
        <mxCell id="C-vyLk0tnHw3VtMMgP7b-5" value="id_usuario(INT)" style="shape=partialRectangle;overflow=hidden;connectable=0;fillColor=none;top=0;left=0;bottom=0;right=0;align=left;spacingLeft=6;fontStyle=5;labelBackgroundColor=none;rounded=0;" parent="C-vyLk0tnHw3VtMMgP7b-3" vertex="1">
          <mxGeometry x="30" width="220" height="30" as="geometry">
            <mxRectangle width="220" height="30" as="alternateBounds" />
          </mxGeometry>
        </mxCell>
        <mxCell id="C-vyLk0tnHw3VtMMgP7b-6" value="" style="shape=partialRectangle;collapsible=0;dropTarget=0;pointerEvents=0;fillColor=none;points=[[0,0.5],[1,0.5]];portConstraint=eastwest;top=0;left=0;right=0;bottom=0;labelBackgroundColor=none;rounded=0;" parent="C-vyLk0tnHw3VtMMgP7b-2" vertex="1">
          <mxGeometry y="60" width="250" height="30" as="geometry" />
        </mxCell>
        <mxCell id="C-vyLk0tnHw3VtMMgP7b-7" value="FK" style="shape=partialRectangle;overflow=hidden;connectable=0;fillColor=none;top=0;left=0;bottom=0;right=0;labelBackgroundColor=none;rounded=0;" parent="C-vyLk0tnHw3VtMMgP7b-6" vertex="1">
          <mxGeometry width="30" height="30" as="geometry">
            <mxRectangle width="30" height="30" as="alternateBounds" />
          </mxGeometry>
        </mxCell>
        <mxCell id="C-vyLk0tnHw3VtMMgP7b-8" value="id_rol(INT)" style="shape=partialRectangle;overflow=hidden;connectable=0;fillColor=none;top=0;left=0;bottom=0;right=0;align=left;spacingLeft=6;labelBackgroundColor=none;rounded=0;" parent="C-vyLk0tnHw3VtMMgP7b-6" vertex="1">
          <mxGeometry x="30" width="220" height="30" as="geometry">
            <mxRectangle width="220" height="30" as="alternateBounds" />
          </mxGeometry>
        </mxCell>
        <mxCell id="C-vyLk0tnHw3VtMMgP7b-9" value="" style="shape=partialRectangle;collapsible=0;dropTarget=0;pointerEvents=0;fillColor=none;points=[[0,0.5],[1,0.5]];portConstraint=eastwest;top=0;left=0;right=0;bottom=0;labelBackgroundColor=none;rounded=0;" parent="C-vyLk0tnHw3VtMMgP7b-2" vertex="1">
          <mxGeometry y="90" width="250" height="30" as="geometry" />
        </mxCell>
        <mxCell id="C-vyLk0tnHw3VtMMgP7b-10" value="" style="shape=partialRectangle;overflow=hidden;connectable=0;fillColor=none;top=0;left=0;bottom=0;right=0;labelBackgroundColor=none;rounded=0;" parent="C-vyLk0tnHw3VtMMgP7b-9" vertex="1">
          <mxGeometry width="30" height="30" as="geometry">
            <mxRectangle width="30" height="30" as="alternateBounds" />
          </mxGeometry>
        </mxCell>
        <mxCell id="C-vyLk0tnHw3VtMMgP7b-11" value="Nombre1(VARCHAR(20))" style="shape=partialRectangle;overflow=hidden;connectable=0;fillColor=none;top=0;left=0;bottom=0;right=0;align=left;spacingLeft=6;labelBackgroundColor=none;rounded=0;" parent="C-vyLk0tnHw3VtMMgP7b-9" vertex="1">
          <mxGeometry x="30" width="220" height="30" as="geometry">
            <mxRectangle width="220" height="30" as="alternateBounds" />
          </mxGeometry>
        </mxCell>
        <mxCell id="TOLBs5nu6_EnxWr0bToY-12" value="Nombre2(VARCHAR(20))" style="shape=partialRectangle;overflow=hidden;connectable=0;fillColor=none;top=0;left=0;bottom=0;right=0;align=left;spacingLeft=6;labelBackgroundColor=none;rounded=0;" parent="TOLBs5nu6_EnxWr0bToY-26" vertex="1">
          <mxGeometry x="30" y="122.4" width="220" height="30.6" as="geometry">
            <mxRectangle width="220" height="30" as="alternateBounds" />
          </mxGeometry>
        </mxCell>
        <mxCell id="TOLBs5nu6_EnxWr0bToY-13" value="Apellido1(VARCHAR(20))" style="shape=partialRectangle;overflow=hidden;connectable=0;fillColor=none;top=0;left=0;bottom=0;right=0;align=left;spacingLeft=6;labelBackgroundColor=none;rounded=0;" parent="TOLBs5nu6_EnxWr0bToY-26" vertex="1">
          <mxGeometry x="30" y="153" width="220" height="30.6" as="geometry">
            <mxRectangle width="220" height="30" as="alternateBounds" />
          </mxGeometry>
        </mxCell>
        <mxCell id="TOLBs5nu6_EnxWr0bToY-14" value="Apellido2(VARCHAR(20))" style="shape=partialRectangle;overflow=hidden;connectable=0;fillColor=none;top=0;left=0;bottom=0;right=0;align=left;spacingLeft=6;labelBackgroundColor=none;rounded=0;" parent="TOLBs5nu6_EnxWr0bToY-26" vertex="1">
          <mxGeometry x="30" y="183.60000000000002" width="220" height="30.6" as="geometry">
            <mxRectangle width="220" height="30" as="alternateBounds" />
          </mxGeometry>
        </mxCell>
        <mxCell id="TOLBs5nu6_EnxWr0bToY-15" value="Correo_electronico(VARCHAR(60))" style="shape=partialRectangle;overflow=hidden;connectable=0;fillColor=none;top=0;left=0;bottom=0;right=0;align=left;spacingLeft=6;labelBackgroundColor=none;rounded=0;" parent="TOLBs5nu6_EnxWr0bToY-26" vertex="1">
          <mxGeometry x="30" y="214.20000000000002" width="220" height="30.6" as="geometry">
            <mxRectangle width="220" height="30" as="alternateBounds" />
          </mxGeometry>
        </mxCell>
        <mxCell id="TOLBs5nu6_EnxWr0bToY-16" value="Telefono(VARCHAR(10))" style="shape=partialRectangle;overflow=hidden;connectable=0;fillColor=none;top=0;left=0;bottom=0;right=0;align=left;spacingLeft=6;labelBackgroundColor=none;rounded=0;" parent="TOLBs5nu6_EnxWr0bToY-26" vertex="1">
          <mxGeometry x="30" y="244.8" width="220" height="30.6" as="geometry">
            <mxRectangle width="220" height="30" as="alternateBounds" />
          </mxGeometry>
        </mxCell>
        <mxCell id="TOLBs5nu6_EnxWr0bToY-17" value="Fecha_nac(DATE)" style="shape=partialRectangle;overflow=hidden;connectable=0;fillColor=none;top=0;left=0;bottom=0;right=0;align=left;spacingLeft=6;labelBackgroundColor=none;rounded=0;" parent="TOLBs5nu6_EnxWr0bToY-26" vertex="1">
          <mxGeometry x="30" y="275.4" width="220" height="30.6" as="geometry">
            <mxRectangle width="220" height="30" as="alternateBounds" />
          </mxGeometry>
        </mxCell>
        <mxCell id="TOLBs5nu6_EnxWr0bToY-18" value="Sexo(VARCHAR(20))" style="shape=partialRectangle;overflow=hidden;connectable=0;fillColor=none;top=0;left=0;bottom=0;right=0;align=left;spacingLeft=6;labelBackgroundColor=none;rounded=0;" parent="TOLBs5nu6_EnxWr0bToY-26" vertex="1">
          <mxGeometry x="30" y="306" width="220" height="30.6" as="geometry">
            <mxRectangle width="220" height="30" as="alternateBounds" />
          </mxGeometry>
        </mxCell>
        <mxCell id="TOLBs5nu6_EnxWr0bToY-19" value="Ocupacion(VARCHAR(30))" style="shape=partialRectangle;overflow=hidden;connectable=0;fillColor=none;top=0;left=0;bottom=0;right=0;align=left;spacingLeft=6;labelBackgroundColor=none;rounded=0;" parent="TOLBs5nu6_EnxWr0bToY-26" vertex="1">
          <mxGeometry x="30" y="336.6" width="220" height="30.6" as="geometry">
            <mxRectangle width="220" height="30" as="alternateBounds" />
          </mxGeometry>
        </mxCell>
        <mxCell id="TOLBs5nu6_EnxWr0bToY-33" value="" style="shape=partialRectangle;collapsible=0;dropTarget=0;pointerEvents=0;fillColor=none;points=[[0,0.5],[1,0.5]];portConstraint=eastwest;top=0;left=0;right=0;bottom=0;labelBackgroundColor=none;rounded=0;" parent="TOLBs5nu6_EnxWr0bToY-26" vertex="1">
          <mxGeometry y="387.6" width="250" height="30.6" as="geometry" />
        </mxCell>
        <mxCell id="TOLBs5nu6_EnxWr0bToY-34" value="FK" style="shape=partialRectangle;overflow=hidden;connectable=0;fillColor=none;top=0;left=0;bottom=0;right=0;labelBackgroundColor=none;rounded=0;" parent="TOLBs5nu6_EnxWr0bToY-33" vertex="1">
          <mxGeometry width="30" height="30.6" as="geometry">
            <mxRectangle width="30" height="30" as="alternateBounds" />
          </mxGeometry>
        </mxCell>
        <mxCell id="TOLBs5nu6_EnxWr0bToY-35" value="id_ubicacion(INT)" style="shape=partialRectangle;overflow=hidden;connectable=0;fillColor=none;top=0;left=0;bottom=0;right=0;align=left;spacingLeft=6;labelBackgroundColor=none;rounded=0;" parent="TOLBs5nu6_EnxWr0bToY-33" vertex="1">
          <mxGeometry x="30" width="220" height="30.6" as="geometry">
            <mxRectangle width="220" height="30" as="alternateBounds" />
          </mxGeometry>
        </mxCell>
        <mxCell id="TOLBs5nu6_EnxWr0bToY-39" value="" style="shape=partialRectangle;collapsible=0;dropTarget=0;pointerEvents=0;fillColor=none;points=[[0,0.5],[1,0.5]];portConstraint=eastwest;top=0;left=0;right=0;bottom=0;labelBackgroundColor=none;rounded=0;" parent="TOLBs5nu6_EnxWr0bToY-26" vertex="1">
          <mxGeometry y="415.5555555555556" width="250" height="30.6" as="geometry" />
        </mxCell>
        <mxCell id="TOLBs5nu6_EnxWr0bToY-40" value="FK" style="shape=partialRectangle;overflow=hidden;connectable=0;fillColor=none;top=0;left=0;bottom=0;right=0;labelBackgroundColor=none;rounded=0;" parent="TOLBs5nu6_EnxWr0bToY-39" vertex="1">
          <mxGeometry width="30" height="30.6" as="geometry">
            <mxRectangle width="30" height="30" as="alternateBounds" />
          </mxGeometry>
        </mxCell>
        <mxCell id="TOLBs5nu6_EnxWr0bToY-41" value="id_tipo_id(INT)" style="shape=partialRectangle;overflow=hidden;connectable=0;fillColor=none;top=0;left=0;bottom=0;right=0;align=left;spacingLeft=6;labelBackgroundColor=none;rounded=0;" parent="TOLBs5nu6_EnxWr0bToY-39" vertex="1">
          <mxGeometry x="30" width="220" height="30.6" as="geometry">
            <mxRectangle width="220" height="30" as="alternateBounds" />
          </mxGeometry>
        </mxCell>
        <mxCell id="TOLBs5nu6_EnxWr0bToY-301" value="Puntos_xp(FLOAT)" style="shape=partialRectangle;overflow=hidden;connectable=0;fillColor=none;top=0;left=0;bottom=0;right=0;align=left;spacingLeft=6;labelBackgroundColor=none;rounded=0;" parent="TOLBs5nu6_EnxWr0bToY-26" vertex="1">
          <mxGeometry x="30" y="367.3888888888889" width="220" height="28.900000000000006" as="geometry">
            <mxRectangle width="220" height="30" as="alternateBounds" />
          </mxGeometry>
        </mxCell>
        <mxCell id="TOLBs5nu6_EnxWr0bToY-310" style="edgeStyle=orthogonalEdgeStyle;rounded=0;orthogonalLoop=1;jettySize=auto;html=1;exitX=0.993;exitY=0.873;exitDx=0;exitDy=0;startArrow=ERone;startFill=0;endArrow=ERmany;endFill=0;exitPerimeter=0;labelBackgroundColor=none;fontColor=default;" parent="1" source="C-vyLk0tnHw3VtMMgP7b-3" target="TOLBs5nu6_EnxWr0bToY-303" edge="1">
          <mxGeometry relative="1" as="geometry">
            <mxPoint x="830" y="765" as="targetPoint" />
            <mxPoint x="700" y="135" as="sourcePoint" />
            <Array as="points">
              <mxPoint x="660" y="26" />
              <mxPoint x="660" y="146" />
              <mxPoint x="700" y="146" />
              <mxPoint x="700" y="250" />
              <mxPoint x="770" y="250" />
              <mxPoint x="770" y="765" />
            </Array>
          </mxGeometry>
        </mxCell>
        <mxCell id="TOLBs5nu6_EnxWr0bToY-341" style="edgeStyle=orthogonalEdgeStyle;rounded=0;orthogonalLoop=1;jettySize=auto;html=1;startArrow=ERmany;startFill=0;endArrow=ERone;endFill=0;labelBackgroundColor=none;fontColor=default;" parent="1" source="TOLBs5nu6_EnxWr0bToY-331" target="TOLBs5nu6_EnxWr0bToY-117" edge="1">
          <mxGeometry relative="1" as="geometry">
            <Array as="points">
              <mxPoint x="750" y="1106" />
              <mxPoint x="750" y="365" />
            </Array>
          </mxGeometry>
        </mxCell>
        <mxCell id="TOLBs5nu6_EnxWr0bToY-345" style="edgeStyle=orthogonalEdgeStyle;rounded=0;orthogonalLoop=1;jettySize=auto;html=1;entryX=-0.004;entryY=0.829;entryDx=0;entryDy=0;entryPerimeter=0;endArrow=ERone;endFill=0;startArrow=ERmany;startFill=0;exitX=0.993;exitY=0.316;exitDx=0;exitDy=0;exitPerimeter=0;labelBackgroundColor=none;fontColor=default;" parent="1" source="TOLBs5nu6_EnxWr0bToY-334" target="TOLBs5nu6_EnxWr0bToY-303" edge="1">
          <mxGeometry relative="1" as="geometry" />
        </mxCell>
        <mxCell id="TOLBs5nu6_EnxWr0bToY-346" value="" style="group;labelBackgroundColor=none;rounded=0;" parent="1" vertex="1" connectable="0">
          <mxGeometry x="460" y="980" width="250" height="220" as="geometry" />
        </mxCell>
        <mxCell id="TOLBs5nu6_EnxWr0bToY-317" value="Notificaciones" style="shape=table;startSize=30;container=1;collapsible=1;childLayout=tableLayout;fixedRows=1;rowLines=0;fontStyle=1;align=center;resizeLast=1;labelBackgroundColor=none;rounded=0;" parent="TOLBs5nu6_EnxWr0bToY-346" vertex="1">
          <mxGeometry width="250" height="220" as="geometry" />
        </mxCell>
        <mxCell id="TOLBs5nu6_EnxWr0bToY-318" value="" style="shape=partialRectangle;collapsible=0;dropTarget=0;pointerEvents=0;fillColor=none;points=[[0,0.5],[1,0.5]];portConstraint=eastwest;top=0;left=0;right=0;bottom=1;labelBackgroundColor=none;rounded=0;" parent="TOLBs5nu6_EnxWr0bToY-317" vertex="1">
          <mxGeometry y="30" width="250" height="30" as="geometry" />
        </mxCell>
        <mxCell id="TOLBs5nu6_EnxWr0bToY-319" value="PK" style="shape=partialRectangle;overflow=hidden;connectable=0;fillColor=none;top=0;left=0;bottom=0;right=0;fontStyle=1;labelBackgroundColor=none;rounded=0;" parent="TOLBs5nu6_EnxWr0bToY-318" vertex="1">
          <mxGeometry width="30" height="30" as="geometry">
            <mxRectangle width="30" height="30" as="alternateBounds" />
          </mxGeometry>
        </mxCell>
        <mxCell id="TOLBs5nu6_EnxWr0bToY-320" value="id_notificacion(INT)" style="shape=partialRectangle;overflow=hidden;connectable=0;fillColor=none;top=0;left=0;bottom=0;right=0;align=left;spacingLeft=6;fontStyle=5;labelBackgroundColor=none;rounded=0;" parent="TOLBs5nu6_EnxWr0bToY-318" vertex="1">
          <mxGeometry x="30" width="220" height="30" as="geometry">
            <mxRectangle width="220" height="30" as="alternateBounds" />
          </mxGeometry>
        </mxCell>
        <mxCell id="TOLBs5nu6_EnxWr0bToY-321" value="" style="shape=partialRectangle;collapsible=0;dropTarget=0;pointerEvents=0;fillColor=none;points=[[0,0.5],[1,0.5]];portConstraint=eastwest;top=0;left=0;right=0;bottom=0;labelBackgroundColor=none;rounded=0;" parent="TOLBs5nu6_EnxWr0bToY-317" vertex="1">
          <mxGeometry y="60" width="250" height="30" as="geometry" />
        </mxCell>
        <mxCell id="TOLBs5nu6_EnxWr0bToY-322" value="" style="shape=partialRectangle;overflow=hidden;connectable=0;fillColor=none;top=0;left=0;bottom=0;right=0;labelBackgroundColor=none;rounded=0;" parent="TOLBs5nu6_EnxWr0bToY-321" vertex="1">
          <mxGeometry width="30" height="30" as="geometry">
            <mxRectangle width="30" height="30" as="alternateBounds" />
          </mxGeometry>
        </mxCell>
        <mxCell id="TOLBs5nu6_EnxWr0bToY-323" value="Descripcion(VARCHAR(20))" style="shape=partialRectangle;overflow=hidden;connectable=0;fillColor=none;top=0;left=0;bottom=0;right=0;align=left;spacingLeft=6;labelBackgroundColor=none;rounded=0;" parent="TOLBs5nu6_EnxWr0bToY-321" vertex="1">
          <mxGeometry x="30" width="220" height="30" as="geometry">
            <mxRectangle width="220" height="30" as="alternateBounds" />
          </mxGeometry>
        </mxCell>
        <mxCell id="TOLBs5nu6_EnxWr0bToY-330" value="Tipo_noti(VARCHAR(20))" style="shape=partialRectangle;overflow=hidden;connectable=0;fillColor=none;top=0;left=0;bottom=0;right=0;align=left;spacingLeft=6;labelBackgroundColor=none;rounded=0;" parent="TOLBs5nu6_EnxWr0bToY-346" vertex="1">
          <mxGeometry x="30" y="90" width="220" height="30" as="geometry">
            <mxRectangle width="220" height="30" as="alternateBounds" />
          </mxGeometry>
        </mxCell>
        <mxCell id="TOLBs5nu6_EnxWr0bToY-331" value="" style="shape=partialRectangle;collapsible=0;dropTarget=0;pointerEvents=0;fillColor=none;points=[[0,0.5],[1,0.5]];portConstraint=eastwest;top=0;left=0;right=0;bottom=0;labelBackgroundColor=none;rounded=0;" parent="TOLBs5nu6_EnxWr0bToY-346" vertex="1">
          <mxGeometry y="120" width="250" height="32.4" as="geometry" />
        </mxCell>
        <mxCell id="TOLBs5nu6_EnxWr0bToY-332" value="FK" style="shape=partialRectangle;overflow=hidden;connectable=0;fillColor=none;top=0;left=0;bottom=0;right=0;labelBackgroundColor=none;rounded=0;" parent="TOLBs5nu6_EnxWr0bToY-331" vertex="1">
          <mxGeometry width="30" height="32.4" as="geometry">
            <mxRectangle width="30" height="30" as="alternateBounds" />
          </mxGeometry>
        </mxCell>
        <mxCell id="TOLBs5nu6_EnxWr0bToY-333" value="id_viaje(INT)" style="shape=partialRectangle;overflow=hidden;connectable=0;fillColor=none;top=0;left=0;bottom=0;right=0;align=left;spacingLeft=6;labelBackgroundColor=none;rounded=0;" parent="TOLBs5nu6_EnxWr0bToY-331" vertex="1">
          <mxGeometry x="30" width="220" height="32.4" as="geometry">
            <mxRectangle width="220" height="30" as="alternateBounds" />
          </mxGeometry>
        </mxCell>
        <mxCell id="TOLBs5nu6_EnxWr0bToY-334" value="" style="shape=partialRectangle;collapsible=0;dropTarget=0;pointerEvents=0;fillColor=none;points=[[0,0.5],[1,0.5]];portConstraint=eastwest;top=0;left=0;right=0;bottom=0;labelBackgroundColor=none;rounded=0;" parent="TOLBs5nu6_EnxWr0bToY-346" vertex="1">
          <mxGeometry y="150" width="250" height="32.4" as="geometry" />
        </mxCell>
        <mxCell id="TOLBs5nu6_EnxWr0bToY-335" value="FK" style="shape=partialRectangle;overflow=hidden;connectable=0;fillColor=none;top=0;left=0;bottom=0;right=0;labelBackgroundColor=none;rounded=0;" parent="TOLBs5nu6_EnxWr0bToY-334" vertex="1">
          <mxGeometry width="30" height="32.4" as="geometry">
            <mxRectangle width="30" height="30" as="alternateBounds" />
          </mxGeometry>
        </mxCell>
        <mxCell id="TOLBs5nu6_EnxWr0bToY-336" value="id_feed(INT)" style="shape=partialRectangle;overflow=hidden;connectable=0;fillColor=none;top=0;left=0;bottom=0;right=0;align=left;spacingLeft=6;labelBackgroundColor=none;rounded=0;" parent="TOLBs5nu6_EnxWr0bToY-334" vertex="1">
          <mxGeometry x="30" width="220" height="32.4" as="geometry">
            <mxRectangle width="220" height="30" as="alternateBounds" />
          </mxGeometry>
        </mxCell>
        <mxCell id="TOLBs5nu6_EnxWr0bToY-342" value="" style="shape=partialRectangle;collapsible=0;dropTarget=0;pointerEvents=0;fillColor=none;points=[[0,0.5],[1,0.5]];portConstraint=eastwest;top=0;left=0;right=0;bottom=0;labelBackgroundColor=none;rounded=0;" parent="TOLBs5nu6_EnxWr0bToY-346" vertex="1">
          <mxGeometry y="180" width="250" height="32.4" as="geometry" />
        </mxCell>
        <mxCell id="TOLBs5nu6_EnxWr0bToY-343" value="" style="shape=partialRectangle;overflow=hidden;connectable=0;fillColor=none;top=0;left=0;bottom=0;right=0;labelBackgroundColor=none;rounded=0;" parent="TOLBs5nu6_EnxWr0bToY-342" vertex="1">
          <mxGeometry width="30" height="32.4" as="geometry">
            <mxRectangle width="30" height="30" as="alternateBounds" />
          </mxGeometry>
        </mxCell>
        <mxCell id="TOLBs5nu6_EnxWr0bToY-344" value="Hora(DATETIME)" style="shape=partialRectangle;overflow=hidden;connectable=0;fillColor=none;top=0;left=0;bottom=0;right=0;align=left;spacingLeft=6;labelBackgroundColor=none;rounded=0;" parent="TOLBs5nu6_EnxWr0bToY-342" vertex="1">
          <mxGeometry x="30" width="220" height="32.4" as="geometry">
            <mxRectangle width="220" height="30" as="alternateBounds" />
          </mxGeometry>
        </mxCell>
        <mxCell id="TOLBs5nu6_EnxWr0bToY-358" style="edgeStyle=orthogonalEdgeStyle;rounded=0;orthogonalLoop=1;jettySize=auto;html=1;entryX=-0.005;entryY=0.829;entryDx=0;entryDy=0;entryPerimeter=0;endArrow=ERone;endFill=0;startArrow=ERmany;startFill=0;labelBackgroundColor=none;fontColor=default;" parent="1" source="TOLBs5nu6_EnxWr0bToY-355" target="TOLBs5nu6_EnxWr0bToY-117" edge="1">
          <mxGeometry relative="1" as="geometry">
            <Array as="points">
              <mxPoint x="150" y="814" />
              <mxPoint x="150" y="870" />
              <mxPoint x="500" y="870" />
              <mxPoint x="500" y="850" />
              <mxPoint x="720" y="850" />
              <mxPoint x="720" y="375" />
            </Array>
            <mxPoint x="460" y="810" as="sourcePoint" />
          </mxGeometry>
        </mxCell>
        <mxCell id="TOLBs5nu6_EnxWr0bToY-359" value="" style="group;labelBackgroundColor=none;rounded=0;" parent="1" vertex="1" connectable="0">
          <mxGeometry x="160" y="680" width="250" height="170" as="geometry" />
        </mxCell>
        <mxCell id="TOLBs5nu6_EnxWr0bToY-347" value="Invitaciones" style="shape=table;startSize=30;container=1;collapsible=1;childLayout=tableLayout;fixedRows=1;rowLines=0;fontStyle=1;align=center;resizeLast=1;labelBackgroundColor=none;rounded=0;" parent="TOLBs5nu6_EnxWr0bToY-359" vertex="1">
          <mxGeometry width="250" height="170" as="geometry" />
        </mxCell>
        <mxCell id="TOLBs5nu6_EnxWr0bToY-348" value="" style="shape=partialRectangle;collapsible=0;dropTarget=0;pointerEvents=0;fillColor=none;points=[[0,0.5],[1,0.5]];portConstraint=eastwest;top=0;left=0;right=0;bottom=1;labelBackgroundColor=none;rounded=0;" parent="TOLBs5nu6_EnxWr0bToY-347" vertex="1">
          <mxGeometry y="30" width="250" height="30" as="geometry" />
        </mxCell>
        <mxCell id="TOLBs5nu6_EnxWr0bToY-349" value="PK" style="shape=partialRectangle;overflow=hidden;connectable=0;fillColor=none;top=0;left=0;bottom=0;right=0;fontStyle=1;labelBackgroundColor=none;rounded=0;" parent="TOLBs5nu6_EnxWr0bToY-348" vertex="1">
          <mxGeometry width="30" height="30" as="geometry">
            <mxRectangle width="30" height="30" as="alternateBounds" />
          </mxGeometry>
        </mxCell>
        <mxCell id="TOLBs5nu6_EnxWr0bToY-350" value="id_invitacion(INT)" style="shape=partialRectangle;overflow=hidden;connectable=0;fillColor=none;top=0;left=0;bottom=0;right=0;align=left;spacingLeft=6;fontStyle=5;labelBackgroundColor=none;rounded=0;" parent="TOLBs5nu6_EnxWr0bToY-348" vertex="1">
          <mxGeometry x="30" width="220" height="30" as="geometry">
            <mxRectangle width="220" height="30" as="alternateBounds" />
          </mxGeometry>
        </mxCell>
        <mxCell id="TOLBs5nu6_EnxWr0bToY-351" value="" style="shape=partialRectangle;collapsible=0;dropTarget=0;pointerEvents=0;fillColor=none;points=[[0,0.5],[1,0.5]];portConstraint=eastwest;top=0;left=0;right=0;bottom=0;labelBackgroundColor=none;rounded=0;" parent="TOLBs5nu6_EnxWr0bToY-347" vertex="1">
          <mxGeometry y="60" width="250" height="30" as="geometry" />
        </mxCell>
        <mxCell id="TOLBs5nu6_EnxWr0bToY-352" value="" style="shape=partialRectangle;overflow=hidden;connectable=0;fillColor=none;top=0;left=0;bottom=0;right=0;labelBackgroundColor=none;rounded=0;" parent="TOLBs5nu6_EnxWr0bToY-351" vertex="1">
          <mxGeometry width="30" height="30" as="geometry">
            <mxRectangle width="30" height="30" as="alternateBounds" />
          </mxGeometry>
        </mxCell>
        <mxCell id="TOLBs5nu6_EnxWr0bToY-353" value="Estado(VARCHAR(20))" style="shape=partialRectangle;overflow=hidden;connectable=0;fillColor=none;top=0;left=0;bottom=0;right=0;align=left;spacingLeft=6;labelBackgroundColor=none;rounded=0;" parent="TOLBs5nu6_EnxWr0bToY-351" vertex="1">
          <mxGeometry x="30" width="220" height="30" as="geometry">
            <mxRectangle width="220" height="30" as="alternateBounds" />
          </mxGeometry>
        </mxCell>
        <mxCell id="TOLBs5nu6_EnxWr0bToY-354" value="Rol(VARCHAR(20))" style="shape=partialRectangle;overflow=hidden;connectable=0;fillColor=none;top=0;left=0;bottom=0;right=0;align=left;spacingLeft=6;labelBackgroundColor=none;rounded=0;" parent="TOLBs5nu6_EnxWr0bToY-359" vertex="1">
          <mxGeometry x="30" y="90" width="220" height="30" as="geometry">
            <mxRectangle width="220" height="30" as="alternateBounds" />
          </mxGeometry>
        </mxCell>
        <mxCell id="TOLBs5nu6_EnxWr0bToY-355" value="" style="shape=partialRectangle;collapsible=0;dropTarget=0;pointerEvents=0;fillColor=none;points=[[0,0.5],[1,0.5]];portConstraint=eastwest;top=0;left=0;right=0;bottom=0;labelBackgroundColor=none;rounded=0;" parent="TOLBs5nu6_EnxWr0bToY-359" vertex="1">
          <mxGeometry y="117.6" width="250" height="32.4" as="geometry" />
        </mxCell>
        <mxCell id="TOLBs5nu6_EnxWr0bToY-356" value="FK" style="shape=partialRectangle;overflow=hidden;connectable=0;fillColor=none;top=0;left=0;bottom=0;right=0;labelBackgroundColor=none;rounded=0;" parent="TOLBs5nu6_EnxWr0bToY-355" vertex="1">
          <mxGeometry width="30" height="32.4" as="geometry">
            <mxRectangle width="30" height="30" as="alternateBounds" />
          </mxGeometry>
        </mxCell>
        <mxCell id="TOLBs5nu6_EnxWr0bToY-357" value="id_viaje(INT)" style="shape=partialRectangle;overflow=hidden;connectable=0;fillColor=none;top=0;left=0;bottom=0;right=0;align=left;spacingLeft=6;labelBackgroundColor=none;rounded=0;" parent="TOLBs5nu6_EnxWr0bToY-359" vertex="1">
          <mxGeometry x="30" y="120" width="220" height="32.4" as="geometry">
            <mxRectangle width="220" height="30" as="alternateBounds" />
          </mxGeometry>
        </mxCell>
        <mxCell id="TOLBs5nu6_EnxWr0bToY-388" style="edgeStyle=orthogonalEdgeStyle;rounded=0;orthogonalLoop=1;jettySize=auto;html=1;entryX=0;entryY=0.5;entryDx=0;entryDy=0;endArrow=ERmany;endFill=0;startArrow=ERone;startFill=0;labelBackgroundColor=none;fontColor=default;" parent="1" source="C-vyLk0tnHw3VtMMgP7b-3" target="TOLBs5nu6_EnxWr0bToY-385" edge="1">
          <mxGeometry relative="1" as="geometry">
            <Array as="points">
              <mxPoint x="360" y="15" />
              <mxPoint x="360" y="639" />
            </Array>
          </mxGeometry>
        </mxCell>
        <mxCell id="TOLBs5nu6_EnxWr0bToY-389" style="edgeStyle=orthogonalEdgeStyle;rounded=0;orthogonalLoop=1;jettySize=auto;html=1;entryX=0;entryY=0.5;entryDx=0;entryDy=0;endArrow=ERone;endFill=0;startArrow=ERmany;startFill=0;labelBackgroundColor=none;fontColor=default;" parent="1" source="TOLBs5nu6_EnxWr0bToY-348" target="TOLBs5nu6_EnxWr0bToY-382" edge="1">
          <mxGeometry relative="1" as="geometry">
            <Array as="points">
              <mxPoint x="420" y="735" />
              <mxPoint x="420" y="606" />
            </Array>
          </mxGeometry>
        </mxCell>
        <mxCell id="TOLBs5nu6_EnxWr0bToY-374" value="Invi_viaje" style="shape=table;startSize=30;container=1;collapsible=1;childLayout=tableLayout;fixedRows=1;rowLines=0;fontStyle=1;align=center;resizeLast=1;labelBackgroundColor=none;rounded=0;" parent="1" vertex="1">
          <mxGeometry x="440" y="530" width="250" height="130" as="geometry" />
        </mxCell>
        <mxCell id="TOLBs5nu6_EnxWr0bToY-375" value="" style="shape=partialRectangle;collapsible=0;dropTarget=0;pointerEvents=0;fillColor=none;points=[[0,0.5],[1,0.5]];portConstraint=eastwest;top=0;left=0;right=0;bottom=1;labelBackgroundColor=none;rounded=0;" parent="TOLBs5nu6_EnxWr0bToY-374" vertex="1">
          <mxGeometry y="30" width="250" height="30" as="geometry" />
        </mxCell>
        <mxCell id="TOLBs5nu6_EnxWr0bToY-376" value="PK" style="shape=partialRectangle;overflow=hidden;connectable=0;fillColor=none;top=0;left=0;bottom=0;right=0;fontStyle=1;labelBackgroundColor=none;rounded=0;" parent="TOLBs5nu6_EnxWr0bToY-375" vertex="1">
          <mxGeometry width="30" height="30" as="geometry">
            <mxRectangle width="30" height="30" as="alternateBounds" />
          </mxGeometry>
        </mxCell>
        <mxCell id="TOLBs5nu6_EnxWr0bToY-377" value="id_Invi_viaje(INT)" style="shape=partialRectangle;overflow=hidden;connectable=0;fillColor=none;top=0;left=0;bottom=0;right=0;align=left;spacingLeft=6;fontStyle=5;labelBackgroundColor=none;rounded=0;" parent="TOLBs5nu6_EnxWr0bToY-375" vertex="1">
          <mxGeometry x="30" width="220" height="30" as="geometry">
            <mxRectangle width="220" height="30" as="alternateBounds" />
          </mxGeometry>
        </mxCell>
        <mxCell id="TOLBs5nu6_EnxWr0bToY-378" value="" style="shape=partialRectangle;collapsible=0;dropTarget=0;pointerEvents=0;fillColor=none;points=[[0,0.5],[1,0.5]];portConstraint=eastwest;top=0;left=0;right=0;bottom=0;labelBackgroundColor=none;rounded=0;" parent="TOLBs5nu6_EnxWr0bToY-374" vertex="1">
          <mxGeometry y="60" width="250" height="30" as="geometry" />
        </mxCell>
        <mxCell id="TOLBs5nu6_EnxWr0bToY-379" value="" style="shape=partialRectangle;overflow=hidden;connectable=0;fillColor=none;top=0;left=0;bottom=0;right=0;labelBackgroundColor=none;rounded=0;" parent="TOLBs5nu6_EnxWr0bToY-378" vertex="1">
          <mxGeometry width="30" height="30" as="geometry">
            <mxRectangle width="30" height="30" as="alternateBounds" />
          </mxGeometry>
        </mxCell>
        <mxCell id="TOLBs5nu6_EnxWr0bToY-380" value="" style="shape=partialRectangle;overflow=hidden;connectable=0;fillColor=none;top=0;left=0;bottom=0;right=0;align=left;spacingLeft=6;labelBackgroundColor=none;rounded=0;" parent="TOLBs5nu6_EnxWr0bToY-378" vertex="1">
          <mxGeometry x="30" width="220" height="30" as="geometry">
            <mxRectangle width="220" height="30" as="alternateBounds" />
          </mxGeometry>
        </mxCell>
        <mxCell id="TOLBs5nu6_EnxWr0bToY-382" value="" style="shape=partialRectangle;collapsible=0;dropTarget=0;pointerEvents=0;fillColor=none;points=[[0,0.5],[1,0.5]];portConstraint=eastwest;top=0;left=0;right=0;bottom=0;labelBackgroundColor=none;rounded=0;" parent="1" vertex="1">
          <mxGeometry x="440" y="590" width="250" height="32.4" as="geometry" />
        </mxCell>
        <mxCell id="TOLBs5nu6_EnxWr0bToY-383" value="FK" style="shape=partialRectangle;overflow=hidden;connectable=0;fillColor=none;top=0;left=0;bottom=0;right=0;labelBackgroundColor=none;rounded=0;" parent="TOLBs5nu6_EnxWr0bToY-382" vertex="1">
          <mxGeometry width="30" height="32.4" as="geometry">
            <mxRectangle width="30" height="30" as="alternateBounds" />
          </mxGeometry>
        </mxCell>
        <mxCell id="TOLBs5nu6_EnxWr0bToY-384" value="id_invitacion(INT)" style="shape=partialRectangle;overflow=hidden;connectable=0;fillColor=none;top=0;left=0;bottom=0;right=0;align=left;spacingLeft=6;labelBackgroundColor=none;rounded=0;" parent="TOLBs5nu6_EnxWr0bToY-382" vertex="1">
          <mxGeometry x="30" width="220" height="32.4" as="geometry">
            <mxRectangle width="220" height="30" as="alternateBounds" />
          </mxGeometry>
        </mxCell>
        <mxCell id="TOLBs5nu6_EnxWr0bToY-385" value="" style="shape=partialRectangle;collapsible=0;dropTarget=0;pointerEvents=0;fillColor=none;points=[[0,0.5],[1,0.5]];portConstraint=eastwest;top=0;left=0;right=0;bottom=0;labelBackgroundColor=none;rounded=0;" parent="1" vertex="1">
          <mxGeometry x="440" y="622.4" width="250" height="32.4" as="geometry" />
        </mxCell>
        <mxCell id="TOLBs5nu6_EnxWr0bToY-386" value="FK" style="shape=partialRectangle;overflow=hidden;connectable=0;fillColor=none;top=0;left=0;bottom=0;right=0;labelBackgroundColor=none;rounded=0;" parent="TOLBs5nu6_EnxWr0bToY-385" vertex="1">
          <mxGeometry width="30" height="32.4" as="geometry">
            <mxRectangle width="30" height="30" as="alternateBounds" />
          </mxGeometry>
        </mxCell>
        <mxCell id="TOLBs5nu6_EnxWr0bToY-387" value="id_usuario(INT)" style="shape=partialRectangle;overflow=hidden;connectable=0;fillColor=none;top=0;left=0;bottom=0;right=0;align=left;spacingLeft=6;labelBackgroundColor=none;rounded=0;" parent="TOLBs5nu6_EnxWr0bToY-385" vertex="1">
          <mxGeometry x="30" width="220" height="32.4" as="geometry">
            <mxRectangle width="220" height="30" as="alternateBounds" />
          </mxGeometry>
        </mxCell>
        <mxCell id="TOLBs5nu6_EnxWr0bToY-408" value="" style="group;labelBackgroundColor=none;rounded=0;" parent="1" vertex="1" connectable="0">
          <mxGeometry x="1180" y="790" width="250" height="160" as="geometry" />
        </mxCell>
        <mxCell id="TOLBs5nu6_EnxWr0bToY-409" value="Match" style="shape=table;startSize=30;container=1;collapsible=1;childLayout=tableLayout;fixedRows=1;rowLines=0;fontStyle=1;align=center;resizeLast=1;labelBackgroundColor=none;rounded=0;" parent="TOLBs5nu6_EnxWr0bToY-408" vertex="1">
          <mxGeometry width="250" height="160" as="geometry" />
        </mxCell>
        <mxCell id="TOLBs5nu6_EnxWr0bToY-410" value="" style="shape=partialRectangle;collapsible=0;dropTarget=0;pointerEvents=0;fillColor=none;points=[[0,0.5],[1,0.5]];portConstraint=eastwest;top=0;left=0;right=0;bottom=1;labelBackgroundColor=none;rounded=0;" parent="TOLBs5nu6_EnxWr0bToY-409" vertex="1">
          <mxGeometry y="30" width="250" height="30" as="geometry" />
        </mxCell>
        <mxCell id="TOLBs5nu6_EnxWr0bToY-411" value="PK" style="shape=partialRectangle;overflow=hidden;connectable=0;fillColor=none;top=0;left=0;bottom=0;right=0;fontStyle=1;labelBackgroundColor=none;rounded=0;" parent="TOLBs5nu6_EnxWr0bToY-410" vertex="1">
          <mxGeometry width="30" height="30" as="geometry">
            <mxRectangle width="30" height="30" as="alternateBounds" />
          </mxGeometry>
        </mxCell>
        <mxCell id="TOLBs5nu6_EnxWr0bToY-412" value="id_match(INT)" style="shape=partialRectangle;overflow=hidden;connectable=0;fillColor=none;top=0;left=0;bottom=0;right=0;align=left;spacingLeft=6;fontStyle=5;labelBackgroundColor=none;rounded=0;" parent="TOLBs5nu6_EnxWr0bToY-410" vertex="1">
          <mxGeometry x="30" width="220" height="30" as="geometry">
            <mxRectangle width="220" height="30" as="alternateBounds" />
          </mxGeometry>
        </mxCell>
        <mxCell id="TOLBs5nu6_EnxWr0bToY-413" value="" style="shape=partialRectangle;collapsible=0;dropTarget=0;pointerEvents=0;fillColor=none;points=[[0,0.5],[1,0.5]];portConstraint=eastwest;top=0;left=0;right=0;bottom=0;labelBackgroundColor=none;rounded=0;" parent="TOLBs5nu6_EnxWr0bToY-409" vertex="1">
          <mxGeometry y="60" width="250" height="30" as="geometry" />
        </mxCell>
        <mxCell id="TOLBs5nu6_EnxWr0bToY-414" value="" style="shape=partialRectangle;overflow=hidden;connectable=0;fillColor=none;top=0;left=0;bottom=0;right=0;labelBackgroundColor=none;rounded=0;" parent="TOLBs5nu6_EnxWr0bToY-413" vertex="1">
          <mxGeometry width="30" height="30" as="geometry">
            <mxRectangle width="30" height="30" as="alternateBounds" />
          </mxGeometry>
        </mxCell>
        <mxCell id="TOLBs5nu6_EnxWr0bToY-415" value="Fecha_match(DATE)" style="shape=partialRectangle;overflow=hidden;connectable=0;fillColor=none;top=0;left=0;bottom=0;right=0;align=left;spacingLeft=6;labelBackgroundColor=none;rounded=0;" parent="TOLBs5nu6_EnxWr0bToY-413" vertex="1">
          <mxGeometry x="30" width="220" height="30" as="geometry">
            <mxRectangle width="220" height="30" as="alternateBounds" />
          </mxGeometry>
        </mxCell>
        <mxCell id="TOLBs5nu6_EnxWr0bToY-416" value="" style="shape=partialRectangle;overflow=hidden;connectable=0;fillColor=none;top=0;left=0;bottom=0;right=0;align=left;spacingLeft=6;labelBackgroundColor=none;rounded=0;" parent="TOLBs5nu6_EnxWr0bToY-408" vertex="1">
          <mxGeometry x="30" y="90.00090909090912" width="220" height="31.363636363636363" as="geometry">
            <mxRectangle width="220" height="30" as="alternateBounds" />
          </mxGeometry>
        </mxCell>
        <mxCell id="TOLBs5nu6_EnxWr0bToY-419" value="Detalles(VARCHAR(100))" style="shape=partialRectangle;overflow=hidden;connectable=0;fillColor=none;top=0;left=0;bottom=0;right=0;align=left;spacingLeft=6;labelBackgroundColor=none;rounded=0;" parent="TOLBs5nu6_EnxWr0bToY-408" vertex="1">
          <mxGeometry x="30" y="90" width="220" height="30" as="geometry">
            <mxRectangle width="220" height="30" as="alternateBounds" />
          </mxGeometry>
        </mxCell>
        <mxCell id="TOLBs5nu6_EnxWr0bToY-420" value="" style="shape=partialRectangle;collapsible=0;dropTarget=0;pointerEvents=0;fillColor=none;points=[[0,0.5],[1,0.5]];portConstraint=eastwest;top=0;left=0;right=0;bottom=0;labelBackgroundColor=none;rounded=0;" parent="TOLBs5nu6_EnxWr0bToY-408" vertex="1">
          <mxGeometry y="120" width="250" height="30" as="geometry" />
        </mxCell>
        <mxCell id="TOLBs5nu6_EnxWr0bToY-421" value="FK" style="shape=partialRectangle;overflow=hidden;connectable=0;fillColor=none;top=0;left=0;bottom=0;right=0;labelBackgroundColor=none;rounded=0;" parent="TOLBs5nu6_EnxWr0bToY-420" vertex="1">
          <mxGeometry width="30" height="30" as="geometry">
            <mxRectangle width="30" height="30" as="alternateBounds" />
          </mxGeometry>
        </mxCell>
        <mxCell id="TOLBs5nu6_EnxWr0bToY-422" value="id_viaje(INT)" style="shape=partialRectangle;overflow=hidden;connectable=0;fillColor=none;top=0;left=0;bottom=0;right=0;align=left;spacingLeft=6;labelBackgroundColor=none;rounded=0;" parent="TOLBs5nu6_EnxWr0bToY-420" vertex="1">
          <mxGeometry x="30" width="220" height="30" as="geometry">
            <mxRectangle width="220" height="30" as="alternateBounds" />
          </mxGeometry>
        </mxCell>
        <mxCell id="TOLBs5nu6_EnxWr0bToY-417" value="" style="group;labelBackgroundColor=none;rounded=0;" parent="1" vertex="1" connectable="0">
          <mxGeometry x="840" y="720" width="250" height="190" as="geometry" />
        </mxCell>
        <mxCell id="TOLBs5nu6_EnxWr0bToY-302" value="Feed" style="shape=table;startSize=30;container=1;collapsible=1;childLayout=tableLayout;fixedRows=1;rowLines=0;fontStyle=1;align=center;resizeLast=1;labelBackgroundColor=none;rounded=0;" parent="TOLBs5nu6_EnxWr0bToY-417" vertex="1">
          <mxGeometry width="250" height="190" as="geometry" />
        </mxCell>
        <mxCell id="TOLBs5nu6_EnxWr0bToY-303" value="" style="shape=partialRectangle;collapsible=0;dropTarget=0;pointerEvents=0;fillColor=none;points=[[0,0.5],[1,0.5]];portConstraint=eastwest;top=0;left=0;right=0;bottom=1;labelBackgroundColor=none;rounded=0;" parent="TOLBs5nu6_EnxWr0bToY-302" vertex="1">
          <mxGeometry y="30" width="250" height="30" as="geometry" />
        </mxCell>
        <mxCell id="TOLBs5nu6_EnxWr0bToY-304" value="PK" style="shape=partialRectangle;overflow=hidden;connectable=0;fillColor=none;top=0;left=0;bottom=0;right=0;fontStyle=1;labelBackgroundColor=none;rounded=0;" parent="TOLBs5nu6_EnxWr0bToY-303" vertex="1">
          <mxGeometry width="30" height="30" as="geometry">
            <mxRectangle width="30" height="30" as="alternateBounds" />
          </mxGeometry>
        </mxCell>
        <mxCell id="TOLBs5nu6_EnxWr0bToY-305" value="id_feed(INT)" style="shape=partialRectangle;overflow=hidden;connectable=0;fillColor=none;top=0;left=0;bottom=0;right=0;align=left;spacingLeft=6;fontStyle=5;labelBackgroundColor=none;rounded=0;" parent="TOLBs5nu6_EnxWr0bToY-303" vertex="1">
          <mxGeometry x="30" width="220" height="30" as="geometry">
            <mxRectangle width="220" height="30" as="alternateBounds" />
          </mxGeometry>
        </mxCell>
        <mxCell id="TOLBs5nu6_EnxWr0bToY-306" value="" style="shape=partialRectangle;collapsible=0;dropTarget=0;pointerEvents=0;fillColor=none;points=[[0,0.5],[1,0.5]];portConstraint=eastwest;top=0;left=0;right=0;bottom=0;labelBackgroundColor=none;rounded=0;" parent="TOLBs5nu6_EnxWr0bToY-302" vertex="1">
          <mxGeometry y="60" width="250" height="30" as="geometry" />
        </mxCell>
        <mxCell id="TOLBs5nu6_EnxWr0bToY-307" value="" style="shape=partialRectangle;overflow=hidden;connectable=0;fillColor=none;top=0;left=0;bottom=0;right=0;labelBackgroundColor=none;rounded=0;" parent="TOLBs5nu6_EnxWr0bToY-306" vertex="1">
          <mxGeometry width="30" height="30" as="geometry">
            <mxRectangle width="30" height="30" as="alternateBounds" />
          </mxGeometry>
        </mxCell>
        <mxCell id="TOLBs5nu6_EnxWr0bToY-308" value="Descripcion(VARCHAR(100))" style="shape=partialRectangle;overflow=hidden;connectable=0;fillColor=none;top=0;left=0;bottom=0;right=0;align=left;spacingLeft=6;labelBackgroundColor=none;rounded=0;" parent="TOLBs5nu6_EnxWr0bToY-306" vertex="1">
          <mxGeometry x="30" width="220" height="30" as="geometry">
            <mxRectangle width="220" height="30" as="alternateBounds" />
          </mxGeometry>
        </mxCell>
        <mxCell id="TOLBs5nu6_EnxWr0bToY-311" value="Likes(INT)" style="shape=partialRectangle;overflow=hidden;connectable=0;fillColor=none;top=0;left=0;bottom=0;right=0;align=left;spacingLeft=6;labelBackgroundColor=none;rounded=0;" parent="TOLBs5nu6_EnxWr0bToY-417" vertex="1">
          <mxGeometry x="30" y="90" width="220" height="30" as="geometry">
            <mxRectangle width="220" height="30" as="alternateBounds" />
          </mxGeometry>
        </mxCell>
        <mxCell id="TOLBs5nu6_EnxWr0bToY-312" value="Fecha_publi(DATE)" style="shape=partialRectangle;overflow=hidden;connectable=0;fillColor=none;top=0;left=0;bottom=0;right=0;align=left;spacingLeft=6;labelBackgroundColor=none;rounded=0;" parent="TOLBs5nu6_EnxWr0bToY-417" vertex="1">
          <mxGeometry x="30" y="120" width="220" height="30" as="geometry">
            <mxRectangle width="220" height="30" as="alternateBounds" />
          </mxGeometry>
        </mxCell>
        <mxCell id="TOLBs5nu6_EnxWr0bToY-313" value="" style="shape=partialRectangle;collapsible=0;dropTarget=0;pointerEvents=0;fillColor=none;points=[[0,0.5],[1,0.5]];portConstraint=eastwest;top=0;left=0;right=0;bottom=0;labelBackgroundColor=none;rounded=0;" parent="TOLBs5nu6_EnxWr0bToY-417" vertex="1">
          <mxGeometry y="150" width="250" height="32.4" as="geometry" />
        </mxCell>
        <mxCell id="TOLBs5nu6_EnxWr0bToY-314" value="FK" style="shape=partialRectangle;overflow=hidden;connectable=0;fillColor=none;top=0;left=0;bottom=0;right=0;labelBackgroundColor=none;rounded=0;" parent="TOLBs5nu6_EnxWr0bToY-313" vertex="1">
          <mxGeometry width="30" height="32.4" as="geometry">
            <mxRectangle width="30" height="30" as="alternateBounds" />
          </mxGeometry>
        </mxCell>
        <mxCell id="TOLBs5nu6_EnxWr0bToY-315" value="id_usuario(INT)" style="shape=partialRectangle;overflow=hidden;connectable=0;fillColor=none;top=0;left=0;bottom=0;right=0;align=left;spacingLeft=6;labelBackgroundColor=none;rounded=0;" parent="TOLBs5nu6_EnxWr0bToY-313" vertex="1">
          <mxGeometry x="30" width="220" height="32.4" as="geometry">
            <mxRectangle width="220" height="30" as="alternateBounds" />
          </mxGeometry>
        </mxCell>
        <mxCell id="TOLBs5nu6_EnxWr0bToY-423" style="edgeStyle=orthogonalEdgeStyle;rounded=0;orthogonalLoop=1;jettySize=auto;html=1;entryX=1;entryY=0.5;entryDx=0;entryDy=0;endArrow=ERone;endFill=0;startArrow=ERmany;startFill=0;labelBackgroundColor=none;fontColor=default;" parent="1" source="TOLBs5nu6_EnxWr0bToY-420" target="TOLBs5nu6_EnxWr0bToY-117" edge="1">
          <mxGeometry relative="1" as="geometry">
            <Array as="points">
              <mxPoint x="1140" y="925" />
              <mxPoint x="1140" y="680" />
              <mxPoint x="1170" y="680" />
              <mxPoint x="1170" y="365" />
            </Array>
          </mxGeometry>
        </mxCell>
        <mxCell id="TOLBs5nu6_EnxWr0bToY-424" value="" style="group;labelBackgroundColor=none;rounded=0;" parent="1" vertex="1" connectable="0">
          <mxGeometry x="1270" y="580" width="250" height="160" as="geometry" />
        </mxCell>
        <mxCell id="TOLBs5nu6_EnxWr0bToY-434" value="" style="shape=partialRectangle;collapsible=0;dropTarget=0;pointerEvents=0;fillColor=none;points=[[0,0.5],[1,0.5]];portConstraint=eastwest;top=0;left=0;right=0;bottom=0;labelBackgroundColor=none;rounded=0;" parent="TOLBs5nu6_EnxWr0bToY-424" vertex="1">
          <mxGeometry y="60" width="250" height="30" as="geometry" />
        </mxCell>
        <mxCell id="TOLBs5nu6_EnxWr0bToY-435" value="FK" style="shape=partialRectangle;overflow=hidden;connectable=0;fillColor=none;top=0;left=0;bottom=0;right=0;labelBackgroundColor=none;rounded=0;" parent="TOLBs5nu6_EnxWr0bToY-434" vertex="1">
          <mxGeometry width="30" height="30" as="geometry">
            <mxRectangle width="30" height="30" as="alternateBounds" />
          </mxGeometry>
        </mxCell>
        <mxCell id="TOLBs5nu6_EnxWr0bToY-436" value="id_viaje(INT)" style="shape=partialRectangle;overflow=hidden;connectable=0;fillColor=none;top=0;left=0;bottom=0;right=0;align=left;spacingLeft=6;labelBackgroundColor=none;rounded=0;" parent="TOLBs5nu6_EnxWr0bToY-434" vertex="1">
          <mxGeometry x="30" width="220" height="30" as="geometry">
            <mxRectangle width="220" height="30" as="alternateBounds" />
          </mxGeometry>
        </mxCell>
        <mxCell id="TOLBs5nu6_EnxWr0bToY-437" style="edgeStyle=orthogonalEdgeStyle;rounded=0;orthogonalLoop=1;jettySize=auto;html=1;entryX=0.975;entryY=0.892;entryDx=0;entryDy=0;entryPerimeter=0;endArrow=ERone;endFill=0;startArrow=ERmany;startFill=0;labelBackgroundColor=none;fontColor=default;" parent="1" source="TOLBs5nu6_EnxWr0bToY-434" target="TOLBs5nu6_EnxWr0bToY-117" edge="1">
          <mxGeometry relative="1" as="geometry">
            <Array as="points">
              <mxPoint x="1180" y="655" />
              <mxPoint x="1180" y="377" />
            </Array>
          </mxGeometry>
        </mxCell>
        <mxCell id="TOLBs5nu6_EnxWr0bToY-425" value="Chats" style="shape=table;startSize=30;container=1;collapsible=1;childLayout=tableLayout;fixedRows=1;rowLines=0;fontStyle=1;align=center;resizeLast=1;labelBackgroundColor=none;rounded=0;" parent="1" vertex="1">
          <mxGeometry x="1270" y="580" width="250" height="100" as="geometry" />
        </mxCell>
        <mxCell id="TOLBs5nu6_EnxWr0bToY-426" value="" style="shape=partialRectangle;collapsible=0;dropTarget=0;pointerEvents=0;fillColor=none;points=[[0,0.5],[1,0.5]];portConstraint=eastwest;top=0;left=0;right=0;bottom=1;labelBackgroundColor=none;rounded=0;" parent="TOLBs5nu6_EnxWr0bToY-425" vertex="1">
          <mxGeometry y="30" width="250" height="30" as="geometry" />
        </mxCell>
        <mxCell id="TOLBs5nu6_EnxWr0bToY-427" value="PK" style="shape=partialRectangle;overflow=hidden;connectable=0;fillColor=none;top=0;left=0;bottom=0;right=0;fontStyle=1;labelBackgroundColor=none;rounded=0;" parent="TOLBs5nu6_EnxWr0bToY-426" vertex="1">
          <mxGeometry width="30" height="30" as="geometry">
            <mxRectangle width="30" height="30" as="alternateBounds" />
          </mxGeometry>
        </mxCell>
        <mxCell id="TOLBs5nu6_EnxWr0bToY-428" value="id_chat(INT)" style="shape=partialRectangle;overflow=hidden;connectable=0;fillColor=none;top=0;left=0;bottom=0;right=0;align=left;spacingLeft=6;fontStyle=5;labelBackgroundColor=none;rounded=0;" parent="TOLBs5nu6_EnxWr0bToY-426" vertex="1">
          <mxGeometry x="30" width="220" height="30" as="geometry">
            <mxRectangle width="220" height="30" as="alternateBounds" />
          </mxGeometry>
        </mxCell>
        <mxCell id="TOLBs5nu6_EnxWr0bToY-429" value="" style="shape=partialRectangle;collapsible=0;dropTarget=0;pointerEvents=0;fillColor=none;points=[[0,0.5],[1,0.5]];portConstraint=eastwest;top=0;left=0;right=0;bottom=0;labelBackgroundColor=none;rounded=0;" parent="TOLBs5nu6_EnxWr0bToY-425" vertex="1">
          <mxGeometry y="60" width="250" height="30" as="geometry" />
        </mxCell>
        <mxCell id="TOLBs5nu6_EnxWr0bToY-430" value="" style="shape=partialRectangle;overflow=hidden;connectable=0;fillColor=none;top=0;left=0;bottom=0;right=0;labelBackgroundColor=none;rounded=0;" parent="TOLBs5nu6_EnxWr0bToY-429" vertex="1">
          <mxGeometry width="30" height="30" as="geometry">
            <mxRectangle width="30" height="30" as="alternateBounds" />
          </mxGeometry>
        </mxCell>
        <mxCell id="TOLBs5nu6_EnxWr0bToY-431" value="" style="shape=partialRectangle;overflow=hidden;connectable=0;fillColor=none;top=0;left=0;bottom=0;right=0;align=left;spacingLeft=6;labelBackgroundColor=none;rounded=0;" parent="TOLBs5nu6_EnxWr0bToY-429" vertex="1">
          <mxGeometry x="30" width="220" height="30" as="geometry">
            <mxRectangle width="220" height="30" as="alternateBounds" />
          </mxGeometry>
        </mxCell>
        <mxCell id="TOLBs5nu6_EnxWr0bToY-469" value="" style="group;labelBackgroundColor=none;rounded=0;" parent="1" vertex="1" connectable="0">
          <mxGeometry x="1660" y="541.2" width="260" height="130" as="geometry" />
        </mxCell>
        <mxCell id="TOLBs5nu6_EnxWr0bToY-440" value="Comentarios" style="shape=table;startSize=30;container=1;collapsible=1;childLayout=tableLayout;fixedRows=1;rowLines=0;fontStyle=1;align=center;resizeLast=1;labelBackgroundColor=none;rounded=0;" parent="TOLBs5nu6_EnxWr0bToY-469" vertex="1">
          <mxGeometry x="10" y="10" width="250" height="120" as="geometry" />
        </mxCell>
        <mxCell id="TOLBs5nu6_EnxWr0bToY-441" value="" style="shape=partialRectangle;collapsible=0;dropTarget=0;pointerEvents=0;fillColor=none;points=[[0,0.5],[1,0.5]];portConstraint=eastwest;top=0;left=0;right=0;bottom=1;labelBackgroundColor=none;rounded=0;" parent="TOLBs5nu6_EnxWr0bToY-440" vertex="1">
          <mxGeometry y="30" width="250" height="30" as="geometry" />
        </mxCell>
        <mxCell id="TOLBs5nu6_EnxWr0bToY-442" value="PK" style="shape=partialRectangle;overflow=hidden;connectable=0;fillColor=none;top=0;left=0;bottom=0;right=0;fontStyle=1;labelBackgroundColor=none;rounded=0;" parent="TOLBs5nu6_EnxWr0bToY-441" vertex="1">
          <mxGeometry width="30" height="30" as="geometry">
            <mxRectangle width="30" height="30" as="alternateBounds" />
          </mxGeometry>
        </mxCell>
        <mxCell id="TOLBs5nu6_EnxWr0bToY-443" value="id_comentario(INT)" style="shape=partialRectangle;overflow=hidden;connectable=0;fillColor=none;top=0;left=0;bottom=0;right=0;align=left;spacingLeft=6;fontStyle=5;labelBackgroundColor=none;rounded=0;" parent="TOLBs5nu6_EnxWr0bToY-441" vertex="1">
          <mxGeometry x="30" width="220" height="30" as="geometry">
            <mxRectangle width="220" height="30" as="alternateBounds" />
          </mxGeometry>
        </mxCell>
        <mxCell id="TOLBs5nu6_EnxWr0bToY-444" value="" style="shape=partialRectangle;collapsible=0;dropTarget=0;pointerEvents=0;fillColor=none;points=[[0,0.5],[1,0.5]];portConstraint=eastwest;top=0;left=0;right=0;bottom=0;labelBackgroundColor=none;rounded=0;" parent="TOLBs5nu6_EnxWr0bToY-440" vertex="1">
          <mxGeometry y="60" width="250" height="30" as="geometry" />
        </mxCell>
        <mxCell id="TOLBs5nu6_EnxWr0bToY-445" value="" style="shape=partialRectangle;overflow=hidden;connectable=0;fillColor=none;top=0;left=0;bottom=0;right=0;labelBackgroundColor=none;rounded=0;" parent="TOLBs5nu6_EnxWr0bToY-444" vertex="1">
          <mxGeometry width="30" height="30" as="geometry">
            <mxRectangle width="30" height="30" as="alternateBounds" />
          </mxGeometry>
        </mxCell>
        <mxCell id="TOLBs5nu6_EnxWr0bToY-446" value="Hora(DATETIME)" style="shape=partialRectangle;overflow=hidden;connectable=0;fillColor=none;top=0;left=0;bottom=0;right=0;align=left;spacingLeft=6;labelBackgroundColor=none;rounded=0;" parent="TOLBs5nu6_EnxWr0bToY-444" vertex="1">
          <mxGeometry x="30" width="220" height="30" as="geometry">
            <mxRectangle width="220" height="30" as="alternateBounds" />
          </mxGeometry>
        </mxCell>
        <mxCell id="TOLBs5nu6_EnxWr0bToY-447" value="" style="shape=partialRectangle;collapsible=0;dropTarget=0;pointerEvents=0;fillColor=none;points=[[0,0.5],[1,0.5]];portConstraint=eastwest;top=0;left=0;right=0;bottom=0;labelBackgroundColor=none;rounded=0;" parent="TOLBs5nu6_EnxWr0bToY-469" vertex="1">
          <mxGeometry y="90" width="250" height="30" as="geometry" />
        </mxCell>
        <mxCell id="TOLBs5nu6_EnxWr0bToY-448" value="" style="shape=partialRectangle;overflow=hidden;connectable=0;fillColor=none;top=0;left=0;bottom=0;right=0;labelBackgroundColor=none;rounded=0;" parent="TOLBs5nu6_EnxWr0bToY-447" vertex="1">
          <mxGeometry width="30" height="30" as="geometry">
            <mxRectangle width="30" height="30" as="alternateBounds" />
          </mxGeometry>
        </mxCell>
        <mxCell id="TOLBs5nu6_EnxWr0bToY-449" value="" style="shape=partialRectangle;overflow=hidden;connectable=0;fillColor=none;top=0;left=0;bottom=0;right=0;align=left;spacingLeft=6;labelBackgroundColor=none;rounded=0;" parent="TOLBs5nu6_EnxWr0bToY-447" vertex="1">
          <mxGeometry x="30" width="220" height="30" as="geometry">
            <mxRectangle width="220" height="30" as="alternateBounds" />
          </mxGeometry>
        </mxCell>
        <mxCell id="TOLBs5nu6_EnxWr0bToY-450" value="" style="shape=partialRectangle;collapsible=0;dropTarget=0;pointerEvents=0;fillColor=none;points=[[0,0.5],[1,0.5]];portConstraint=eastwest;top=0;left=0;right=0;bottom=0;labelBackgroundColor=none;rounded=0;" parent="TOLBs5nu6_EnxWr0bToY-469" vertex="1">
          <mxGeometry x="10" y="95" width="250" height="30" as="geometry" />
        </mxCell>
        <mxCell id="TOLBs5nu6_EnxWr0bToY-451" value="FK" style="shape=partialRectangle;overflow=hidden;connectable=0;fillColor=none;top=0;left=0;bottom=0;right=0;labelBackgroundColor=none;rounded=0;" parent="TOLBs5nu6_EnxWr0bToY-450" vertex="1">
          <mxGeometry width="30" height="30" as="geometry">
            <mxRectangle width="30" height="30" as="alternateBounds" />
          </mxGeometry>
        </mxCell>
        <mxCell id="TOLBs5nu6_EnxWr0bToY-452" value="id_chat(INT)" style="shape=partialRectangle;overflow=hidden;connectable=0;fillColor=none;top=0;left=0;bottom=0;right=0;align=left;spacingLeft=6;labelBackgroundColor=none;rounded=0;" parent="TOLBs5nu6_EnxWr0bToY-450" vertex="1">
          <mxGeometry x="30" width="220" height="30" as="geometry">
            <mxRectangle width="220" height="30" as="alternateBounds" />
          </mxGeometry>
        </mxCell>
        <mxCell id="TOLBs5nu6_EnxWr0bToY-470" style="edgeStyle=orthogonalEdgeStyle;rounded=0;orthogonalLoop=1;jettySize=auto;html=1;entryX=0;entryY=0.5;entryDx=0;entryDy=0;endArrow=ERmany;endFill=0;startArrow=ERone;startFill=0;labelBackgroundColor=none;fontColor=default;" parent="1" source="TOLBs5nu6_EnxWr0bToY-426" target="TOLBs5nu6_EnxWr0bToY-450" edge="1">
          <mxGeometry relative="1" as="geometry">
            <Array as="points">
              <mxPoint x="1590" y="625" />
              <mxPoint x="1590" y="651" />
            </Array>
          </mxGeometry>
        </mxCell>
        <mxCell id="TOLBs5nu6_EnxWr0bToY-471" value="" style="group;labelBackgroundColor=none;rounded=0;" parent="1" vertex="1" connectable="0">
          <mxGeometry x="1640" y="260" width="260" height="260" as="geometry" />
        </mxCell>
        <mxCell id="TOLBs5nu6_EnxWr0bToY-498" value="" style="group;labelBackgroundColor=none;rounded=0;" parent="TOLBs5nu6_EnxWr0bToY-471" vertex="1" connectable="0">
          <mxGeometry y="15.38" width="260" height="210.77769230769232" as="geometry" />
        </mxCell>
        <mxCell id="TOLBs5nu6_EnxWr0bToY-472" value="Calificaiones" style="shape=table;startSize=30;container=1;collapsible=1;childLayout=tableLayout;fixedRows=1;rowLines=0;fontStyle=1;align=center;resizeLast=1;labelBackgroundColor=none;rounded=0;" parent="TOLBs5nu6_EnxWr0bToY-498" vertex="1">
          <mxGeometry x="10" width="250" height="204.62" as="geometry" />
        </mxCell>
        <mxCell id="TOLBs5nu6_EnxWr0bToY-473" value="" style="shape=partialRectangle;collapsible=0;dropTarget=0;pointerEvents=0;fillColor=none;points=[[0,0.5],[1,0.5]];portConstraint=eastwest;top=0;left=0;right=0;bottom=1;labelBackgroundColor=none;rounded=0;" parent="TOLBs5nu6_EnxWr0bToY-472" vertex="1">
          <mxGeometry y="30" width="250" height="30" as="geometry" />
        </mxCell>
        <mxCell id="TOLBs5nu6_EnxWr0bToY-474" value="PK" style="shape=partialRectangle;overflow=hidden;connectable=0;fillColor=none;top=0;left=0;bottom=0;right=0;fontStyle=1;labelBackgroundColor=none;rounded=0;" parent="TOLBs5nu6_EnxWr0bToY-473" vertex="1">
          <mxGeometry width="30" height="30" as="geometry">
            <mxRectangle width="30" height="30" as="alternateBounds" />
          </mxGeometry>
        </mxCell>
        <mxCell id="TOLBs5nu6_EnxWr0bToY-475" value="id_calificacion(INT)" style="shape=partialRectangle;overflow=hidden;connectable=0;fillColor=none;top=0;left=0;bottom=0;right=0;align=left;spacingLeft=6;fontStyle=5;labelBackgroundColor=none;rounded=0;" parent="TOLBs5nu6_EnxWr0bToY-473" vertex="1">
          <mxGeometry x="30" width="220" height="30" as="geometry">
            <mxRectangle width="220" height="30" as="alternateBounds" />
          </mxGeometry>
        </mxCell>
        <mxCell id="TOLBs5nu6_EnxWr0bToY-476" value="" style="shape=partialRectangle;collapsible=0;dropTarget=0;pointerEvents=0;fillColor=none;points=[[0,0.5],[1,0.5]];portConstraint=eastwest;top=0;left=0;right=0;bottom=0;labelBackgroundColor=none;rounded=0;" parent="TOLBs5nu6_EnxWr0bToY-472" vertex="1">
          <mxGeometry y="60" width="250" height="30" as="geometry" />
        </mxCell>
        <mxCell id="TOLBs5nu6_EnxWr0bToY-477" value="" style="shape=partialRectangle;overflow=hidden;connectable=0;fillColor=none;top=0;left=0;bottom=0;right=0;labelBackgroundColor=none;rounded=0;" parent="TOLBs5nu6_EnxWr0bToY-476" vertex="1">
          <mxGeometry width="30" height="30" as="geometry">
            <mxRectangle width="30" height="30" as="alternateBounds" />
          </mxGeometry>
        </mxCell>
        <mxCell id="TOLBs5nu6_EnxWr0bToY-478" value="Nombre(VARCHAR(20))" style="shape=partialRectangle;overflow=hidden;connectable=0;fillColor=none;top=0;left=0;bottom=0;right=0;align=left;spacingLeft=6;labelBackgroundColor=none;rounded=0;" parent="TOLBs5nu6_EnxWr0bToY-476" vertex="1">
          <mxGeometry x="30" width="220" height="30" as="geometry">
            <mxRectangle width="220" height="30" as="alternateBounds" />
          </mxGeometry>
        </mxCell>
        <mxCell id="TOLBs5nu6_EnxWr0bToY-479" value="" style="shape=partialRectangle;collapsible=0;dropTarget=0;pointerEvents=0;fillColor=none;points=[[0,0.5],[1,0.5]];portConstraint=eastwest;top=0;left=0;right=0;bottom=0;labelBackgroundColor=none;rounded=0;" parent="TOLBs5nu6_EnxWr0bToY-498" vertex="1">
          <mxGeometry y="123.08153846153849" width="250" height="46.15384615384615" as="geometry" />
        </mxCell>
        <mxCell id="TOLBs5nu6_EnxWr0bToY-480" value="" style="shape=partialRectangle;overflow=hidden;connectable=0;fillColor=none;top=0;left=0;bottom=0;right=0;labelBackgroundColor=none;rounded=0;" parent="TOLBs5nu6_EnxWr0bToY-479" vertex="1">
          <mxGeometry width="30" height="46.15384615384615" as="geometry">
            <mxRectangle width="30" height="30" as="alternateBounds" />
          </mxGeometry>
        </mxCell>
        <mxCell id="TOLBs5nu6_EnxWr0bToY-481" value="" style="shape=partialRectangle;overflow=hidden;connectable=0;fillColor=none;top=0;left=0;bottom=0;right=0;align=left;spacingLeft=6;labelBackgroundColor=none;rounded=0;" parent="TOLBs5nu6_EnxWr0bToY-479" vertex="1">
          <mxGeometry x="30" width="220" height="46.15384615384615" as="geometry">
            <mxRectangle width="220" height="30" as="alternateBounds" />
          </mxGeometry>
        </mxCell>
        <mxCell id="TOLBs5nu6_EnxWr0bToY-482" value="" style="shape=partialRectangle;collapsible=0;dropTarget=0;pointerEvents=0;fillColor=none;points=[[0,0.5],[1,0.5]];portConstraint=eastwest;top=0;left=0;right=0;bottom=0;labelBackgroundColor=none;rounded=0;" parent="TOLBs5nu6_EnxWr0bToY-498" vertex="1">
          <mxGeometry x="10" y="164.62384615384616" width="250" height="46.15384615384615" as="geometry" />
        </mxCell>
        <mxCell id="TOLBs5nu6_EnxWr0bToY-483" value="FK" style="shape=partialRectangle;overflow=hidden;connectable=0;fillColor=none;top=0;left=0;bottom=0;right=0;labelBackgroundColor=none;rounded=0;" parent="TOLBs5nu6_EnxWr0bToY-482" vertex="1">
          <mxGeometry width="30" height="46.15384615384615" as="geometry">
            <mxRectangle width="30" height="30" as="alternateBounds" />
          </mxGeometry>
        </mxCell>
        <mxCell id="TOLBs5nu6_EnxWr0bToY-484" value="id_viaje(INT)" style="shape=partialRectangle;overflow=hidden;connectable=0;fillColor=none;top=0;left=0;bottom=0;right=0;align=left;spacingLeft=6;labelBackgroundColor=none;rounded=0;" parent="TOLBs5nu6_EnxWr0bToY-482" vertex="1">
          <mxGeometry x="30" width="220" height="46.15384615384615" as="geometry">
            <mxRectangle width="220" height="30" as="alternateBounds" />
          </mxGeometry>
        </mxCell>
        <mxCell id="TOLBs5nu6_EnxWr0bToY-485" value="Puntuacion(INT)" style="shape=partialRectangle;overflow=hidden;connectable=0;fillColor=none;top=0;left=0;bottom=0;right=0;align=left;spacingLeft=6;labelBackgroundColor=none;rounded=0;" parent="TOLBs5nu6_EnxWr0bToY-498" vertex="1">
          <mxGeometry x="40" y="84.62461538461537" width="220" height="30" as="geometry">
            <mxRectangle width="220" height="30" as="alternateBounds" />
          </mxGeometry>
        </mxCell>
        <mxCell id="TOLBs5nu6_EnxWr0bToY-486" value="Reseña(VARCHAR(1000))" style="shape=partialRectangle;overflow=hidden;connectable=0;fillColor=none;top=0;left=0;bottom=0;right=0;align=left;spacingLeft=6;labelBackgroundColor=none;rounded=0;" parent="TOLBs5nu6_EnxWr0bToY-498" vertex="1">
          <mxGeometry x="40" y="114.62461538461537" width="220" height="30" as="geometry">
            <mxRectangle width="220" height="30" as="alternateBounds" />
          </mxGeometry>
        </mxCell>
        <mxCell id="TOLBs5nu6_EnxWr0bToY-501" value="" style="shape=partialRectangle;collapsible=0;dropTarget=0;pointerEvents=0;fillColor=none;points=[[0,0.5],[1,0.5]];portConstraint=eastwest;top=0;left=0;right=0;bottom=0;labelBackgroundColor=none;rounded=0;" parent="TOLBs5nu6_EnxWr0bToY-498" vertex="1">
          <mxGeometry x="10" y="134.62384615384616" width="250" height="46.15384615384615" as="geometry" />
        </mxCell>
        <mxCell id="TOLBs5nu6_EnxWr0bToY-502" value="FK" style="shape=partialRectangle;overflow=hidden;connectable=0;fillColor=none;top=0;left=0;bottom=0;right=0;labelBackgroundColor=none;rounded=0;" parent="TOLBs5nu6_EnxWr0bToY-501" vertex="1">
          <mxGeometry width="30" height="46.15384615384615" as="geometry">
            <mxRectangle width="30" height="30" as="alternateBounds" />
          </mxGeometry>
        </mxCell>
        <mxCell id="TOLBs5nu6_EnxWr0bToY-503" value="id_tipo_calificacion(INT)" style="shape=partialRectangle;overflow=hidden;connectable=0;fillColor=none;top=0;left=0;bottom=0;right=0;align=left;spacingLeft=6;labelBackgroundColor=none;rounded=0;" parent="TOLBs5nu6_EnxWr0bToY-501" vertex="1">
          <mxGeometry x="30" width="220" height="46.15384615384615" as="geometry">
            <mxRectangle width="220" height="30" as="alternateBounds" />
          </mxGeometry>
        </mxCell>
        <mxCell id="TOLBs5nu6_EnxWr0bToY-495" style="edgeStyle=orthogonalEdgeStyle;rounded=0;orthogonalLoop=1;jettySize=auto;html=1;entryX=0;entryY=0.5;entryDx=0;entryDy=0;startArrow=ERone;startFill=0;endArrow=ERmany;endFill=0;labelBackgroundColor=none;fontColor=default;" parent="1" source="TOLBs5nu6_EnxWr0bToY-117" target="TOLBs5nu6_EnxWr0bToY-482" edge="1">
          <mxGeometry relative="1" as="geometry">
            <Array as="points">
              <mxPoint x="1590" y="365" />
            </Array>
          </mxGeometry>
        </mxCell>
        <mxCell id="TOLBs5nu6_EnxWr0bToY-504" style="edgeStyle=orthogonalEdgeStyle;rounded=0;orthogonalLoop=1;jettySize=auto;html=1;entryX=0;entryY=0.5;entryDx=0;entryDy=0;startArrow=ERone;startFill=0;endArrow=ERmany;endFill=0;labelBackgroundColor=none;fontColor=default;" parent="1" source="TOLBs5nu6_EnxWr0bToY-501" target="TOLBs5nu6_EnxWr0bToY-489" edge="1">
          <mxGeometry relative="1" as="geometry" />
        </mxCell>
        <mxCell id="mYwCcXJ4D1W0WyXVsucd-27" style="edgeStyle=orthogonalEdgeStyle;rounded=0;orthogonalLoop=1;jettySize=auto;html=1;entryX=0;entryY=0.5;entryDx=0;entryDy=0;startArrow=ERmany;startFill=0;endArrow=ERone;endFill=0;labelBackgroundColor=none;fontColor=default;" parent="1" source="C-vyLk0tnHw3VtMMgP7b-3" target="Y1GvVrHPXR3qDruFsFM_-12" edge="1">
          <mxGeometry relative="1" as="geometry">
            <Array as="points">
              <mxPoint x="300" y="15" />
              <mxPoint x="300" y="-232" />
            </Array>
          </mxGeometry>
        </mxCell>
        <mxCell id="rWbLGAuyZA22XuX0GYQ3-5" style="edgeStyle=orthogonalEdgeStyle;rounded=0;orthogonalLoop=1;jettySize=auto;html=1;startArrow=ERone;startFill=0;endArrow=ERmany;endFill=0;labelBackgroundColor=none;fontColor=default;" parent="1" source="C-vyLk0tnHw3VtMMgP7b-3" target="TOLBs5nu6_EnxWr0bToY-129" edge="1">
          <mxGeometry relative="1" as="geometry" />
        </mxCell>
        <mxCell id="rWbLGAuyZA22XuX0GYQ3-13" style="edgeStyle=orthogonalEdgeStyle;rounded=0;orthogonalLoop=1;jettySize=auto;html=1;startArrow=ERmany;startFill=0;endArrow=ERone;endFill=0;labelBackgroundColor=none;fontColor=default;" parent="1" source="TOLBs5nu6_EnxWr0bToY-313" target="C-vyLk0tnHw3VtMMgP7b-3" edge="1">
          <mxGeometry relative="1" as="geometry">
            <mxPoint x="10" y="199.92000000000002" as="targetPoint" />
            <mxPoint x="829.9200000000004" y="806.1199999999998" as="sourcePoint" />
            <Array as="points">
              <mxPoint x="830" y="886" />
              <mxPoint x="830" y="1220" />
              <mxPoint x="-170" y="1220" />
              <mxPoint x="-170" y="15" />
            </Array>
          </mxGeometry>
        </mxCell>
        <mxCell id="CebgWtoxqL0oEvkaD0D5-1" value="" style="group;labelBackgroundColor=none;rounded=0;" parent="1" vertex="1" connectable="0">
          <mxGeometry x="160" y="921.2" width="250" height="150" as="geometry" />
        </mxCell>
        <mxCell id="CebgWtoxqL0oEvkaD0D5-2" value="Usuario_gustos" style="shape=table;startSize=30;container=1;collapsible=1;childLayout=tableLayout;fixedRows=1;rowLines=0;fontStyle=1;align=center;resizeLast=1;labelBackgroundColor=none;rounded=0;" parent="CebgWtoxqL0oEvkaD0D5-1" vertex="1">
          <mxGeometry width="250" height="150" as="geometry" />
        </mxCell>
        <mxCell id="CebgWtoxqL0oEvkaD0D5-3" value="" style="shape=partialRectangle;collapsible=0;dropTarget=0;pointerEvents=0;fillColor=none;points=[[0,0.5],[1,0.5]];portConstraint=eastwest;top=0;left=0;right=0;bottom=1;labelBackgroundColor=none;rounded=0;" parent="CebgWtoxqL0oEvkaD0D5-2" vertex="1">
          <mxGeometry y="30" width="250" height="30" as="geometry" />
        </mxCell>
        <mxCell id="CebgWtoxqL0oEvkaD0D5-4" value="PK" style="shape=partialRectangle;overflow=hidden;connectable=0;fillColor=none;top=0;left=0;bottom=0;right=0;fontStyle=1;labelBackgroundColor=none;rounded=0;" parent="CebgWtoxqL0oEvkaD0D5-3" vertex="1">
          <mxGeometry width="30" height="30" as="geometry">
            <mxRectangle width="30" height="30" as="alternateBounds" />
          </mxGeometry>
        </mxCell>
        <mxCell id="CebgWtoxqL0oEvkaD0D5-5" value="id_usuario_gusto" style="shape=partialRectangle;overflow=hidden;connectable=0;fillColor=none;top=0;left=0;bottom=0;right=0;align=left;spacingLeft=6;fontStyle=5;labelBackgroundColor=none;rounded=0;" parent="CebgWtoxqL0oEvkaD0D5-3" vertex="1">
          <mxGeometry x="30" width="220" height="30" as="geometry">
            <mxRectangle width="220" height="30" as="alternateBounds" />
          </mxGeometry>
        </mxCell>
        <mxCell id="CebgWtoxqL0oEvkaD0D5-6" value="" style="shape=partialRectangle;collapsible=0;dropTarget=0;pointerEvents=0;fillColor=none;points=[[0,0.5],[1,0.5]];portConstraint=eastwest;top=0;left=0;right=0;bottom=0;labelBackgroundColor=none;rounded=0;" parent="CebgWtoxqL0oEvkaD0D5-2" vertex="1">
          <mxGeometry y="60" width="250" height="30" as="geometry" />
        </mxCell>
        <mxCell id="CebgWtoxqL0oEvkaD0D5-7" value="" style="shape=partialRectangle;overflow=hidden;connectable=0;fillColor=none;top=0;left=0;bottom=0;right=0;labelBackgroundColor=none;rounded=0;" parent="CebgWtoxqL0oEvkaD0D5-6" vertex="1">
          <mxGeometry width="30" height="30" as="geometry">
            <mxRectangle width="30" height="30" as="alternateBounds" />
          </mxGeometry>
        </mxCell>
        <mxCell id="CebgWtoxqL0oEvkaD0D5-8" value="id_usuario(INT)" style="shape=partialRectangle;overflow=hidden;connectable=0;fillColor=none;top=0;left=0;bottom=0;right=0;align=left;spacingLeft=6;labelBackgroundColor=none;rounded=0;" parent="CebgWtoxqL0oEvkaD0D5-6" vertex="1">
          <mxGeometry x="30" width="220" height="30" as="geometry">
            <mxRectangle width="220" height="30" as="alternateBounds" />
          </mxGeometry>
        </mxCell>
        <mxCell id="CebgWtoxqL0oEvkaD0D5-9" value="" style="shape=partialRectangle;collapsible=0;dropTarget=0;pointerEvents=0;fillColor=none;points=[[0,0.5],[1,0.5]];portConstraint=eastwest;top=0;left=0;right=0;bottom=0;labelBackgroundColor=none;rounded=0;" parent="CebgWtoxqL0oEvkaD0D5-1" vertex="1">
          <mxGeometry y="90" width="250" height="30" as="geometry" />
        </mxCell>
        <mxCell id="CebgWtoxqL0oEvkaD0D5-10" value="FK" style="shape=partialRectangle;overflow=hidden;connectable=0;fillColor=none;top=0;left=0;bottom=0;right=0;labelBackgroundColor=none;rounded=0;" parent="CebgWtoxqL0oEvkaD0D5-9" vertex="1">
          <mxGeometry width="30" height="30" as="geometry">
            <mxRectangle width="30" height="30" as="alternateBounds" />
          </mxGeometry>
        </mxCell>
        <mxCell id="CebgWtoxqL0oEvkaD0D5-11" value="" style="shape=partialRectangle;overflow=hidden;connectable=0;fillColor=none;top=0;left=0;bottom=0;right=0;align=left;spacingLeft=6;labelBackgroundColor=none;rounded=0;" parent="CebgWtoxqL0oEvkaD0D5-9" vertex="1">
          <mxGeometry x="30" width="220" height="30" as="geometry">
            <mxRectangle width="220" height="30" as="alternateBounds" />
          </mxGeometry>
        </mxCell>
        <mxCell id="CebgWtoxqL0oEvkaD0D5-12" value="" style="shape=partialRectangle;collapsible=0;dropTarget=0;pointerEvents=0;fillColor=none;points=[[0,0.5],[1,0.5]];portConstraint=eastwest;top=0;left=0;right=0;bottom=0;labelBackgroundColor=none;rounded=0;" parent="CebgWtoxqL0oEvkaD0D5-1" vertex="1">
          <mxGeometry y="120" width="250" height="30" as="geometry" />
        </mxCell>
        <mxCell id="CebgWtoxqL0oEvkaD0D5-13" value="" style="shape=partialRectangle;overflow=hidden;connectable=0;fillColor=none;top=0;left=0;bottom=0;right=0;labelBackgroundColor=none;rounded=0;" parent="CebgWtoxqL0oEvkaD0D5-12" vertex="1">
          <mxGeometry width="30" height="30" as="geometry">
            <mxRectangle width="30" height="30" as="alternateBounds" />
          </mxGeometry>
        </mxCell>
        <mxCell id="CebgWtoxqL0oEvkaD0D5-14" value="" style="shape=partialRectangle;overflow=hidden;connectable=0;fillColor=none;top=0;left=0;bottom=0;right=0;align=left;spacingLeft=6;labelBackgroundColor=none;rounded=0;" parent="CebgWtoxqL0oEvkaD0D5-12" vertex="1">
          <mxGeometry x="30" width="220" height="30" as="geometry">
            <mxRectangle width="220" height="30" as="alternateBounds" />
          </mxGeometry>
        </mxCell>
        <mxCell id="CebgWtoxqL0oEvkaD0D5-17" value="id_gusto(INT)" style="shape=partialRectangle;overflow=hidden;connectable=0;fillColor=none;top=0;left=0;bottom=0;right=0;align=left;spacingLeft=6;labelBackgroundColor=none;rounded=0;" parent="CebgWtoxqL0oEvkaD0D5-1" vertex="1">
          <mxGeometry x="30" y="90" width="220" height="30" as="geometry">
            <mxRectangle width="220" height="30" as="alternateBounds" />
          </mxGeometry>
        </mxCell>
        <mxCell id="CebgWtoxqL0oEvkaD0D5-15" value="" style="shape=partialRectangle;collapsible=0;dropTarget=0;pointerEvents=0;fillColor=none;points=[[0,0.5],[1,0.5]];portConstraint=eastwest;top=0;left=0;right=0;bottom=0;labelBackgroundColor=none;rounded=0;" parent="1" vertex="1">
          <mxGeometry x="160" y="980" width="250" height="32.4" as="geometry" />
        </mxCell>
        <mxCell id="CebgWtoxqL0oEvkaD0D5-16" value="FK" style="shape=partialRectangle;overflow=hidden;connectable=0;fillColor=none;top=0;left=0;bottom=0;right=0;labelBackgroundColor=none;rounded=0;" parent="CebgWtoxqL0oEvkaD0D5-15" vertex="1">
          <mxGeometry width="30" height="32.4" as="geometry">
            <mxRectangle width="30" height="30" as="alternateBounds" />
          </mxGeometry>
        </mxCell>
        <mxCell id="CebgWtoxqL0oEvkaD0D5-18" style="edgeStyle=orthogonalEdgeStyle;rounded=0;orthogonalLoop=1;jettySize=auto;html=1;startArrow=ERmany;startFill=0;endArrow=ERone;endFill=0;labelBackgroundColor=none;fontColor=default;" parent="1" source="CebgWtoxqL0oEvkaD0D5-6" target="C-vyLk0tnHw3VtMMgP7b-3" edge="1">
          <mxGeometry relative="1" as="geometry">
            <Array as="points">
              <mxPoint x="430" y="995" />
              <mxPoint x="430" y="660" />
              <mxPoint x="380" y="660" />
              <mxPoint x="380" y="15" />
            </Array>
          </mxGeometry>
        </mxCell>
        <mxCell id="CebgWtoxqL0oEvkaD0D5-20" style="edgeStyle=orthogonalEdgeStyle;rounded=0;orthogonalLoop=1;jettySize=auto;html=1;startArrow=ERone;startFill=0;endArrow=ERmany;endFill=0;labelBackgroundColor=none;fontColor=default;" parent="1" source="TOLBs5nu6_EnxWr0bToY-73" target="CebgWtoxqL0oEvkaD0D5-9" edge="1">
          <mxGeometry relative="1" as="geometry" />
        </mxCell>
        <mxCell id="4ngdB6riOOxADxfWitAE-2" value="" style="group;labelBackgroundColor=none;rounded=0;" parent="1" vertex="1" connectable="0">
          <mxGeometry x="360" y="-440" width="268.18" height="252.91" as="geometry" />
        </mxCell>
        <mxCell id="Y1GvVrHPXR3qDruFsFM_-15" value="" style="group;labelBackgroundColor=none;rounded=0;" parent="4ngdB6riOOxADxfWitAE-2" vertex="1" connectable="0">
          <mxGeometry y="12.906085201865714" width="250.00404931812537" height="240.00391479813428" as="geometry" />
        </mxCell>
        <mxCell id="mYwCcXJ4D1W0WyXVsucd-4" value="" style="group;labelBackgroundColor=none;rounded=0;" parent="Y1GvVrHPXR3qDruFsFM_-15" vertex="1" connectable="0">
          <mxGeometry width="250.00404931812537" height="240.00391479813428" as="geometry" />
        </mxCell>
        <mxCell id="Y1GvVrHPXR3qDruFsFM_-2" value="Membresias" style="shape=table;startSize=30;container=1;collapsible=1;childLayout=tableLayout;fixedRows=1;rowLines=0;fontStyle=1;align=center;resizeLast=1;labelBackgroundColor=none;rounded=0;" parent="mYwCcXJ4D1W0WyXVsucd-4" vertex="1">
          <mxGeometry width="250.00404931812537" height="240.00391479813428" as="geometry" />
        </mxCell>
        <mxCell id="Y1GvVrHPXR3qDruFsFM_-3" value="" style="shape=partialRectangle;collapsible=0;dropTarget=0;pointerEvents=0;fillColor=none;points=[[0,0.5],[1,0.5]];portConstraint=eastwest;top=0;left=0;right=0;bottom=1;labelBackgroundColor=none;rounded=0;" parent="Y1GvVrHPXR3qDruFsFM_-2" vertex="1">
          <mxGeometry y="30" width="250.00404931812537" height="30" as="geometry" />
        </mxCell>
        <mxCell id="Y1GvVrHPXR3qDruFsFM_-4" value="PK" style="shape=partialRectangle;overflow=hidden;connectable=0;fillColor=none;top=0;left=0;bottom=0;right=0;fontStyle=1;labelBackgroundColor=none;rounded=0;" parent="Y1GvVrHPXR3qDruFsFM_-3" vertex="1">
          <mxGeometry width="30" height="30" as="geometry">
            <mxRectangle width="30" height="30" as="alternateBounds" />
          </mxGeometry>
        </mxCell>
        <mxCell id="Y1GvVrHPXR3qDruFsFM_-5" value="id_membresia(INT)" style="shape=partialRectangle;overflow=hidden;connectable=0;fillColor=none;top=0;left=0;bottom=0;right=0;align=left;spacingLeft=6;fontStyle=5;labelBackgroundColor=none;rounded=0;" parent="Y1GvVrHPXR3qDruFsFM_-3" vertex="1">
          <mxGeometry x="30" width="220.00404931812537" height="30" as="geometry">
            <mxRectangle width="220.00404931812537" height="30" as="alternateBounds" />
          </mxGeometry>
        </mxCell>
        <mxCell id="Y1GvVrHPXR3qDruFsFM_-6" value="" style="shape=partialRectangle;collapsible=0;dropTarget=0;pointerEvents=0;fillColor=none;points=[[0,0.5],[1,0.5]];portConstraint=eastwest;top=0;left=0;right=0;bottom=0;labelBackgroundColor=none;rounded=0;" parent="Y1GvVrHPXR3qDruFsFM_-2" vertex="1">
          <mxGeometry y="60" width="250.00404931812537" height="30" as="geometry" />
        </mxCell>
        <mxCell id="Y1GvVrHPXR3qDruFsFM_-7" value="" style="shape=partialRectangle;overflow=hidden;connectable=0;fillColor=none;top=0;left=0;bottom=0;right=0;labelBackgroundColor=none;rounded=0;" parent="Y1GvVrHPXR3qDruFsFM_-6" vertex="1">
          <mxGeometry width="30" height="30" as="geometry">
            <mxRectangle width="30" height="30" as="alternateBounds" />
          </mxGeometry>
        </mxCell>
        <mxCell id="Y1GvVrHPXR3qDruFsFM_-8" value="Tipo(VARCHAR(40))" style="shape=partialRectangle;overflow=hidden;connectable=0;fillColor=none;top=0;left=0;bottom=0;right=0;align=left;spacingLeft=6;labelBackgroundColor=none;rounded=0;" parent="Y1GvVrHPXR3qDruFsFM_-6" vertex="1">
          <mxGeometry x="30" width="220.00404931812537" height="30" as="geometry">
            <mxRectangle width="220.00404931812537" height="30" as="alternateBounds" />
          </mxGeometry>
        </mxCell>
        <mxCell id="Y1GvVrHPXR3qDruFsFM_-12" value="" style="shape=partialRectangle;collapsible=0;dropTarget=0;pointerEvents=0;fillColor=none;points=[[0,0.5],[1,0.5]];portConstraint=eastwest;top=0;left=0;right=0;bottom=0;labelBackgroundColor=none;rounded=0;" parent="mYwCcXJ4D1W0WyXVsucd-4" vertex="1">
          <mxGeometry y="180.0029360986007" width="250.00404931812537" height="30.000489349766784" as="geometry" />
        </mxCell>
        <mxCell id="Y1GvVrHPXR3qDruFsFM_-13" value="FK" style="shape=partialRectangle;overflow=hidden;connectable=0;fillColor=none;top=0;left=0;bottom=0;right=0;labelBackgroundColor=none;rounded=0;" parent="Y1GvVrHPXR3qDruFsFM_-12" vertex="1">
          <mxGeometry width="30.000485918175045" height="30.000489349766784" as="geometry">
            <mxRectangle width="30" height="30" as="alternateBounds" />
          </mxGeometry>
        </mxCell>
        <mxCell id="Y1GvVrHPXR3qDruFsFM_-14" value="id_usuario(INT)" style="shape=partialRectangle;overflow=hidden;connectable=0;fillColor=none;top=0;left=0;bottom=0;right=0;align=left;spacingLeft=6;labelBackgroundColor=none;rounded=0;" parent="Y1GvVrHPXR3qDruFsFM_-12" vertex="1">
          <mxGeometry x="30.000485918175045" width="220.0035633999503" height="30.000489349766784" as="geometry">
            <mxRectangle width="220" height="30" as="alternateBounds" />
          </mxGeometry>
        </mxCell>
        <mxCell id="mYwCcXJ4D1W0WyXVsucd-1" value="" style="shape=partialRectangle;collapsible=0;dropTarget=0;pointerEvents=0;fillColor=none;points=[[0,0.5],[1,0.5]];portConstraint=eastwest;top=0;left=0;right=0;bottom=0;labelBackgroundColor=none;rounded=0;" parent="mYwCcXJ4D1W0WyXVsucd-4" vertex="1">
          <mxGeometry y="210.0034254483675" width="250.00404931812537" height="30.000489349766784" as="geometry" />
        </mxCell>
        <mxCell id="mYwCcXJ4D1W0WyXVsucd-2" value="" style="shape=partialRectangle;overflow=hidden;connectable=0;fillColor=none;top=0;left=0;bottom=0;right=0;labelBackgroundColor=none;rounded=0;" parent="mYwCcXJ4D1W0WyXVsucd-1" vertex="1">
          <mxGeometry width="30.000485918175045" height="30.000489349766784" as="geometry">
            <mxRectangle width="30" height="30" as="alternateBounds" />
          </mxGeometry>
        </mxCell>
        <mxCell id="mYwCcXJ4D1W0WyXVsucd-24" value="Fecha_inicio(DATE)" style="shape=partialRectangle;overflow=hidden;connectable=0;fillColor=none;top=0;left=0;bottom=0;right=0;align=left;spacingLeft=6;labelBackgroundColor=none;rounded=0;" parent="mYwCcXJ4D1W0WyXVsucd-4" vertex="1">
          <mxGeometry x="30.000485918175045" y="90.00146804930036" width="220.0035633999503" height="30.000489349766784" as="geometry">
            <mxRectangle width="220" height="30" as="alternateBounds" />
          </mxGeometry>
        </mxCell>
        <mxCell id="mYwCcXJ4D1W0WyXVsucd-25" value="Fecha_final(DATE)" style="shape=partialRectangle;overflow=hidden;connectable=0;fillColor=none;top=0;left=0;bottom=0;right=0;align=left;spacingLeft=6;labelBackgroundColor=none;rounded=0;" parent="mYwCcXJ4D1W0WyXVsucd-4" vertex="1">
          <mxGeometry x="30.000485918175045" y="120.00195739906714" width="220.0035633999503" height="30.000489349766784" as="geometry">
            <mxRectangle width="220" height="30" as="alternateBounds" />
          </mxGeometry>
        </mxCell>
        <mxCell id="mYwCcXJ4D1W0WyXVsucd-26" value="Estado(VARCHAR(20))" style="shape=partialRectangle;overflow=hidden;connectable=0;fillColor=none;top=0;left=0;bottom=0;right=0;align=left;spacingLeft=6;labelBackgroundColor=none;rounded=0;" parent="mYwCcXJ4D1W0WyXVsucd-4" vertex="1">
          <mxGeometry x="30.000485918175045" y="150.0024467488339" width="220.0035633999503" height="30.000489349766784" as="geometry">
            <mxRectangle width="220" height="30" as="alternateBounds" />
          </mxGeometry>
        </mxCell>
        <mxCell id="rWbLGAuyZA22XuX0GYQ3-4" value="" style="shape=stencil(fZbdcgIhDIWfZm8zQAg/17Z9j85U606tdqz9e/tmZ0c0uJ47xP0I5JwEBl59bp8/1kNwn6fj4W39M76ctgM/DCGM++36OJ50NPDjwKvN4bh+PR6+9i/z74/n6ctp9H74nlb4nbmSKZeJCu5vngmZ6jzzNAO7cX8FVKEsBuBKrgKg9oAE8gkCbLeUhEoEQKSUDZDLeWYRKIl8MEDRmHwfyBrBG6Amyu4+kDxxMoB3jhwgYu7TVAsVkFcWCs4CTBEoF4RctKeOxHIf8IXYpikHikAIf+MNUW94AGSSaoAoFIE3AlOyeWU+p2E5S9yfQZcQILVuQOwZdJNoS9Ls3wA5u2XZTIHECqeJ9kDpSaauRiNVcAY1QhdBzeLBli5WazpkSsBLV25uRaqWRyFawTQzRRIQYirJzq5atkBqLfouwqUxLBepthWb10vrWZY6UOAeyKCCtDV625mm9gmUC4Wc3VLJMMIE1BsA2FW9JraVlQB7n3c9oMKhCLEvIM1zBPZ25/umNQ1tVEC2G+fFCC8g398O2hNQuQlVu752DBfA+q0ptnqO5JFmeuIuo9DY7KjY71UxdJV4EntifPWorW++R/dC4t7V3DlIB5cHx2bc7eb3yvX//QNFp+bHDT/+Aw==);lineShape=1;labelBackgroundColor=none;rounded=0;" parent="4ngdB6riOOxADxfWitAE-2" vertex="1">
          <mxGeometry x="262.33923068185607" width="5.840769318143972" height="5.831640392624392" as="geometry" />
        </mxCell>
        <mxCell id="mYwCcXJ4D1W0WyXVsucd-7" value="" style="group;labelBackgroundColor=none;rounded=0;" parent="1" vertex="1" connectable="0">
          <mxGeometry x="1070" y="-320" width="250" height="97.14285714285714" as="geometry" />
        </mxCell>
        <mxCell id="mYwCcXJ4D1W0WyXVsucd-22" value="" style="group;labelBackgroundColor=none;rounded=0;" parent="mYwCcXJ4D1W0WyXVsucd-7" vertex="1" connectable="0">
          <mxGeometry width="250" height="68.57142857142857" as="geometry" />
        </mxCell>
        <mxCell id="mYwCcXJ4D1W0WyXVsucd-8" value="Metodos_pago" style="shape=table;startSize=30;container=1;collapsible=1;childLayout=tableLayout;fixedRows=1;rowLines=0;fontStyle=1;align=center;resizeLast=1;labelBackgroundColor=none;rounded=0;" parent="mYwCcXJ4D1W0WyXVsucd-22" vertex="1">
          <mxGeometry width="250" height="98.18181818181817" as="geometry" />
        </mxCell>
        <mxCell id="mYwCcXJ4D1W0WyXVsucd-9" value="" style="shape=partialRectangle;collapsible=0;dropTarget=0;pointerEvents=0;fillColor=none;points=[[0,0.5],[1,0.5]];portConstraint=eastwest;top=0;left=0;right=0;bottom=1;labelBackgroundColor=none;rounded=0;" parent="mYwCcXJ4D1W0WyXVsucd-8" vertex="1">
          <mxGeometry y="30" width="250" height="30" as="geometry" />
        </mxCell>
        <mxCell id="mYwCcXJ4D1W0WyXVsucd-10" value="PK" style="shape=partialRectangle;overflow=hidden;connectable=0;fillColor=none;top=0;left=0;bottom=0;right=0;fontStyle=1;labelBackgroundColor=none;rounded=0;" parent="mYwCcXJ4D1W0WyXVsucd-9" vertex="1">
          <mxGeometry width="30" height="30" as="geometry">
            <mxRectangle width="30" height="30" as="alternateBounds" />
          </mxGeometry>
        </mxCell>
        <mxCell id="mYwCcXJ4D1W0WyXVsucd-11" value="id_metodo_pago(INT)" style="shape=partialRectangle;overflow=hidden;connectable=0;fillColor=none;top=0;left=0;bottom=0;right=0;align=left;spacingLeft=6;fontStyle=5;labelBackgroundColor=none;rounded=0;" parent="mYwCcXJ4D1W0WyXVsucd-9" vertex="1">
          <mxGeometry x="30" width="220" height="30" as="geometry">
            <mxRectangle width="220" height="30" as="alternateBounds" />
          </mxGeometry>
        </mxCell>
        <mxCell id="mYwCcXJ4D1W0WyXVsucd-12" value="" style="shape=partialRectangle;collapsible=0;dropTarget=0;pointerEvents=0;fillColor=none;points=[[0,0.5],[1,0.5]];portConstraint=eastwest;top=0;left=0;right=0;bottom=0;labelBackgroundColor=none;rounded=0;" parent="mYwCcXJ4D1W0WyXVsucd-8" vertex="1">
          <mxGeometry y="60" width="250" height="30" as="geometry" />
        </mxCell>
        <mxCell id="mYwCcXJ4D1W0WyXVsucd-13" value="" style="shape=partialRectangle;overflow=hidden;connectable=0;fillColor=none;top=0;left=0;bottom=0;right=0;labelBackgroundColor=none;rounded=0;" parent="mYwCcXJ4D1W0WyXVsucd-12" vertex="1">
          <mxGeometry width="30" height="30" as="geometry">
            <mxRectangle width="30" height="30" as="alternateBounds" />
          </mxGeometry>
        </mxCell>
        <mxCell id="mYwCcXJ4D1W0WyXVsucd-14" value="Tipo_pago(VARCHAR(25))" style="shape=partialRectangle;overflow=hidden;connectable=0;fillColor=none;top=0;left=0;bottom=0;right=0;align=left;spacingLeft=6;labelBackgroundColor=none;rounded=0;" parent="mYwCcXJ4D1W0WyXVsucd-12" vertex="1">
          <mxGeometry x="30" width="220" height="30" as="geometry">
            <mxRectangle width="220" height="30" as="alternateBounds" />
          </mxGeometry>
        </mxCell>
        <mxCell id="mYwCcXJ4D1W0WyXVsucd-15" value="" style="shape=partialRectangle;collapsible=0;dropTarget=0;pointerEvents=0;fillColor=none;points=[[0,0.5],[1,0.5]];portConstraint=eastwest;top=0;left=0;right=0;bottom=0;labelBackgroundColor=none;rounded=0;" parent="mYwCcXJ4D1W0WyXVsucd-22" vertex="1">
          <mxGeometry y="51.42857142857143" width="250" height="17.142857142857142" as="geometry" />
        </mxCell>
        <mxCell id="mYwCcXJ4D1W0WyXVsucd-17" value="" style="shape=partialRectangle;overflow=hidden;connectable=0;fillColor=none;top=0;left=0;bottom=0;right=0;align=left;spacingLeft=6;labelBackgroundColor=none;rounded=0;" parent="mYwCcXJ4D1W0WyXVsucd-15" vertex="1">
          <mxGeometry x="30" width="220" height="17.142857142857142" as="geometry">
            <mxRectangle width="220" height="30" as="alternateBounds" />
          </mxGeometry>
        </mxCell>
        <mxCell id="R8GNkzTn_ce1CcZ8P2t4-26" style="edgeStyle=orthogonalEdgeStyle;rounded=0;orthogonalLoop=1;jettySize=auto;html=1;endArrow=ERone;endFill=0;startArrow=ERmany;startFill=0;labelBackgroundColor=none;fontColor=default;" parent="1" source="mYwCcXJ4D1W0WyXVsucd-15" target="R8GNkzTn_ce1CcZ8P2t4-23" edge="1">
          <mxGeometry relative="1" as="geometry" />
        </mxCell>
        <mxCell id="R8GNkzTn_ce1CcZ8P2t4-28" style="edgeStyle=orthogonalEdgeStyle;rounded=0;orthogonalLoop=1;jettySize=auto;html=1;startArrow=ERone;startFill=0;endArrow=ERmany;endFill=0;labelBackgroundColor=none;fontColor=default;entryX=0;entryY=0.5;entryDx=0;entryDy=0;" parent="1" source="Y1GvVrHPXR3qDruFsFM_-3" target="R8GNkzTn_ce1CcZ8P2t4-29" edge="1">
          <mxGeometry relative="1" as="geometry" />
        </mxCell>
        <mxCell id="R8GNkzTn_ce1CcZ8P2t4-34" value="" style="group;labelBackgroundColor=none;rounded=0;" parent="1" vertex="1" connectable="0">
          <mxGeometry x="700" y="-440" width="250" height="190" as="geometry" />
        </mxCell>
        <mxCell id="R8GNkzTn_ce1CcZ8P2t4-23" value="" style="shape=partialRectangle;collapsible=0;dropTarget=0;pointerEvents=0;fillColor=none;points=[[0,0.5],[1,0.5]];portConstraint=eastwest;top=0;left=0;right=0;bottom=0;labelBackgroundColor=none;rounded=0;" parent="R8GNkzTn_ce1CcZ8P2t4-34" vertex="1">
          <mxGeometry y="150" width="250" height="30" as="geometry" />
        </mxCell>
        <mxCell id="R8GNkzTn_ce1CcZ8P2t4-24" value="FK" style="shape=partialRectangle;overflow=hidden;connectable=0;fillColor=none;top=0;left=0;bottom=0;right=0;labelBackgroundColor=none;rounded=0;" parent="R8GNkzTn_ce1CcZ8P2t4-23" vertex="1">
          <mxGeometry width="30" height="30" as="geometry">
            <mxRectangle width="30" height="30" as="alternateBounds" />
          </mxGeometry>
        </mxCell>
        <mxCell id="R8GNkzTn_ce1CcZ8P2t4-25" value="id_metodo_pago(INT)" style="shape=partialRectangle;overflow=hidden;connectable=0;fillColor=none;top=0;left=0;bottom=0;right=0;align=left;spacingLeft=6;labelBackgroundColor=none;rounded=0;" parent="R8GNkzTn_ce1CcZ8P2t4-23" vertex="1">
          <mxGeometry x="30" width="220" height="30" as="geometry">
            <mxRectangle width="220" height="30" as="alternateBounds" />
          </mxGeometry>
        </mxCell>
        <mxCell id="R8GNkzTn_ce1CcZ8P2t4-16" value="Membresia_metodo" style="shape=table;startSize=30;container=1;collapsible=1;childLayout=tableLayout;fixedRows=1;rowLines=0;fontStyle=1;align=center;resizeLast=1;labelBackgroundColor=none;rounded=0;" parent="R8GNkzTn_ce1CcZ8P2t4-34" vertex="1">
          <mxGeometry width="250" height="190" as="geometry" />
        </mxCell>
        <mxCell id="R8GNkzTn_ce1CcZ8P2t4-17" value="" style="shape=partialRectangle;collapsible=0;dropTarget=0;pointerEvents=0;fillColor=none;points=[[0,0.5],[1,0.5]];portConstraint=eastwest;top=0;left=0;right=0;bottom=1;labelBackgroundColor=none;rounded=0;" parent="R8GNkzTn_ce1CcZ8P2t4-16" vertex="1">
          <mxGeometry y="30" width="250" height="30" as="geometry" />
        </mxCell>
        <mxCell id="R8GNkzTn_ce1CcZ8P2t4-18" value="PK" style="shape=partialRectangle;overflow=hidden;connectable=0;fillColor=none;top=0;left=0;bottom=0;right=0;fontStyle=1;labelBackgroundColor=none;rounded=0;" parent="R8GNkzTn_ce1CcZ8P2t4-17" vertex="1">
          <mxGeometry width="30" height="30" as="geometry">
            <mxRectangle width="30" height="30" as="alternateBounds" />
          </mxGeometry>
        </mxCell>
        <mxCell id="R8GNkzTn_ce1CcZ8P2t4-19" value="id_menbresia_metodo(INT)" style="shape=partialRectangle;overflow=hidden;connectable=0;fillColor=none;top=0;left=0;bottom=0;right=0;align=left;spacingLeft=6;fontStyle=5;labelBackgroundColor=none;rounded=0;" parent="R8GNkzTn_ce1CcZ8P2t4-17" vertex="1">
          <mxGeometry x="30" width="220" height="30" as="geometry">
            <mxRectangle width="220" height="30" as="alternateBounds" />
          </mxGeometry>
        </mxCell>
        <mxCell id="R8GNkzTn_ce1CcZ8P2t4-20" value="" style="shape=partialRectangle;collapsible=0;dropTarget=0;pointerEvents=0;fillColor=none;points=[[0,0.5],[1,0.5]];portConstraint=eastwest;top=0;left=0;right=0;bottom=0;labelBackgroundColor=none;rounded=0;" parent="R8GNkzTn_ce1CcZ8P2t4-16" vertex="1">
          <mxGeometry y="60" width="250" height="30" as="geometry" />
        </mxCell>
        <mxCell id="R8GNkzTn_ce1CcZ8P2t4-21" value="" style="shape=partialRectangle;overflow=hidden;connectable=0;fillColor=none;top=0;left=0;bottom=0;right=0;labelBackgroundColor=none;rounded=0;" parent="R8GNkzTn_ce1CcZ8P2t4-20" vertex="1">
          <mxGeometry width="30" height="30" as="geometry">
            <mxRectangle width="30" height="30" as="alternateBounds" />
          </mxGeometry>
        </mxCell>
        <mxCell id="R8GNkzTn_ce1CcZ8P2t4-22" value="fecha_pago(DATE)" style="shape=partialRectangle;overflow=hidden;connectable=0;fillColor=none;top=0;left=0;bottom=0;right=0;align=left;spacingLeft=6;labelBackgroundColor=none;rounded=0;" parent="R8GNkzTn_ce1CcZ8P2t4-20" vertex="1">
          <mxGeometry x="30" width="220" height="30" as="geometry">
            <mxRectangle width="220" height="30" as="alternateBounds" />
          </mxGeometry>
        </mxCell>
        <mxCell id="R8GNkzTn_ce1CcZ8P2t4-29" value="" style="shape=partialRectangle;collapsible=0;dropTarget=0;pointerEvents=0;fillColor=none;points=[[0,0.5],[1,0.5]];portConstraint=eastwest;top=0;left=0;right=0;bottom=0;labelBackgroundColor=none;rounded=0;" parent="R8GNkzTn_ce1CcZ8P2t4-34" vertex="1">
          <mxGeometry y="120" width="250" height="30" as="geometry" />
        </mxCell>
        <mxCell id="R8GNkzTn_ce1CcZ8P2t4-30" value="FK" style="shape=partialRectangle;overflow=hidden;connectable=0;fillColor=none;top=0;left=0;bottom=0;right=0;labelBackgroundColor=none;rounded=0;" parent="R8GNkzTn_ce1CcZ8P2t4-29" vertex="1">
          <mxGeometry width="30" height="30" as="geometry">
            <mxRectangle width="30" height="30" as="alternateBounds" />
          </mxGeometry>
        </mxCell>
        <mxCell id="R8GNkzTn_ce1CcZ8P2t4-31" value="id_membresia(INT)" style="shape=partialRectangle;overflow=hidden;connectable=0;fillColor=none;top=0;left=0;bottom=0;right=0;align=left;spacingLeft=6;labelBackgroundColor=none;rounded=0;" parent="R8GNkzTn_ce1CcZ8P2t4-29" vertex="1">
          <mxGeometry x="30" width="220" height="30" as="geometry">
            <mxRectangle width="220" height="30" as="alternateBounds" />
          </mxGeometry>
        </mxCell>
        <mxCell id="R8GNkzTn_ce1CcZ8P2t4-33" value="Monto(DECIMAL)" style="shape=partialRectangle;overflow=hidden;connectable=0;fillColor=none;top=0;left=0;bottom=0;right=0;align=left;spacingLeft=6;labelBackgroundColor=none;rounded=0;" parent="R8GNkzTn_ce1CcZ8P2t4-34" vertex="1">
          <mxGeometry x="30" y="90" width="220" height="30" as="geometry">
            <mxRectangle width="220" height="30" as="alternateBounds" />
          </mxGeometry>
        </mxCell>
        <mxCell id="R8GNkzTn_ce1CcZ8P2t4-49" value="" style="group;labelBackgroundColor=none;rounded=0;" parent="1" vertex="1" connectable="0">
          <mxGeometry x="1260" y="207.69" width="250" height="139.99999999999997" as="geometry" />
        </mxCell>
        <mxCell id="R8GNkzTn_ce1CcZ8P2t4-36" value="Viajes_lug" style="shape=table;startSize=30;container=1;collapsible=1;childLayout=tableLayout;fixedRows=1;rowLines=0;fontStyle=1;align=center;resizeLast=1;labelBackgroundColor=none;rounded=0;" parent="R8GNkzTn_ce1CcZ8P2t4-49" vertex="1">
          <mxGeometry width="250" height="140" as="geometry" />
        </mxCell>
        <mxCell id="R8GNkzTn_ce1CcZ8P2t4-37" value="" style="shape=partialRectangle;collapsible=0;dropTarget=0;pointerEvents=0;fillColor=none;points=[[0,0.5],[1,0.5]];portConstraint=eastwest;top=0;left=0;right=0;bottom=1;labelBackgroundColor=none;rounded=0;" parent="R8GNkzTn_ce1CcZ8P2t4-36" vertex="1">
          <mxGeometry y="30" width="250" height="30" as="geometry" />
        </mxCell>
        <mxCell id="R8GNkzTn_ce1CcZ8P2t4-38" value="PK" style="shape=partialRectangle;overflow=hidden;connectable=0;fillColor=none;top=0;left=0;bottom=0;right=0;fontStyle=1;labelBackgroundColor=none;rounded=0;" parent="R8GNkzTn_ce1CcZ8P2t4-37" vertex="1">
          <mxGeometry width="30" height="30" as="geometry">
            <mxRectangle width="30" height="30" as="alternateBounds" />
          </mxGeometry>
        </mxCell>
        <mxCell id="R8GNkzTn_ce1CcZ8P2t4-39" value="id_lugar(INT)" style="shape=partialRectangle;overflow=hidden;connectable=0;fillColor=none;top=0;left=0;bottom=0;right=0;align=left;spacingLeft=6;fontStyle=5;labelBackgroundColor=none;rounded=0;" parent="R8GNkzTn_ce1CcZ8P2t4-37" vertex="1">
          <mxGeometry x="30" width="220" height="30" as="geometry">
            <mxRectangle width="220" height="30" as="alternateBounds" />
          </mxGeometry>
        </mxCell>
        <mxCell id="R8GNkzTn_ce1CcZ8P2t4-40" value="" style="shape=partialRectangle;collapsible=0;dropTarget=0;pointerEvents=0;fillColor=none;points=[[0,0.5],[1,0.5]];portConstraint=eastwest;top=0;left=0;right=0;bottom=0;labelBackgroundColor=none;rounded=0;" parent="R8GNkzTn_ce1CcZ8P2t4-36" vertex="1">
          <mxGeometry y="60" width="250" height="30" as="geometry" />
        </mxCell>
        <mxCell id="R8GNkzTn_ce1CcZ8P2t4-41" value="" style="shape=partialRectangle;overflow=hidden;connectable=0;fillColor=none;top=0;left=0;bottom=0;right=0;labelBackgroundColor=none;rounded=0;" parent="R8GNkzTn_ce1CcZ8P2t4-40" vertex="1">
          <mxGeometry width="30" height="30" as="geometry">
            <mxRectangle width="30" height="30" as="alternateBounds" />
          </mxGeometry>
        </mxCell>
        <mxCell id="R8GNkzTn_ce1CcZ8P2t4-42" value="" style="shape=partialRectangle;overflow=hidden;connectable=0;fillColor=none;top=0;left=0;bottom=0;right=0;align=left;spacingLeft=6;labelBackgroundColor=none;rounded=0;" parent="R8GNkzTn_ce1CcZ8P2t4-40" vertex="1">
          <mxGeometry x="30" width="220" height="30" as="geometry">
            <mxRectangle width="220" height="30" as="alternateBounds" />
          </mxGeometry>
        </mxCell>
        <mxCell id="R8GNkzTn_ce1CcZ8P2t4-43" value="" style="shape=partialRectangle;collapsible=0;dropTarget=0;pointerEvents=0;fillColor=none;points=[[0,0.5],[1,0.5]];portConstraint=eastwest;top=0;left=0;right=0;bottom=0;labelBackgroundColor=none;rounded=0;" parent="R8GNkzTn_ce1CcZ8P2t4-49" vertex="1">
          <mxGeometry y="53.84384615384616" width="250" height="46.15384615384615" as="geometry" />
        </mxCell>
        <mxCell id="R8GNkzTn_ce1CcZ8P2t4-44" value="FK" style="shape=partialRectangle;overflow=hidden;connectable=0;fillColor=none;top=0;left=0;bottom=0;right=0;labelBackgroundColor=none;rounded=0;" parent="R8GNkzTn_ce1CcZ8P2t4-43" vertex="1">
          <mxGeometry width="30" height="46.15384615384615" as="geometry">
            <mxRectangle width="30" height="30" as="alternateBounds" />
          </mxGeometry>
        </mxCell>
        <mxCell id="R8GNkzTn_ce1CcZ8P2t4-45" value="id_viaje" style="shape=partialRectangle;overflow=hidden;connectable=0;fillColor=none;top=0;left=0;bottom=0;right=0;align=left;spacingLeft=6;labelBackgroundColor=none;rounded=0;" parent="R8GNkzTn_ce1CcZ8P2t4-43" vertex="1">
          <mxGeometry x="30" width="220" height="46.15384615384615" as="geometry">
            <mxRectangle width="220" height="30" as="alternateBounds" />
          </mxGeometry>
        </mxCell>
        <mxCell id="R8GNkzTn_ce1CcZ8P2t4-46" value="" style="shape=partialRectangle;collapsible=0;dropTarget=0;pointerEvents=0;fillColor=none;points=[[0,0.5],[1,0.5]];portConstraint=eastwest;top=0;left=0;right=0;bottom=0;labelBackgroundColor=none;rounded=0;" parent="R8GNkzTn_ce1CcZ8P2t4-49" vertex="1">
          <mxGeometry y="93.84384615384616" width="250" height="46.15384615384615" as="geometry" />
        </mxCell>
        <mxCell id="R8GNkzTn_ce1CcZ8P2t4-47" value="FK" style="shape=partialRectangle;overflow=hidden;connectable=0;fillColor=none;top=0;left=0;bottom=0;right=0;labelBackgroundColor=none;rounded=0;" parent="R8GNkzTn_ce1CcZ8P2t4-46" vertex="1">
          <mxGeometry width="30" height="46.15384615384615" as="geometry">
            <mxRectangle width="30" height="30" as="alternateBounds" />
          </mxGeometry>
        </mxCell>
        <mxCell id="R8GNkzTn_ce1CcZ8P2t4-48" value="id_lugar" style="shape=partialRectangle;overflow=hidden;connectable=0;fillColor=none;top=0;left=0;bottom=0;right=0;align=left;spacingLeft=6;labelBackgroundColor=none;rounded=0;" parent="R8GNkzTn_ce1CcZ8P2t4-46" vertex="1">
          <mxGeometry x="30" width="220" height="46.15384615384615" as="geometry">
            <mxRectangle width="220" height="30" as="alternateBounds" />
          </mxGeometry>
        </mxCell>
        <mxCell id="R8GNkzTn_ce1CcZ8P2t4-51" style="edgeStyle=orthogonalEdgeStyle;rounded=0;orthogonalLoop=1;jettySize=auto;html=1;startArrow=ERone;startFill=0;endArrow=ERmany;endFill=0;labelBackgroundColor=none;fontColor=default;" parent="1" source="TOLBs5nu6_EnxWr0bToY-117" target="R8GNkzTn_ce1CcZ8P2t4-43" edge="1">
          <mxGeometry relative="1" as="geometry" />
        </mxCell>
        <mxCell id="R8GNkzTn_ce1CcZ8P2t4-52" style="edgeStyle=orthogonalEdgeStyle;rounded=0;orthogonalLoop=1;jettySize=auto;html=1;entryX=0;entryY=0.5;entryDx=0;entryDy=0;startArrow=ERone;startFill=0;endArrow=ERmany;endFill=0;labelBackgroundColor=none;fontColor=default;" parent="1" source="TOLBs5nu6_EnxWr0bToY-235" target="R8GNkzTn_ce1CcZ8P2t4-46" edge="1">
          <mxGeometry relative="1" as="geometry" />
        </mxCell>
      </root>
    </mxGraphModel>
  </diagram>
</mxfile>
